<?xml version="1.0" encoding="utf-8"?>   
<svg xmlns="http://www.w3.org/2000/svg" version="1.1" width="2880px" height="1728px" xmlns:xlink="http://www.w3.org/1999/xlink">
<g><path style="opacity:1" fill="#000000" d="M -0.5,-0.5 C 959.5,-0.5 1919.5,-0.5 2879.5,-0.5C 2879.5,191.5 2879.5,383.5 2879.5,575.5C 1919.5,575.5 959.5,575.5 -0.5,575.5C -0.5,383.5 -0.5,191.5 -0.5,-0.5 Z"/></g>
<g><path style="opacity:1" fill="#dc0000" d="M -0.5,575.5 C 959.5,575.5 1919.5,575.5 2879.5,575.5C 2879.5,767.5 2879.5,959.5 2879.5,1151.5C 1919.5,1151.5 959.5,1151.5 -0.5,1151.5C -0.5,959.5 -0.5,767.5 -0.5,575.5 Z"/></g>
<g><path style="opacity:1" fill="#fece00" d="M -0.5,1151.5 C 959.5,1151.5 1919.5,1151.5 2879.5,1151.5C 2879.5,1343.5 2879.5,1535.5 2879.5,1727.5C 1919.5,1727.5 959.5,1727.5 -0.5,1727.5C -0.5,1535.5 -0.5,1343.5 -0.5,1151.5 Z"/></g>
</svg>