<?xml version="1.0" encoding="UTF-8"?>
<!DOCTYPE svg PUBLIC "-//W3C//DTD SVG 1.1//EN" "http://www.w3.org/Graphics/SVG/1.1/DTD/svg11.dtd">
<svg xmlns="http://www.w3.org/2000/svg" version="1.1" width="2880px" height="1920px" style="shape-rendering:geometricPrecision; text-rendering:geometricPrecision; image-rendering:optimizeQuality; fill-rule:evenodd; clip-rule:evenodd" xmlns:xlink="http://www.w3.org/1999/xlink">
<g><path style="opacity:1" fill="#fe9932" d="M -0.5,-0.5 C 959.5,-0.5 1919.5,-0.5 2879.5,-0.5C 2879.5,212.833 2879.5,426.167 2879.5,639.5C 1919.5,639.5 959.5,639.5 -0.5,639.5C -0.5,426.167 -0.5,212.833 -0.5,-0.5 Z"/></g>
<g><path style="opacity:1" fill="#fefefe" d="M -0.5,639.5 C 959.5,639.5 1919.5,639.5 2879.5,639.5C 2879.5,852.833 2879.5,1066.17 2879.5,1279.5C 1919.5,1279.5 959.5,1279.5 -0.5,1279.5C -0.5,1066.17 -0.5,852.833 -0.5,639.5 Z"/></g>
<g><path style="opacity:1" fill="#030188" d="M 1419.5,703.5 C 1530.86,700.572 1613.69,747.239 1668,843.5C 1702.29,915.586 1704.29,988.586 1674,1062.5C 1636.02,1142.8 1573.52,1192.3 1486.5,1211C 1383.25,1226.26 1299.08,1193.43 1234,1112.5C 1183.4,1039.98 1171.07,961.31 1197,876.5C 1230.63,787.87 1293.47,732.036 1385.5,709C 1396.9,706.716 1408.24,704.882 1419.5,703.5 Z"/></g>
<g><path style="opacity:1" fill="#c5c4e4" d="M 1421.5,736.5 C 1433.5,735.167 1445.5,735.167 1457.5,736.5C 1451.83,736.5 1446.17,736.5 1440.5,736.5C 1440.5,738.833 1440.5,741.167 1440.5,743.5C 1439.83,743.5 1439.17,743.5 1438.5,743.5C 1438.5,741.167 1438.5,738.833 1438.5,736.5C 1432.83,736.5 1427.17,736.5 1421.5,736.5 Z"/></g>
<g><path style="opacity:1" fill="#fcfbfd" d="M 1421.5,736.5 C 1427.17,736.5 1432.83,736.5 1438.5,736.5C 1438.5,738.833 1438.5,741.167 1438.5,743.5C 1436.69,783.007 1434.69,822.507 1432.5,862C 1432.78,878.261 1434.11,894.428 1436.5,910.5C 1436.5,911.833 1436.5,913.167 1436.5,914.5C 1434.9,914.232 1433.57,914.566 1432.5,915.5C 1431.5,915.5 1430.5,915.5 1429.5,915.5C 1428.41,899.691 1426.24,884.024 1423,868.5C 1410.2,829.104 1397.2,789.771 1384,750.5C 1391.93,791.838 1400.27,833.172 1409,874.5C 1414.8,888.752 1420.3,903.085 1425.5,917.5C 1423.32,917.586 1421.32,918.253 1419.5,919.5C 1413.06,905.626 1406.9,891.626 1401,877.5C 1378,842.5 1355,807.5 1332,772.5C 1350.32,810.145 1368.99,847.811 1388,885.5C 1396,896.167 1404,906.833 1412,917.5C 1415.48,922.04 1414.32,924.54 1408.5,925C 1397.64,910.964 1386.31,897.298 1374.5,884C 1345.35,858.352 1316.35,832.519 1287.5,806.5C 1287.17,806.667 1286.83,806.833 1286.5,807C 1315.5,839.333 1344.5,871.667 1373.5,904C 1384.62,911.96 1395.29,920.46 1405.5,929.5C 1404.81,932.373 1403.14,933.873 1400.5,934C 1389.5,925.667 1378.5,917.333 1367.5,909C 1329.45,889.143 1291.12,870.143 1252.5,852C 1287.5,875 1322.5,898 1357.5,921C 1371.65,926.909 1385.65,933.076 1399.5,939.5C 1398.5,941.51 1397.5,943.51 1396.5,945.5C 1382.61,939.723 1368.61,934.223 1354.5,929C 1313.77,920.687 1273.1,912.187 1232.5,903.5C 1230.03,902.307 1227.36,901.807 1224.5,902C 1226.81,902.991 1229.14,903.824 1231.5,904.5C 1270.54,917.178 1309.54,930.011 1348.5,943C 1364.08,945.819 1379.75,947.986 1395.5,949.5C 1395.01,951.806 1394.67,954.139 1394.5,956.5C 1377.38,954.714 1360.21,953.381 1343,952.5C 1303.12,954.153 1263.29,956.486 1223.5,959.5C 1263.29,962.514 1303.12,964.847 1343,966.5C 1360.21,965.619 1377.38,964.286 1394.5,962.5C 1394.67,964.861 1395.01,967.194 1395.5,969.5C 1379.75,971.014 1364.08,973.181 1348.5,976C 1309.45,988.846 1270.45,1001.85 1231.5,1015C 1272.48,1006.94 1313.48,998.604 1354.5,990C 1368.61,984.777 1382.61,979.277 1396.5,973.5C 1397.5,975.49 1398.5,977.49 1399.5,979.5C 1385.65,985.924 1371.65,992.091 1357.5,998C 1322.5,1021 1287.5,1044 1252.5,1067C 1291.12,1048.86 1329.45,1029.86 1367.5,1010C 1378.5,1001.67 1389.5,993.333 1400.5,985C 1403.74,985.285 1405.24,987.118 1405,990.5C 1390.96,1001.36 1377.3,1012.69 1364,1024.5C 1338.94,1052.72 1314.1,1081.06 1289.5,1109.5C 1287.4,1110.52 1286.4,1111.85 1286.5,1113.5C 1288.19,1112.48 1289.52,1111.15 1290.5,1109.5C 1322.09,1082.08 1353.26,1054.08 1384,1025.5C 1391.8,1014.73 1399.97,1004.23 1408.5,994C 1411.88,993.758 1413.72,995.258 1414,998.5C 1405.09,1009.99 1396.42,1021.65 1388,1033.5C 1368.48,1070.88 1349.81,1108.55 1332,1146.5C 1355,1111.5 1378,1076.5 1401,1041.5C 1406.91,1027.35 1413.08,1013.35 1419.5,999.5C 1421.32,1000.75 1423.32,1001.41 1425.5,1001.5C 1420.3,1015.58 1414.8,1029.58 1409,1043.5C 1400.77,1083.17 1392.6,1122.83 1384.5,1162.5C 1383.18,1165.28 1382.68,1168.28 1383,1171.5C 1383.99,1169.19 1384.82,1166.86 1385.5,1164.5C 1397.89,1126.15 1410.39,1087.82 1423,1049.5C 1425.59,1034.22 1427.75,1018.89 1429.5,1003.5C 1430.5,1003.5 1431.5,1003.5 1432.5,1003.5C 1433.57,1004.43 1434.9,1004.77 1436.5,1004.5C 1436.5,1005.83 1436.5,1007.17 1436.5,1008.5C 1434.14,1024.41 1432.81,1040.41 1432.5,1056.5C 1434.44,1094.17 1436.44,1131.84 1438.5,1169.5C 1438.5,1172.17 1438.5,1174.83 1438.5,1177.5C 1438.5,1179.17 1438.5,1180.83 1438.5,1182.5C 1432.83,1182.5 1427.17,1182.5 1421.5,1182.5C 1420.61,1173.38 1415.61,1169.55 1406.5,1171C 1403.31,1172.69 1400.97,1175.19 1399.5,1178.5C 1387.87,1177.93 1376.54,1175.43 1365.5,1171C 1366.24,1159.45 1360.9,1154.45 1349.5,1156C 1347.02,1157.48 1344.85,1159.31 1343,1161.5C 1332.53,1156.6 1322.53,1150.93 1313,1144.5C 1316.64,1131.8 1311.8,1125.96 1298.5,1127C 1296.4,1129.57 1294.07,1129.9 1291.5,1128C 1283.62,1120.62 1276.28,1112.79 1269.5,1104.5C 1272.82,1099.82 1273.32,1094.82 1271,1089.5C 1266.23,1084.4 1260.73,1083.24 1254.5,1086C 1248.07,1076.47 1242.4,1066.47 1237.5,1056C 1244.06,1050.51 1245.06,1044.17 1240.5,1037C 1236.71,1035.19 1232.71,1034.02 1228.5,1033.5C 1224.79,1023.21 1221.79,1012.71 1219.5,1002C 1221.76,999.415 1224.26,996.915 1227,994.5C 1230.62,984.413 1227.12,978.747 1216.5,977.5C 1215.63,965.523 1215.3,953.523 1215.5,941.5C 1225.29,941.207 1229.46,936.207 1228,926.5C 1226.31,923.305 1223.81,920.972 1220.5,919.5C 1219.36,917.579 1219.19,915.579 1220,913.5C 1222.04,903.992 1224.71,894.659 1228,885.5C 1232.34,885.017 1236.51,883.851 1240.5,882C 1245.22,874.712 1244.22,868.379 1237.5,863C 1242.4,852.529 1248.07,842.529 1254.5,833C 1267.23,836.548 1273.06,831.714 1272,818.5C 1269.43,816.401 1269.1,814.068 1271,811.5C 1278.38,803.617 1286.21,796.283 1294.5,789.5C 1302.37,794.5 1308.87,793.167 1314,785.5C 1314.59,781.647 1314.25,777.98 1313,774.5C 1322.53,768.067 1332.53,762.4 1343,757.5C 1348.38,764.215 1354.71,765.215 1362,760.5C 1363.85,756.507 1365.02,752.34 1365.5,748C 1376.54,743.57 1387.87,741.07 1399.5,740.5C 1404.41,749.464 1410.91,750.798 1419,744.5C 1420.71,742.091 1421.54,739.425 1421.5,736.5 Z"/></g>
<g><path style="opacity:1" fill="#0d068a" d="M 1438.5,743.5 C 1439.17,743.5 1439.83,743.5 1440.5,743.5C 1442.2,784.87 1444.53,826.203 1447.5,867.5C 1445.45,881.798 1443.78,896.132 1442.5,910.5C 1441.55,911.919 1441.22,913.585 1441.5,915.5C 1443.17,915.5 1444.83,915.5 1446.5,915.5C 1447.5,915.5 1448.5,915.5 1449.5,915.5C 1450.59,899.691 1452.76,884.024 1456,868.5C 1469.14,828.093 1482.47,787.76 1496,747.5C 1487.48,789.784 1478.81,832.117 1470,874.5C 1464.2,888.752 1458.7,903.085 1453.5,917.5C 1455.68,917.586 1457.68,918.253 1459.5,919.5C 1465.94,905.626 1472.1,891.626 1478,877.5C 1501,842.5 1524,807.5 1547,772.5C 1528.68,810.145 1510.01,847.811 1491,885.5C 1482.58,897.345 1473.91,909.012 1465,920.5C 1465.28,923.742 1467.12,925.242 1470.5,925C 1480.78,911.114 1491.78,897.781 1503.5,885C 1533,858.833 1562.5,832.667 1592,806.5C 1592.67,807.167 1592.67,807.833 1592,808.5C 1563.05,840.239 1534.22,872.072 1505.5,904C 1494.38,911.96 1483.71,920.46 1473.5,929.5C 1474.56,933.798 1476.9,934.965 1480.5,933C 1491.32,924.424 1502.32,916.09 1513.5,908C 1550.88,888.476 1588.55,869.81 1626.5,852C 1592,874.418 1557.66,897.085 1523.5,920C 1508.76,926.411 1494.09,932.911 1479.5,939.5C 1480.75,941.323 1481.41,943.323 1481.5,945.5C 1495.58,940.297 1509.58,934.797 1523.5,929C 1563.14,920.616 1602.81,912.45 1642.5,904.5C 1643.49,904.328 1644.16,904.662 1644.5,905.5C 1606.15,917.893 1567.82,930.393 1529.5,943C 1514.22,945.587 1498.89,947.754 1483.5,949.5C 1483.5,950.5 1483.5,951.5 1483.5,952.5C 1483.5,954.167 1483.5,955.833 1483.5,957.5C 1485.41,957.784 1487.08,957.451 1488.5,956.5C 1503.42,954.441 1518.42,953.108 1533.5,952.5C 1572.84,954.471 1612.17,956.471 1651.5,958.5C 1651.5,959.167 1651.5,959.833 1651.5,960.5C 1612.17,962.529 1572.84,964.529 1533.5,966.5C 1518.42,965.892 1503.42,964.559 1488.5,962.5C 1487.08,961.549 1485.41,961.216 1483.5,961.5C 1483.5,963.167 1483.5,964.833 1483.5,966.5C 1483.5,967.5 1483.5,968.5 1483.5,969.5C 1498.89,971.246 1514.22,973.413 1529.5,976C 1567.82,988.607 1606.15,1001.11 1644.5,1013.5C 1644.16,1014.34 1643.49,1014.67 1642.5,1014.5C 1602.81,1006.55 1563.14,998.384 1523.5,990C 1509.58,984.203 1495.58,978.703 1481.5,973.5C 1481.41,975.677 1480.75,977.677 1479.5,979.5C 1494.09,986.089 1508.76,992.589 1523.5,999C 1557.66,1021.92 1592,1044.58 1626.5,1067C 1588.55,1049.19 1550.88,1030.52 1513.5,1011C 1502.32,1002.91 1491.32,994.576 1480.5,986C 1476.27,984.213 1474.1,985.713 1474,990.5C 1488.4,1000.88 1502.07,1012.21 1515,1024.5C 1540.06,1052.72 1564.9,1081.06 1589.5,1109.5C 1560.72,1084.56 1532.06,1059.4 1503.5,1034C 1491.78,1021.22 1480.78,1007.89 1470.5,994C 1467.12,993.758 1465.28,995.258 1465,998.5C 1473.91,1009.99 1482.58,1021.65 1491,1033.5C 1510.52,1070.88 1529.19,1108.55 1547,1146.5C 1524,1111.5 1501,1076.5 1478,1041.5C 1472.09,1027.35 1465.92,1013.35 1459.5,999.5C 1457.68,1000.75 1455.68,1001.41 1453.5,1001.5C 1458.7,1015.58 1464.2,1029.58 1470,1043.5C 1478.38,1083.14 1486.55,1122.8 1494.5,1162.5C 1494.67,1163.49 1494.34,1164.16 1493.5,1164.5C 1481.11,1126.15 1468.61,1087.82 1456,1049.5C 1453.41,1034.22 1451.25,1018.89 1449.5,1003.5C 1448.5,1003.5 1447.5,1003.5 1446.5,1003.5C 1444.83,1003.5 1443.17,1003.5 1441.5,1003.5C 1441.22,1005.41 1441.55,1007.08 1442.5,1008.5C 1444.61,1023.09 1445.95,1037.75 1446.5,1052.5C 1444.4,1091.5 1442.4,1130.5 1440.5,1169.5C 1439.83,1169.5 1439.17,1169.5 1438.5,1169.5C 1436.44,1131.84 1434.44,1094.17 1432.5,1056.5C 1432.81,1040.41 1434.14,1024.41 1436.5,1008.5C 1437.45,1007.08 1437.78,1005.41 1437.5,1003.5C 1435.83,1003.5 1434.17,1003.5 1432.5,1003.5C 1431.5,1003.5 1430.5,1003.5 1429.5,1003.5C 1427.75,1018.89 1425.59,1034.22 1423,1049.5C 1410.39,1087.82 1397.89,1126.15 1385.5,1164.5C 1384.66,1164.16 1384.33,1163.49 1384.5,1162.5C 1392.6,1122.83 1400.77,1083.17 1409,1043.5C 1414.8,1029.58 1420.3,1015.58 1425.5,1001.5C 1423.32,1001.41 1421.32,1000.75 1419.5,999.5C 1413.08,1013.35 1406.91,1027.35 1401,1041.5C 1378,1076.5 1355,1111.5 1332,1146.5C 1349.81,1108.55 1368.48,1070.88 1388,1033.5C 1396.42,1021.65 1405.09,1009.99 1414,998.5C 1413.72,995.258 1411.88,993.758 1408.5,994C 1399.97,1004.23 1391.8,1014.73 1384,1025.5C 1353.26,1054.08 1322.09,1082.08 1290.5,1109.5C 1290.17,1109.5 1289.83,1109.5 1289.5,1109.5C 1314.1,1081.06 1338.94,1052.72 1364,1024.5C 1377.3,1012.69 1390.96,1001.36 1405,990.5C 1405.24,987.118 1403.74,985.285 1400.5,985C 1389.5,993.333 1378.5,1001.67 1367.5,1010C 1329.45,1029.86 1291.12,1048.86 1252.5,1067C 1287.5,1044 1322.5,1021 1357.5,998C 1371.65,992.091 1385.65,985.924 1399.5,979.5C 1398.5,977.49 1397.5,975.49 1396.5,973.5C 1382.61,979.277 1368.61,984.777 1354.5,990C 1313.48,998.604 1272.48,1006.94 1231.5,1015C 1270.45,1001.85 1309.45,988.846 1348.5,976C 1364.08,973.181 1379.75,971.014 1395.5,969.5C 1395.01,967.194 1394.67,964.861 1394.5,962.5C 1377.38,964.286 1360.21,965.619 1343,966.5C 1303.12,964.847 1263.29,962.514 1223.5,959.5C 1263.29,956.486 1303.12,954.153 1343,952.5C 1360.21,953.381 1377.38,954.714 1394.5,956.5C 1394.67,954.139 1395.01,951.806 1395.5,949.5C 1379.75,947.986 1364.08,945.819 1348.5,943C 1309.54,930.011 1270.54,917.178 1231.5,904.5C 1231.5,903.833 1231.83,903.5 1232.5,903.5C 1273.1,912.187 1313.77,920.687 1354.5,929C 1368.61,934.223 1382.61,939.723 1396.5,945.5C 1397.5,943.51 1398.5,941.51 1399.5,939.5C 1385.65,933.076 1371.65,926.909 1357.5,921C 1322.5,898 1287.5,875 1252.5,852C 1291.12,870.143 1329.45,889.143 1367.5,909C 1378.5,917.333 1389.5,925.667 1400.5,934C 1403.14,933.873 1404.81,932.373 1405.5,929.5C 1395.29,920.46 1384.62,911.96 1373.5,904C 1344.5,871.667 1315.5,839.333 1286.5,807C 1286.83,806.833 1287.17,806.667 1287.5,806.5C 1316.35,832.519 1345.35,858.352 1374.5,884C 1386.31,897.298 1397.64,910.964 1408.5,925C 1414.32,924.54 1415.48,922.04 1412,917.5C 1404,906.833 1396,896.167 1388,885.5C 1368.99,847.811 1350.32,810.145 1332,772.5C 1355,807.5 1378,842.5 1401,877.5C 1406.9,891.626 1413.06,905.626 1419.5,919.5C 1421.32,918.253 1423.32,917.586 1425.5,917.5C 1420.3,903.085 1414.8,888.752 1409,874.5C 1400.27,833.172 1391.93,791.838 1384,750.5C 1397.2,789.771 1410.2,829.104 1423,868.5C 1426.24,884.024 1428.41,899.691 1429.5,915.5C 1430.5,915.5 1431.5,915.5 1432.5,915.5C 1434.17,915.5 1435.83,915.5 1437.5,915.5C 1437.78,913.585 1437.45,911.919 1436.5,910.5C 1434.11,894.428 1432.78,878.261 1432.5,862C 1434.69,822.507 1436.69,783.007 1438.5,743.5 Z"/></g>
<g><path style="opacity:1" fill="#fbfbfd" d="M 1457.5,736.5 C 1458.75,747.124 1464.41,750.624 1474.5,747C 1476.92,744.258 1479.42,741.758 1482,739.5C 1492.65,741.786 1503.15,744.62 1513.5,748C 1513.15,754.278 1515.49,759.278 1520.5,763C 1526.93,764.524 1532.1,762.691 1536,757.5C 1546.47,762.4 1556.47,768.067 1566,774.5C 1562.45,787.228 1567.29,793.062 1580.5,792C 1582.6,789.43 1584.93,789.096 1587.5,791C 1595.38,798.381 1602.72,806.214 1609.5,814.5C 1606.18,819.184 1605.68,824.184 1608,829.5C 1612.68,834.738 1618.18,835.904 1624.5,833C 1630.93,842.529 1636.6,852.529 1641.5,863C 1633.51,870.056 1633.51,877.056 1641.5,884C 1644.76,884.212 1647.92,884.712 1651,885.5C 1655.38,896.557 1657.88,907.891 1658.5,919.5C 1649.54,924.41 1648.2,930.91 1654.5,939C 1656.91,940.707 1659.58,941.54 1662.5,941.5C 1662.5,947.167 1662.5,952.833 1662.5,958.5C 1658.83,958.5 1655.17,958.5 1651.5,958.5C 1612.17,956.471 1572.84,954.471 1533.5,952.5C 1518.42,953.108 1503.42,954.441 1488.5,956.5C 1487.17,956.5 1485.83,956.5 1484.5,956.5C 1484.77,954.901 1484.43,953.568 1483.5,952.5C 1483.5,951.5 1483.5,950.5 1483.5,949.5C 1498.89,947.754 1514.22,945.587 1529.5,943C 1567.82,930.393 1606.15,917.893 1644.5,905.5C 1647.91,904.642 1651.24,903.475 1654.5,902C 1650.31,902.216 1646.31,903.049 1642.5,904.5C 1602.81,912.45 1563.14,920.616 1523.5,929C 1509.58,934.797 1495.58,940.297 1481.5,945.5C 1481.41,943.323 1480.75,941.323 1479.5,939.5C 1494.09,932.911 1508.76,926.411 1523.5,920C 1557.66,897.085 1592,874.418 1626.5,852C 1588.55,869.81 1550.88,888.476 1513.5,908C 1502.32,916.09 1491.32,924.424 1480.5,933C 1476.9,934.965 1474.56,933.798 1473.5,929.5C 1483.71,920.46 1494.38,911.96 1505.5,904C 1534.22,872.072 1563.05,840.239 1592,808.5C 1592.67,807.833 1592.67,807.167 1592,806.5C 1562.5,832.667 1533,858.833 1503.5,885C 1491.78,897.781 1480.78,911.114 1470.5,925C 1467.12,925.242 1465.28,923.742 1465,920.5C 1473.91,909.012 1482.58,897.345 1491,885.5C 1510.01,847.811 1528.68,810.145 1547,772.5C 1524,807.5 1501,842.5 1478,877.5C 1472.1,891.626 1465.94,905.626 1459.5,919.5C 1457.68,918.253 1455.68,917.586 1453.5,917.5C 1458.7,903.085 1464.2,888.752 1470,874.5C 1478.81,832.117 1487.48,789.784 1496,747.5C 1482.47,787.76 1469.14,828.093 1456,868.5C 1452.76,884.024 1450.59,899.691 1449.5,915.5C 1448.5,915.5 1447.5,915.5 1446.5,915.5C 1445.43,914.566 1444.1,914.232 1442.5,914.5C 1442.5,913.167 1442.5,911.833 1442.5,910.5C 1443.78,896.132 1445.45,881.798 1447.5,867.5C 1444.53,826.203 1442.2,784.87 1440.5,743.5C 1440.5,741.167 1440.5,738.833 1440.5,736.5C 1446.17,736.5 1451.83,736.5 1457.5,736.5 Z"/></g>
<g><path style="opacity:1" fill="#9f9dd2" d="M 1232.5,903.5 C 1231.83,903.5 1231.5,903.833 1231.5,904.5C 1229.14,903.824 1226.81,902.991 1224.5,902C 1227.36,901.807 1230.03,902.307 1232.5,903.5 Z"/></g>
<g><path style="opacity:1" fill="#8480c4" d="M 1644.5,905.5 C 1644.16,904.662 1643.49,904.328 1642.5,904.5C 1646.31,903.049 1650.31,902.216 1654.5,902C 1651.24,903.475 1647.91,904.642 1644.5,905.5 Z"/></g>
<g><path style="opacity:1" fill="#7f7cc2" d="M 1442.5,910.5 C 1442.5,911.833 1442.5,913.167 1442.5,914.5C 1444.1,914.232 1445.43,914.566 1446.5,915.5C 1444.83,915.5 1443.17,915.5 1441.5,915.5C 1441.22,913.585 1441.55,911.919 1442.5,910.5 Z"/></g>
<g><path style="opacity:1" fill="#7471bd" d="M 1436.5,910.5 C 1437.45,911.919 1437.78,913.585 1437.5,915.5C 1435.83,915.5 1434.17,915.5 1432.5,915.5C 1433.57,914.566 1434.9,914.232 1436.5,914.5C 1436.5,913.167 1436.5,911.833 1436.5,910.5 Z"/></g>
<g><path style="opacity:1" fill="#726fbc" d="M 1483.5,952.5 C 1484.43,953.568 1484.77,954.901 1484.5,956.5C 1485.83,956.5 1487.17,956.5 1488.5,956.5C 1487.08,957.451 1485.41,957.784 1483.5,957.5C 1483.5,955.833 1483.5,954.167 1483.5,952.5 Z"/></g>
<g><path style="opacity:1" fill="#c8c7e5" d="M 1662.5,941.5 C 1663.83,951.5 1663.83,961.5 1662.5,971.5C 1662.5,967.833 1662.5,964.167 1662.5,960.5C 1658.83,960.5 1655.17,960.5 1651.5,960.5C 1651.5,959.833 1651.5,959.167 1651.5,958.5C 1655.17,958.5 1658.83,958.5 1662.5,958.5C 1662.5,952.833 1662.5,947.167 1662.5,941.5 Z"/></g>
<g><path style="opacity:1" fill="#7572be" d="M 1488.5,962.5 C 1487.17,962.5 1485.83,962.5 1484.5,962.5C 1484.77,964.099 1484.43,965.432 1483.5,966.5C 1483.5,964.833 1483.5,963.167 1483.5,961.5C 1485.41,961.216 1487.08,961.549 1488.5,962.5 Z"/></g>
<g><path style="opacity:1" fill="#fbfbfd" d="M 1651.5,960.5 C 1655.17,960.5 1658.83,960.5 1662.5,960.5C 1662.5,964.167 1662.5,967.833 1662.5,971.5C 1662.5,973.5 1662.5,975.5 1662.5,977.5C 1651.88,978.747 1648.38,984.413 1652,994.5C 1654.74,996.915 1657.24,999.415 1659.5,1002C 1657.21,1012.71 1654.21,1023.21 1650.5,1033.5C 1639.64,1032.97 1634.81,1037.97 1636,1048.5C 1637.06,1051.56 1638.89,1054.06 1641.5,1056C 1636.6,1066.47 1630.93,1076.47 1624.5,1086C 1611.78,1082.38 1605.94,1087.22 1607,1100.5C 1609.57,1102.6 1609.9,1104.93 1608,1107.5C 1600.62,1115.38 1592.79,1122.72 1584.5,1129.5C 1579.82,1126.18 1574.82,1125.68 1569.5,1128C 1564.26,1132.68 1563.1,1138.18 1566,1144.5C 1556.47,1150.93 1546.47,1156.6 1536,1161.5C 1532.1,1156.31 1526.93,1154.48 1520.5,1156C 1515.34,1159.57 1513,1164.57 1513.5,1171C 1503.33,1174.4 1493,1177.23 1482.5,1179.5C 1481.5,1179.17 1480.5,1178.83 1479.5,1178.5C 1476.59,1171.91 1471.59,1169.41 1464.5,1171C 1460,1173.49 1457.67,1177.33 1457.5,1182.5C 1451.83,1182.5 1446.17,1182.5 1440.5,1182.5C 1440.5,1180.83 1440.5,1179.17 1440.5,1177.5C 1440.5,1174.83 1440.5,1172.17 1440.5,1169.5C 1442.4,1130.5 1444.4,1091.5 1446.5,1052.5C 1445.95,1037.75 1444.61,1023.09 1442.5,1008.5C 1442.5,1007.17 1442.5,1005.83 1442.5,1004.5C 1444.1,1004.77 1445.43,1004.43 1446.5,1003.5C 1447.5,1003.5 1448.5,1003.5 1449.5,1003.5C 1451.25,1018.89 1453.41,1034.22 1456,1049.5C 1468.61,1087.82 1481.11,1126.15 1493.5,1164.5C 1494.18,1166.86 1495.01,1169.19 1496,1171.5C 1496.32,1168.28 1495.82,1165.28 1494.5,1162.5C 1486.55,1122.8 1478.38,1083.14 1470,1043.5C 1464.2,1029.58 1458.7,1015.58 1453.5,1001.5C 1455.68,1001.41 1457.68,1000.75 1459.5,999.5C 1465.92,1013.35 1472.09,1027.35 1478,1041.5C 1501,1076.5 1524,1111.5 1547,1146.5C 1529.19,1108.55 1510.52,1070.88 1491,1033.5C 1482.58,1021.65 1473.91,1009.99 1465,998.5C 1465.28,995.258 1467.12,993.758 1470.5,994C 1480.78,1007.89 1491.78,1021.22 1503.5,1034C 1532.06,1059.4 1560.72,1084.56 1589.5,1109.5C 1564.9,1081.06 1540.06,1052.72 1515,1024.5C 1502.07,1012.21 1488.4,1000.88 1474,990.5C 1474.1,985.713 1476.27,984.213 1480.5,986C 1491.32,994.576 1502.32,1002.91 1513.5,1011C 1550.88,1030.52 1588.55,1049.19 1626.5,1067C 1592,1044.58 1557.66,1021.92 1523.5,999C 1508.76,992.589 1494.09,986.089 1479.5,979.5C 1480.75,977.677 1481.41,975.677 1481.5,973.5C 1495.58,978.703 1509.58,984.203 1523.5,990C 1563.14,998.384 1602.81,1006.55 1642.5,1014.5C 1645.28,1015.82 1648.28,1016.32 1651.5,1016C 1649.19,1015.01 1646.86,1014.18 1644.5,1013.5C 1606.15,1001.11 1567.82,988.607 1529.5,976C 1514.22,973.413 1498.89,971.246 1483.5,969.5C 1483.5,968.5 1483.5,967.5 1483.5,966.5C 1484.43,965.432 1484.77,964.099 1484.5,962.5C 1485.83,962.5 1487.17,962.5 1488.5,962.5C 1503.42,964.559 1518.42,965.892 1533.5,966.5C 1572.84,964.529 1612.17,962.529 1651.5,960.5 Z"/></g>
<g><path style="opacity:1" fill="#6f6cbb" d="M 1432.5,1003.5 C 1434.17,1003.5 1435.83,1003.5 1437.5,1003.5C 1437.78,1005.41 1437.45,1007.08 1436.5,1008.5C 1436.5,1007.17 1436.5,1005.83 1436.5,1004.5C 1434.9,1004.77 1433.57,1004.43 1432.5,1003.5 Z"/></g>
<g><path style="opacity:1" fill="#7b78c0" d="M 1446.5,1003.5 C 1445.43,1004.43 1444.1,1004.77 1442.5,1004.5C 1442.5,1005.83 1442.5,1007.17 1442.5,1008.5C 1441.55,1007.08 1441.22,1005.41 1441.5,1003.5C 1443.17,1003.5 1444.83,1003.5 1446.5,1003.5 Z"/></g>
<g><path style="opacity:1" fill="#6e6bba" d="M 1644.5,1013.5 C 1646.86,1014.18 1649.19,1015.01 1651.5,1016C 1648.28,1016.32 1645.28,1015.82 1642.5,1014.5C 1643.49,1014.67 1644.16,1014.34 1644.5,1013.5 Z"/></g>
<g><path style="opacity:1" fill="#7465b7" d="M 1589.5,1109.5 C 1591.34,1109.64 1591.67,1110.31 1590.5,1111.5C 1589.7,1111.04 1589.37,1110.38 1589.5,1109.5 Z"/></g>
<g><path style="opacity:1" fill="#8c81c6" d="M 1289.5,1109.5 C 1289.83,1109.5 1290.17,1109.5 1290.5,1109.5C 1289.52,1111.15 1288.19,1112.48 1286.5,1113.5C 1286.4,1111.85 1287.4,1110.52 1289.5,1109.5 Z"/></g>
<g><path style="opacity:1" fill="#7772bd" d="M 1494.5,1162.5 C 1495.82,1165.28 1496.32,1168.28 1496,1171.5C 1495.01,1169.19 1494.18,1166.86 1493.5,1164.5C 1494.34,1164.16 1494.67,1163.49 1494.5,1162.5 Z"/></g>
<g><path style="opacity:1" fill="#736ebc" d="M 1384.5,1162.5 C 1384.33,1163.49 1384.66,1164.16 1385.5,1164.5C 1384.82,1166.86 1383.99,1169.19 1383,1171.5C 1382.68,1168.28 1383.18,1165.28 1384.5,1162.5 Z"/></g>
<g><path style="opacity:1" fill="#7f7dc3" d="M 1438.5,1169.5 C 1439.17,1169.5 1439.83,1169.5 1440.5,1169.5C 1440.5,1172.17 1440.5,1174.83 1440.5,1177.5C 1439.83,1177.5 1439.17,1177.5 1438.5,1177.5C 1438.5,1174.83 1438.5,1172.17 1438.5,1169.5 Z"/></g>
<g><path style="opacity:1" fill="#cbc9e6" d="M 1438.5,1177.5 C 1439.17,1177.5 1439.83,1177.5 1440.5,1177.5C 1440.5,1179.17 1440.5,1180.83 1440.5,1182.5C 1446.17,1182.5 1451.83,1182.5 1457.5,1182.5C 1445.5,1183.83 1433.5,1183.83 1421.5,1182.5C 1427.17,1182.5 1432.83,1182.5 1438.5,1182.5C 1438.5,1180.83 1438.5,1179.17 1438.5,1177.5 Z"/></g>
<g><path style="opacity:1" fill="#128806" d="M -0.5,1279.5 C 959.5,1279.5 1919.5,1279.5 2879.5,1279.5C 2879.5,1492.83 2879.5,1706.17 2879.5,1919.5C 1919.5,1919.5 959.5,1919.5 -0.5,1919.5C -0.5,1706.17 -0.5,1492.83 -0.5,1279.5 Z"/></g>
</svg>
