<?xml version="1.0" encoding="UTF-8"?>
<!DOCTYPE svg PUBLIC "-//W3C//DTD SVG 1.1//EN" "http://www.w3.org/Graphics/SVG/1.1/DTD/svg11.dtd">
<svg xmlns="http://www.w3.org/2000/svg" version="1.1" width="2880px" height="1920px"  xmlns:xlink="http://www.w3.org/1999/xlink">
<g><path style="opacity:1" fill="#fecb00" d="M -0.5,-0.5 C 959.5,-0.5 1919.5,-0.5 2879.5,-0.5C 2879.5,212.833 2879.5,426.167 2879.5,639.5C 2434.17,639.5 1988.83,639.5 1543.5,639.5C 1509.14,533.413 1474.48,427.413 1439.5,321.5C 1404.63,427.446 1369.96,533.446 1335.5,639.5C 890.167,639.5 444.833,639.5 -0.5,639.5C -0.5,426.167 -0.5,212.833 -0.5,-0.5 Z"/></g>
<g><path style="opacity:1" fill="#fefefe" d="M 1543.5,639.5 C 1561.86,695.58 1580.19,751.58 1598.5,807.5C 1769.5,808.167 1940.5,808.833 2111.5,809.5C 1972.84,909.501 1834.51,1010 1696.5,1111C 1715.13,1167.06 1733.47,1223.23 1751.5,1279.5C 1785.76,1384.44 1819.92,1489.44 1854,1594.5C 1854.67,1595.83 1854.67,1597.17 1854,1598.5C 1715.74,1498.29 1577.58,1397.96 1439.5,1297.5C 1301.42,1397.96 1163.26,1498.29 1025,1598.5C 1024.33,1597.17 1024.33,1595.83 1025,1594.5C 1059.08,1489.44 1093.24,1384.44 1127.5,1279.5C 1145.53,1223.23 1163.87,1167.06 1182.5,1111C 1044.57,1009.89 906.235,909.395 767.5,809.5C 938.5,808.833 1109.5,808.167 1280.5,807.5C 1298.81,751.58 1317.14,695.58 1335.5,639.5C 1369.96,533.446 1404.63,427.446 1439.5,321.5C 1474.48,427.413 1509.14,533.413 1543.5,639.5 Z"/></g>
<g><path style="opacity:1" fill="#34b233" d="M -0.5,639.5 C 444.833,639.5 890.167,639.5 1335.5,639.5C 1317.14,695.58 1298.81,751.58 1280.5,807.5C 1109.17,807.167 937.832,807.5 766.5,808.5C 766.624,809.107 766.957,809.44 767.5,809.5C 906.235,909.395 1044.57,1009.89 1182.5,1111C 1163.87,1167.06 1145.53,1223.23 1127.5,1279.5C 751.5,1279.5 375.5,1279.5 -0.5,1279.5C -0.5,1066.17 -0.5,852.833 -0.5,639.5 Z"/></g>
<g><path style="opacity:1" fill="#34b233" d="M 1543.5,639.5 C 1988.83,639.5 2434.17,639.5 2879.5,639.5C 2879.5,852.833 2879.5,1066.17 2879.5,1279.5C 2503.5,1279.5 2127.5,1279.5 1751.5,1279.5C 1733.47,1223.23 1715.13,1167.06 1696.5,1111C 1834.51,1010 1972.84,909.501 2111.5,809.5C 2112.04,809.44 2112.38,809.107 2112.5,808.5C 1941.17,807.5 1769.83,807.167 1598.5,807.5C 1580.19,751.58 1561.86,695.58 1543.5,639.5 Z"/></g>
<g><path style="opacity:1" fill="#4fbc4e" d="M 1280.5,807.5 C 1109.5,808.167 938.5,808.833 767.5,809.5C 766.957,809.44 766.624,809.107 766.5,808.5C 937.832,807.5 1109.17,807.167 1280.5,807.5 Z"/></g>
<g><path style="opacity:1" fill="#4fbc4e" d="M 1598.5,807.5 C 1769.83,807.167 1941.17,807.5 2112.5,808.5C 2112.38,809.107 2112.04,809.44 2111.5,809.5C 1940.5,808.833 1769.5,808.167 1598.5,807.5 Z"/></g>
<g><path style="opacity:1" fill="#ea2839" d="M -0.5,1279.5 C 375.5,1279.5 751.5,1279.5 1127.5,1279.5C 1093.24,1384.44 1059.08,1489.44 1025,1594.5C 1024.33,1595.83 1024.33,1597.17 1025,1598.5C 1163.26,1498.29 1301.42,1397.96 1439.5,1297.5C 1577.58,1397.96 1715.74,1498.29 1854,1598.5C 1854.67,1597.17 1854.67,1595.83 1854,1594.5C 1819.92,1489.44 1785.76,1384.44 1751.5,1279.5C 2127.5,1279.5 2503.5,1279.5 2879.5,1279.5C 2879.5,1492.83 2879.5,1706.17 2879.5,1919.5C 1919.5,1919.5 959.5,1919.5 -0.5,1919.5C -0.5,1706.17 -0.5,1492.83 -0.5,1279.5 Z"/></g>
</svg>
