<?xml version="1.0" encoding="UTF-8"?>
<!DOCTYPE svg PUBLIC "-//W3C//DTD SVG 1.1//EN" "http://www.w3.org/Graphics/SVG/1.1/DTD/svg11.dtd">
<svg xmlns="http://www.w3.org/2000/svg" version="1.1" width="2560px" height="3121px" style="shape-rendering:geometricPrecision; text-rendering:geometricPrecision; image-rendering:optimizeQuality; fill-rule:evenodd; clip-rule:evenodd" xmlns:xlink="http://www.w3.org/1999/xlink">
<g><path style="opacity:0.999" fill="#003792" d="M -0.5,-0.5 C 0.166667,-0.5 0.833333,-0.5 1.5,-0.5C 853.822,533.997 1706.49,1068 2559.5,1601.5C 2559.5,1602.17 2559.5,1602.83 2559.5,1603.5C 2021.5,1603.33 1483.5,1603.5 945.5,1604C 1451.03,2109.37 1956.37,2614.87 2461.5,3120.5C 1640.83,3120.5 820.167,3120.5 -0.5,3120.5C -0.5,2080.17 -0.5,1039.83 -0.5,-0.5 Z"/></g>
<g><path style="opacity:1" fill="#8e205a" d="M 93.5,167.5 C 92.5001,1120.67 92.1667,2074 92.5,3027.5C 807.167,3027.5 1521.83,3027.5 2236.5,3027.5C 1522.24,3028.5 807.236,3028.83 91.5,3028.5C 91.1667,2074.5 91.5,1120.5 92.5,166.5C 93.1067,166.624 93.44,166.957 93.5,167.5 Z"/></g>
<g><path style="opacity:1" fill="#dc143c" d="M 93.5,167.5 C 807.335,614.25 1521,1061.25 2234.5,1508.5C 1729.83,1509.17 1225.17,1509.83 720.5,1510.5C 1225.83,2016.17 1731.17,2521.83 2236.5,3027.5C 1521.83,3027.5 807.167,3027.5 92.5,3027.5C 92.1667,2074 92.5001,1120.67 93.5,167.5 Z"/></g>
<g><path style="opacity:1" fill="#fefefe" d="M 201.5,1026.5 C 201.178,1020.64 201.511,1014.98 202.5,1009.5C 241.398,1104.89 304.898,1179.23 393,1232.5C 405.124,1223.86 416.957,1214.86 428.5,1205.5C 405.617,1187.12 382.284,1169.29 358.5,1152C 386.96,1143.78 415.627,1136.12 444.5,1129C 429.248,1103.83 414.248,1078.5 399.5,1053C 428.832,1056.59 458.166,1060.43 487.5,1064.5C 484.061,1036.1 480.061,1007.76 475.5,979.5C 475.833,978.5 476.167,977.5 476.5,976.5C 501.749,991.374 526.916,1006.37 552,1021.5C 559.191,992.736 566.691,964.069 574.5,935.5C 592.5,958.833 610.5,982.167 628.5,1005.5C 646.494,981.999 664.328,958.332 682,934.5C 689.82,963.445 697.487,992.445 705,1021.5C 730.084,1006.37 755.251,991.374 780.5,976.5C 780.833,977 781.167,977.5 781.5,978C 777.078,1006.78 773.078,1035.62 769.5,1064.5C 798.738,1059.68 828.072,1055.85 857.5,1053C 842.374,1078.08 827.374,1103.25 812.5,1128.5C 841.012,1136.63 869.678,1144.46 898.5,1152C 874.833,1169.67 851.167,1187.33 827.5,1205C 839.394,1214.57 851.561,1223.73 864,1232.5C 952.447,1179.05 1016.11,1104.38 1055,1008.5C 1052.97,1130.35 1008.47,1233.51 921.5,1318C 818.947,1410 698.947,1447 561.5,1429C 423.856,1403.82 320.689,1330.65 252,1209.5C 221.605,1152.25 204.772,1091.25 201.5,1026.5 Z"/></g>
<g><path style="opacity:1" fill="#e75e75" d="M 202.5,1009.5 C 201.511,1014.98 201.178,1020.64 201.5,1026.5C 200.347,1020.35 200.18,1014.01 201,1007.5C 201.717,1008.04 202.217,1008.71 202.5,1009.5 Z"/></g>
<g><path style="opacity:1" fill="#cc1742" d="M 2234.5,1508.5 C 2235.47,1508.99 2236.47,1509.49 2237.5,1510C 1731.83,1510.5 1226.17,1510.67 720.5,1510.5C 1225.17,1509.83 1729.83,1509.17 2234.5,1508.5 Z"/></g>
<g><path style="opacity:1" fill="#fefefe" d="M 1020.5,2040.5 C 1022.1,2040.23 1023.43,2040.57 1024.5,2041.5C 986.14,2091.87 948.14,2142.53 910.5,2193.5C 969.02,2218.92 1027.69,2244.09 1086.5,2269C 1029.7,2293.71 972.698,2318.05 915.5,2342C 913.445,2342.69 911.779,2343.85 910.5,2345.5C 948.955,2396.24 987.288,2447.08 1025.5,2498C 961.836,2490.75 898.169,2483.25 834.5,2475.5C 842.743,2539.11 850.243,2602.77 857,2666.5C 806,2627.83 755,2589.17 704,2550.5C 678.925,2609.65 653.591,2668.65 628,2727.5C 603.294,2668.52 578.128,2609.86 552.5,2551.5C 501.321,2589.59 450.321,2627.92 399.5,2666.5C 406.329,2603.2 413.995,2539.87 422.5,2476.5C 421.167,2476.17 419.833,2475.83 418.5,2475.5C 356.176,2483.43 293.842,2490.93 231.5,2498C 269.641,2447.02 307.975,2396.19 346.5,2345.5C 343.394,2343.44 340.061,2341.61 336.5,2340C 280.687,2316.59 225.021,2292.92 169.5,2269C 228.762,2244.37 287.762,2219.2 346.5,2193.5C 308.41,2141.91 269.743,2090.74 230.5,2040C 293.075,2047.82 355.742,2055.32 418.5,2062.5C 419.568,2063.43 420.901,2063.77 422.5,2063.5C 422.784,2061.59 422.451,2059.92 421.5,2058.5C 414.001,1996.51 406.834,1934.51 400,1872.5C 450.923,1910.71 501.756,1949.05 552.5,1987.5C 577.833,1928.83 603.167,1870.17 628.5,1811.5C 653.639,1870.25 678.972,1928.92 704.5,1987.5C 755.192,1948.97 806.025,1910.64 857,1872.5C 849.739,1936.16 842.239,1999.83 834.5,2063.5C 896.44,2055.4 958.44,2047.73 1020.5,2040.5 Z"/></g>
<g><path style="opacity:1" fill="#ef8fa1" d="M 1020.5,2040.5 C 1022.03,2039.21 1023.7,2039.21 1025.5,2040.5C 1025.38,2041.11 1025.04,2041.44 1024.5,2041.5C 1023.43,2040.57 1022.1,2040.23 1020.5,2040.5 Z"/></g>
<g><path style="opacity:1" fill="#ea7087" d="M 421.5,2058.5 C 422.451,2059.92 422.784,2061.59 422.5,2063.5C 420.901,2063.77 419.568,2063.43 418.5,2062.5C 419.5,2062.5 420.5,2062.5 421.5,2062.5C 421.5,2061.17 421.5,2059.83 421.5,2058.5 Z"/></g>
</svg>
