<?xml version="1.0" encoding="UTF-8"?>
<!DOCTYPE svg PUBLIC "-//W3C//DTD SVG 1.1//EN" "http://www.w3.org/Graphics/SVG/1.1/DTD/svg11.dtd">
<svg xmlns="http://www.w3.org/2000/svg" version="1.1" width="2880px" height="1920px" style="shape-rendering:geometricPrecision; text-rendering:geometricPrecision; image-rendering:optimizeQuality; fill-rule:evenodd; clip-rule:evenodd" xmlns:xlink="http://www.w3.org/1999/xlink">
<g><path style="opacity:1" fill="#da251c" d="M -0.5,-0.5 C 959.5,-0.5 1919.5,-0.5 2879.5,-0.5C 2879.5,639.5 2879.5,1279.5 2879.5,1919.5C 1919.5,1919.5 959.5,1919.5 -0.5,1919.5C -0.5,1279.5 -0.5,639.5 -0.5,-0.5 Z"/></g>
<g><path style="opacity:1" fill="#fefe00" d="M 1569.5,781.5 C 1708.17,782.167 1846.83,782.833 1985.5,783.5C 1876.37,862.902 1767.04,942.069 1657.5,1021C 1654.33,1023.01 1651.66,1025.51 1649.5,1028.5C 1692.27,1159.64 1734.93,1290.8 1777.5,1422C 1777.17,1422.5 1776.83,1423 1776.5,1423.5C 1664.17,1342.17 1551.83,1260.83 1439.5,1179.5C 1326.83,1261.17 1214.17,1342.83 1101.5,1424.5C 1143.32,1293.31 1185.82,1161.98 1229,1030.5C 1229.67,1029.17 1229.67,1027.83 1229,1026.5C 1117.23,945.368 1005.39,864.368 893.5,783.5C 1032.17,782.833 1170.83,782.167 1309.5,781.5C 1352.8,649.255 1396.14,516.921 1439.5,384.5C 1482.86,516.921 1526.2,649.255 1569.5,781.5 Z"/></g>
<g><path style="opacity:1" fill="#efa70c" d="M 1309.5,781.5 C 1170.83,782.167 1032.17,782.833 893.5,783.5C 892.711,783.217 892.044,782.717 891.5,782C 1030.83,781.5 1170.17,781.333 1309.5,781.5 Z"/></g>
<g><path style="opacity:1" fill="#efa70c" d="M 1569.5,781.5 C 1708.83,781.333 1848.17,781.5 1987.5,782C 1986.96,782.717 1986.29,783.217 1985.5,783.5C 1846.83,782.833 1708.17,782.167 1569.5,781.5 Z"/></g>
</svg>
