<?xml version="1.0" encoding="UTF-8"?>
<!DOCTYPE svg PUBLIC "-//W3C//DTD SVG 1.1//EN" "http://www.w3.org/Graphics/SVG/1.1/DTD/svg11.dtd">
<svg xmlns="http://www.w3.org/2000/svg" version="1.1" width="434px" height="172px" style="shape-rendering:geometricPrecision; text-rendering:geometricPrecision; image-rendering:optimizeQuality; fill-rule:evenodd; clip-rule:evenodd" xmlns:xlink="http://www.w3.org/1999/xlink">
<g><path style="opacity:0.725" fill="#fefffe" d="M 3.5,2.5 C 145.167,2.5 286.833,2.5 428.5,2.5C 428.5,57.5 428.5,112.5 428.5,167.5C 286.833,167.5 145.167,167.5 3.5,167.5C 3.5,112.5 3.5,57.5 3.5,2.5 Z M 6.5,5.5 C 145.833,5.5 285.167,5.5 424.5,5.5C 424.169,58.0717 424.503,110.572 425.5,163C 285.834,163.5 146.167,163.667 6.5,163.5C 6.5,110.833 6.5,58.1667 6.5,5.5 Z M 198.5,28.5 C 209.936,26.5312 216.936,31.0312 219.5,42C 219.171,47.9876 216.171,51.9876 210.5,54C 206.514,54.4988 202.514,54.6655 198.5,54.5C 198.5,45.8333 198.5,37.1667 198.5,28.5 Z M 382.5,28.5 C 387.58,28.2497 392.58,28.7497 397.5,30C 401.08,32.9263 401.413,36.2596 398.5,40C 393.264,41.339 387.93,41.839 382.5,41.5C 382.5,37.1667 382.5,32.8333 382.5,28.5 Z M 107.5,41.5 C 108.622,43.2884 108.789,45.2884 108,47.5C 105.327,45.4585 105.16,43.4585 107.5,41.5 Z M 84.5,45.5 C 89.9007,44.9664 94.9007,46.133 99.5,49C 92.1667,49.6667 84.8333,49.6667 77.5,49C 79.9252,47.7874 82.2585,46.6207 84.5,45.5 Z M 67.5,47.5 C 67.5,48.8333 67.5,50.1667 67.5,51.5C 64.8333,50.1667 64.8333,48.8333 67.5,47.5 Z M 72.5,50.5 C 77.7559,51.7841 83.2559,52.4508 89,52.5C 95.5392,52.2458 102.039,52.0791 108.5,52C 102.5,54 96.5,56 90.5,58C 89.6634,59.0113 89.33,60.1779 89.5,61.5C 98.6911,65.0089 107.858,68.6756 117,72.5C 119.515,71.8853 121.848,70.8853 124,69.5C 132.248,74.0402 140.415,78.7069 148.5,83.5C 150.218,94.2417 148.218,104.242 142.5,113.5C 141.526,111.257 141.192,108.924 141.5,106.5C 138.5,106.5 135.5,106.5 132.5,106.5C 132.5,109.167 132.5,111.833 132.5,114.5C 130.5,114.5 128.5,114.5 126.5,114.5C 126.807,108.907 126.473,103.407 125.5,98C 122.24,97.2165 119.073,97.3832 116,98.5C 115.828,102.871 115.328,107.204 114.5,111.5C 113.503,104.866 113.17,98.1998 113.5,91.5C 111.801,91.6602 110.134,91.4935 108.5,91C 109.833,90 109.833,89 108.5,88C 106.167,87.3333 103.833,87.3333 101.5,88C 100.536,92.0659 100.203,96.2325 100.5,100.5C 96.9929,99.9935 93.8263,100.66 91,102.5C 90.5012,106.486 90.3345,110.486 90.5,114.5C 88.5,114.5 86.5,114.5 84.5,114.5C 84.6664,105.827 84.4998,97.1603 84,88.5C 82.9805,87.3128 81.8139,86.3128 80.5,85.5C 79.5713,84.3112 79.238,82.9778 79.5,81.5C 76.3484,80.9586 73.8484,81.9586 72,84.5C 71.5002,93.4938 71.3336,102.494 71.5,111.5C 70.5,111.5 69.5,111.5 68.5,111.5C 68.5,109.167 68.5,106.833 68.5,104.5C 66.5,104.5 64.5,104.5 62.5,104.5C 62.6655,100.486 62.4988,96.4862 62,92.5C 57.9341,91.5363 53.7675,91.203 49.5,91.5C 49.5,98.5 49.5,105.5 49.5,112.5C 48.1667,112.5 46.8333,112.5 45.5,112.5C 45.6621,110.473 45.4955,108.473 45,106.5C 43.117,105.347 42.2837,103.681 42.5,101.5C 41.5,101.5 40.5,101.5 39.5,101.5C 36.9606,104.599 35.4606,108.266 35,112.5C 28.9096,101.633 26.5763,89.9668 28,77.5C 32.8833,73.8079 38.3833,71.9746 44.5,72C 47.8333,70 51.1667,68 54.5,66C 59.738,66.5161 64.9047,67.6827 70,69.5C 75.5611,66.9695 81.0611,64.3028 86.5,61.5C 87.8333,60.5 87.8333,59.5 86.5,58.5C 82.8878,57.3605 79.5544,55.6939 76.5,53.5C 75.914,53.7093 75.414,54.0426 75,54.5C 73.0517,53.8906 71.2184,53.224 69.5,52.5C 71.1788,52.7148 72.1788,52.0481 72.5,50.5 Z M 198.5,72.5 C 203.58,72.2497 208.58,72.7497 213.5,74C 218.833,78.3333 218.833,82.6667 213.5,87C 208.599,88.3254 203.599,88.8254 198.5,88.5C 198.5,83.1667 198.5,77.8333 198.5,72.5 Z M 281.5,72.5 C 286.179,72.3342 290.845,72.5008 295.5,73C 300.115,74.077 301.615,76.9103 300,81.5C 299.097,82.7014 297.931,83.5348 296.5,84C 291.511,84.4993 286.511,84.6659 281.5,84.5C 281.5,80.5 281.5,76.5 281.5,72.5 Z M 281.5,89.5 C 288.391,88.9013 295.058,89.7346 301.5,92C 303.444,96.0348 302.444,99.0348 298.5,101C 292.843,101.499 287.176,101.666 281.5,101.5C 281.5,97.5 281.5,93.5 281.5,89.5 Z M 295.5,119.5 C 306.088,118.256 310.922,122.922 310,133.5C 307.706,139.934 303.206,142.434 296.5,141C 290.092,137.677 287.925,132.511 290,125.5C 291.36,122.977 293.193,120.977 295.5,119.5 Z M 331.5,119.5 C 344.084,118.65 348.584,124.317 345,136.5C 337.854,143.622 331.52,142.955 326,134.5C 324.513,128.163 326.346,123.163 331.5,119.5 Z M 45.5,127.5 C 74.9138,127.65 104.247,127.483 133.5,127C 132.833,127.667 132.167,128.333 131.5,129C 103.167,129.667 74.8333,129.667 46.5,129C 45.944,128.617 45.6107,128.117 45.5,127.5 Z M 50.5,133.5 C 75.6633,132.337 100.997,132.17 126.5,133C 114.151,134.159 101.651,134.659 89,134.5C 76.1233,134.482 63.2899,134.148 50.5,133.5 Z M 60.5,139.5 C 79.3289,138.338 98.3289,138.171 117.5,139C 98.5497,147.465 79.5497,147.632 60.5,139.5 Z"/></g>
<g><path style="opacity:0.867" fill="#fefffe" d="M 78.5,19.5 C 120.736,17.5154 145.902,37.182 154,78.5C 154.69,118.281 135.523,142.114 96.5,150C 58.1605,151.257 33.9938,133.424 24,96.5C 20.5368,55.4012 38.7035,29.7345 78.5,19.5 Z M 107.5,41.5 C 105.16,43.4585 105.327,45.4585 108,47.5C 108.789,45.2884 108.622,43.2884 107.5,41.5 Z M 84.5,45.5 C 82.2585,46.6207 79.9252,47.7874 77.5,49C 84.8333,49.6667 92.1667,49.6667 99.5,49C 94.9007,46.133 89.9007,44.9664 84.5,45.5 Z M 67.5,47.5 C 67.5,48.8333 67.5,50.1667 67.5,51.5C 64.8333,50.1667 64.8333,48.8333 67.5,47.5 Z M 72.5,50.5 C 77.7559,51.7841 83.2559,52.4508 89,52.5C 95.5392,52.2458 102.039,52.0791 108.5,52C 102.5,54 96.5,56 90.5,58C 89.6634,59.0113 89.33,60.1779 89.5,61.5C 98.6911,65.0089 107.858,68.6756 117,72.5C 119.515,71.8853 121.848,70.8853 124,69.5C 132.248,74.0402 140.415,78.7069 148.5,83.5C 150.218,94.2417 148.218,104.242 142.5,113.5C 141.526,111.257 141.192,108.924 141.5,106.5C 138.5,106.5 135.5,106.5 132.5,106.5C 132.5,109.167 132.5,111.833 132.5,114.5C 130.5,114.5 128.5,114.5 126.5,114.5C 126.807,108.907 126.473,103.407 125.5,98C 122.24,97.2165 119.073,97.3832 116,98.5C 115.828,102.871 115.328,107.204 114.5,111.5C 113.503,104.866 113.17,98.1998 113.5,91.5C 111.801,91.6602 110.134,91.4935 108.5,91C 109.833,90 109.833,89 108.5,88C 106.167,87.3333 103.833,87.3333 101.5,88C 100.536,92.0659 100.203,96.2325 100.5,100.5C 96.9929,99.9935 93.8263,100.66 91,102.5C 90.5012,106.486 90.3345,110.486 90.5,114.5C 88.5,114.5 86.5,114.5 84.5,114.5C 84.6664,105.827 84.4998,97.1603 84,88.5C 82.9805,87.3128 81.8139,86.3128 80.5,85.5C 79.5713,84.3112 79.238,82.9778 79.5,81.5C 76.3484,80.9586 73.8484,81.9586 72,84.5C 71.5002,93.4938 71.3336,102.494 71.5,111.5C 70.5,111.5 69.5,111.5 68.5,111.5C 68.5,109.167 68.5,106.833 68.5,104.5C 66.5,104.5 64.5,104.5 62.5,104.5C 62.6655,100.486 62.4988,96.4862 62,92.5C 57.9341,91.5363 53.7675,91.203 49.5,91.5C 49.5,98.5 49.5,105.5 49.5,112.5C 48.1667,112.5 46.8333,112.5 45.5,112.5C 45.6621,110.473 45.4955,108.473 45,106.5C 43.117,105.347 42.2837,103.681 42.5,101.5C 41.5,101.5 40.5,101.5 39.5,101.5C 36.9606,104.599 35.4606,108.266 35,112.5C 28.9096,101.633 26.5763,89.9668 28,77.5C 32.8833,73.8079 38.3833,71.9746 44.5,72C 47.8333,70 51.1667,68 54.5,66C 59.738,66.5161 64.9047,67.6827 70,69.5C 75.5611,66.9695 81.0611,64.3028 86.5,61.5C 87.8333,60.5 87.8333,59.5 86.5,58.5C 82.8878,57.3605 79.5544,55.6939 76.5,53.5C 75.914,53.7093 75.414,54.0426 75,54.5C 73.0517,53.8906 71.2184,53.224 69.5,52.5C 71.1788,52.7148 72.1788,52.0481 72.5,50.5 Z M 45.5,127.5 C 45.6107,128.117 45.944,128.617 46.5,129C 74.8333,129.667 103.167,129.667 131.5,129C 132.167,128.333 132.833,127.667 133.5,127C 104.247,127.483 74.9138,127.65 45.5,127.5 Z M 50.5,133.5 C 63.2899,134.148 76.1233,134.482 89,134.5C 101.651,134.659 114.151,134.159 126.5,133C 100.997,132.17 75.6633,132.337 50.5,133.5 Z M 60.5,139.5 C 79.5497,147.632 98.5497,147.465 117.5,139C 98.3289,138.171 79.3289,138.338 60.5,139.5 Z"/></g>
<g><path style="opacity:0.41" fill="#fefffe" d="M 170.5,23.5 C 171.5,23.5 172.5,23.5 173.5,23.5C 173.5,64.1667 173.5,104.833 173.5,145.5C 172.5,145.5 171.5,145.5 170.5,145.5C 170.5,104.833 170.5,64.1667 170.5,23.5 Z"/></g>
<g><path style="opacity:0.713" fill="#fefffe" d="M 193.5,23.5 C 201.499,22.7821 209.166,23.9488 216.5,27C 224.105,32.8245 226.272,40.3245 223,49.5C 220.382,54.1163 216.549,57.283 211.5,59C 205.175,59.4995 198.842,59.6662 192.5,59.5C 192.188,47.4197 192.521,35.4197 193.5,23.5 Z M 198.5,28.5 C 198.5,37.1667 198.5,45.8333 198.5,54.5C 202.514,54.6655 206.514,54.4988 210.5,54C 216.171,51.9876 219.171,47.9876 219.5,42C 216.936,31.0312 209.936,26.5312 198.5,28.5 Z"/></g>
<g><path style="opacity:0.738" fill="#fefffe" d="M 232.5,23.5 C 241.167,23.5 249.833,23.5 258.5,23.5C 258.5,25.1667 258.5,26.8333 258.5,28.5C 251.5,28.5 244.5,28.5 237.5,28.5C 237.5,32.1667 237.5,35.8333 237.5,39.5C 243.833,39.5 250.167,39.5 256.5,39.5C 256.5,41.1667 256.5,42.8333 256.5,44.5C 250.167,44.5 243.833,44.5 237.5,44.5C 237.5,47.8333 237.5,51.1667 237.5,54.5C 244.5,54.5 251.5,54.5 258.5,54.5C 258.5,56.1667 258.5,57.8333 258.5,59.5C 249.833,59.5 241.167,59.5 232.5,59.5C 232.5,47.5 232.5,35.5 232.5,23.5 Z"/></g>
<g><path style="opacity:0.757" fill="#fefffe" d="M 266.5,23.5 C 269.325,23.0807 271.491,24.0807 273,26.5C 278.618,34.4533 284.618,42.12 291,49.5C 291.5,40.8397 291.666,32.1731 291.5,23.5C 293.167,23.5 294.833,23.5 296.5,23.5C 296.5,35.5 296.5,47.5 296.5,59.5C 294.712,59.7852 293.045,59.4519 291.5,58.5C 284.809,50.3099 278.309,41.9765 272,33.5C 271.5,42.1603 271.334,50.8269 271.5,59.5C 269.833,59.5 268.167,59.5 266.5,59.5C 266.5,47.5 266.5,35.5 266.5,23.5 Z"/></g>
<g><path style="opacity:0.725" fill="#fefffe" d="M 302.5,23.5 C 304.604,23.2011 306.604,23.5344 308.5,24.5C 312.431,33.793 316.264,43.1264 320,52.5C 323.667,43.5 327.333,34.5 331,25.5C 332.884,23.4237 335.051,23.0903 337.5,24.5C 332.354,35.9568 327.354,47.4568 322.5,59C 320.559,59.7429 318.726,59.5762 317,58.5C 312.154,46.812 307.321,35.1453 302.5,23.5 Z"/></g>
<g><path style="opacity:0.742" fill="#fefffe" d="M 343.5,23.5 C 352.167,23.5 360.833,23.5 369.5,23.5C 369.5,25.1667 369.5,26.8333 369.5,28.5C 362.5,28.5 355.5,28.5 348.5,28.5C 348.5,32.1667 348.5,35.8333 348.5,39.5C 354.833,39.5 361.167,39.5 367.5,39.5C 367.5,41.1667 367.5,42.8333 367.5,44.5C 361.167,44.5 354.833,44.5 348.5,44.5C 348.5,47.8333 348.5,51.1667 348.5,54.5C 355.5,54.5 362.5,54.5 369.5,54.5C 369.5,56.1667 369.5,57.8333 369.5,59.5C 360.833,59.5 352.167,59.5 343.5,59.5C 343.5,47.5 343.5,35.5 343.5,23.5 Z"/></g>
<g><path style="opacity:0.76" fill="#fefffe" d="M 377.5,23.5 C 384.574,23.161 391.574,23.661 398.5,25C 405.053,27.7299 407.22,32.5632 405,39.5C 403.235,42.473 400.735,44.6396 397.5,46C 400.833,50.3333 404.167,54.6667 407.5,59C 405.098,59.8141 402.765,59.6474 400.5,58.5C 397.691,54.5233 394.691,50.69 391.5,47C 388.518,46.502 385.518,46.3354 382.5,46.5C 382.5,50.8333 382.5,55.1667 382.5,59.5C 380.833,59.5 379.167,59.5 377.5,59.5C 377.5,47.5 377.5,35.5 377.5,23.5 Z M 382.5,28.5 C 382.5,32.8333 382.5,37.1667 382.5,41.5C 387.93,41.839 393.264,41.339 398.5,40C 401.413,36.2596 401.08,32.9263 397.5,30C 392.58,28.7497 387.58,28.2497 382.5,28.5 Z"/></g>
<g><path style="opacity:0.452" fill="#fefffe" d="M 67.5,47.5 C 68.5,47.5 69.5,47.5 70.5,47.5C 70.5,48.1667 70.8333,48.5 71.5,48.5C 71.3284,49.4916 71.6618,50.1583 72.5,50.5C 72.1788,52.0481 71.1788,52.7148 69.5,52.5C 69.1583,51.6618 68.4916,51.3284 67.5,51.5C 67.5,50.1667 67.5,48.8333 67.5,47.5 Z"/></g>
<g><path style="opacity:0.749" fill="#fefffe" d="M 87.5,62.5 C 96.5459,66.2371 105.546,70.0705 114.5,74C 106.812,74.8315 99.145,74.6648 91.5,73.5C 89.8746,69.9205 88.5413,66.2538 87.5,62.5 Z"/></g>
<g><path style="opacity:0.753" fill="#fefffe" d="M 388.5,66.5 C 395.942,65.9398 402.275,68.2731 407.5,73.5C 406.5,75.1667 405.167,76.5 403.5,77.5C 395.304,70.5799 387.471,70.9132 380,78.5C 375.688,87.555 377.522,95.055 385.5,101C 392.378,103.542 398.545,102.375 404,97.5C 406.748,98.1936 407.582,99.6936 406.5,102C 397.994,108.5 388.994,109.166 379.5,104C 368.671,92.3167 369.005,80.9833 380.5,70C 383.158,68.522 385.825,67.3554 388.5,66.5 Z"/></g>
<g><path style="opacity:0.732" fill="#fefffe" d="M 55.5,67.5 C 60.1604,68.604 64.4937,70.2707 68.5,72.5C 64.1667,75.8333 59.8333,79.1667 55.5,82.5C 54.9041,77.5505 54.9041,72.5505 55.5,67.5 Z"/></g>
<g><path style="opacity:0.813" fill="#fefffe" d="M 193.5,67.5 C 200.921,67.1095 208.254,67.6095 215.5,69C 222.986,73.4015 224.819,79.5682 221,87.5C 218.9,90.4668 216.066,92.3002 212.5,93C 207.845,93.4992 203.179,93.6658 198.5,93.5C 198.5,98.1667 198.5,102.833 198.5,107.5C 196.833,107.5 195.167,107.5 193.5,107.5C 193.5,94.1667 193.5,80.8333 193.5,67.5 Z M 198.5,72.5 C 198.5,77.8333 198.5,83.1667 198.5,88.5C 203.599,88.8254 208.599,88.3254 213.5,87C 218.833,82.6667 218.833,78.3333 213.5,74C 208.58,72.7497 203.58,72.2497 198.5,72.5 Z"/></g>
<g><path style="opacity:0.776" fill="#fefffe" d="M 231.5,67.5 C 233.5,67.5 235.5,67.5 237.5,67.5C 237.334,76.5062 237.5,85.5062 238,94.5C 241.775,102.535 247.608,104.368 255.5,100C 256.701,99.0975 257.535,97.9308 258,96.5C 259.359,86.8906 259.859,77.2239 259.5,67.5C 261.167,67.5 262.833,67.5 264.5,67.5C 264.929,78.2449 264.429,88.9115 263,99.5C 259.649,105.169 254.649,107.836 248,107.5C 241.16,107.58 236.16,104.58 233,98.5C 231.601,88.2317 231.101,77.8983 231.5,67.5 Z"/></g>
<g><path style="opacity:0.781" fill="#fefffe" d="M 276.5,67.5 C 283.508,67.3337 290.508,67.5004 297.5,68C 307.398,71.8664 309.065,78.0331 302.5,86.5C 310.062,92.2673 310.395,98.4339 303.5,105C 294.663,107.26 285.663,108.093 276.5,107.5C 276.5,94.1667 276.5,80.8333 276.5,67.5 Z M 281.5,72.5 C 281.5,76.5 281.5,80.5 281.5,84.5C 286.511,84.6659 291.511,84.4993 296.5,84C 297.931,83.5348 299.097,82.7014 300,81.5C 301.615,76.9103 300.115,74.077 295.5,73C 290.845,72.5008 286.179,72.3342 281.5,72.5 Z M 281.5,89.5 C 281.5,93.5 281.5,97.5 281.5,101.5C 287.176,101.666 292.843,101.499 298.5,101C 302.444,99.0348 303.444,96.0348 301.5,92C 295.058,89.7346 288.391,88.9013 281.5,89.5 Z"/></g>
<g><path style="opacity:0.7" fill="#fefffe" d="M 318.5,67.5 C 320.5,67.5 322.5,67.5 324.5,67.5C 324.5,78.8333 324.5,90.1667 324.5,101.5C 331.5,101.5 338.5,101.5 345.5,101.5C 345.5,103.5 345.5,105.5 345.5,107.5C 336.5,107.5 327.5,107.5 318.5,107.5C 318.5,94.1667 318.5,80.8333 318.5,67.5 Z"/></g>
<g><path style="opacity:0.834" fill="#fefffe" d="M 355.5,67.5 C 357.167,67.5 358.833,67.5 360.5,67.5C 360.5,80.8333 360.5,94.1667 360.5,107.5C 358.833,107.5 357.167,107.5 355.5,107.5C 355.5,94.1667 355.5,80.8333 355.5,67.5 Z"/></g>
<g><path style="opacity:0.539" fill="#fefffe" d="M 124.5,72.5 C 129.272,74.7204 133.938,77.2204 138.5,80C 134.951,80.1594 131.451,79.6594 128,78.5C 126.065,76.9661 124.899,74.9661 124.5,72.5 Z"/></g>
<g><path style="opacity:0.526" fill="#fefffe" d="M 37.5,74.5 C 39.604,74.2011 41.604,74.5344 43.5,75.5C 40.5444,82.2366 38.5444,81.9033 37.5,74.5 Z"/></g>
<g><path style="opacity:0.699" fill="#fefffe" d="M 200.5,114.5 C 205.818,114.159 210.485,115.659 214.5,119C 212.537,121.876 210.204,122.209 207.5,120C 204.833,119.333 202.167,119.333 199.5,120C 196.833,122 196.833,124 199.5,126C 204.792,127.206 209.625,129.372 214,132.5C 216.277,138 214.777,142.167 209.5,145C 202.876,146.622 197.209,145.122 192.5,140.5C 192.919,139.328 193.585,138.328 194.5,137.5C 199.313,141.611 204.48,142.277 210,139.5C 210.825,137.299 210.325,135.466 208.5,134C 205.216,132.875 201.883,131.875 198.5,131C 193.776,128.565 192.276,124.731 194,119.5C 195.805,117.174 197.972,115.508 200.5,114.5 Z"/></g>
<g><path style="opacity:0.698" fill="#fefffe" d="M 232.5,114.5 C 238.478,113.879 243.478,115.713 247.5,120C 245.318,123.117 242.985,123.117 240.5,120C 229,118.167 224.167,123 226,134.5C 230.899,142.566 237.066,143.566 244.5,137.5C 246.96,138.16 247.626,139.494 246.5,141.5C 240.202,146.162 233.535,146.662 226.5,143C 218.865,134.977 218.532,126.644 225.5,118C 227.925,116.787 230.259,115.621 232.5,114.5 Z"/></g>
<g><path style="opacity:0.716" fill="#fefffe" d="M 296.5,114.5 C 306.393,113.563 312.56,117.896 315,127.5C 315.987,136.025 312.487,141.858 304.5,145C 287.219,145.717 281.386,137.884 287,121.5C 289.505,118.147 292.671,115.814 296.5,114.5 Z M 295.5,119.5 C 293.193,120.977 291.36,122.977 290,125.5C 287.925,132.511 290.092,137.677 296.5,141C 303.206,142.434 307.706,139.934 310,133.5C 310.922,122.922 306.088,118.256 295.5,119.5 Z"/></g>
<g><path style="opacity:0.714" fill="#fefffe" d="M 332.5,114.5 C 349.728,115.954 354.894,124.621 348,140.5C 341.459,146.126 334.292,146.96 326.5,143C 320.07,136.738 318.903,129.571 323,121.5C 325.529,118.115 328.696,115.782 332.5,114.5 Z M 331.5,119.5 C 326.346,123.163 324.513,128.163 326,134.5C 331.52,142.955 337.854,143.622 345,136.5C 348.584,124.317 344.084,118.65 331.5,119.5 Z"/></g>
<g><path style="opacity:0.707" fill="#fefffe" d="M 391.5,114.5 C 396.551,114.127 400.884,115.627 404.5,119C 403.114,122.005 401.114,122.338 398.5,120C 395.833,119.333 393.167,119.333 390.5,120C 387.833,122 387.833,124 390.5,126C 393.363,127.399 396.363,128.399 399.5,129C 404.924,131.017 406.758,134.85 405,140.5C 403.891,142.815 402.057,144.315 399.5,145C 393.015,146.447 387.348,144.947 382.5,140.5C 383.167,139.167 384.167,138.167 385.5,137.5C 390.573,142.165 395.74,142.498 401,138.5C 401.711,136.633 401.211,135.133 399.5,134C 394.006,133.174 389.172,131.007 385,127.5C 382.89,121.054 385.056,116.72 391.5,114.5 Z"/></g>
<g><path style="opacity:0.718" fill="#fefffe" d="M 253.5,115.5 C 254.833,115.5 256.167,115.5 257.5,115.5C 257.5,119.5 257.5,123.5 257.5,127.5C 262.844,127.666 268.177,127.499 273.5,127C 272.54,123.27 272.207,119.437 272.5,115.5C 274.167,115.5 275.833,115.5 277.5,115.5C 277.5,125.5 277.5,135.5 277.5,145.5C 275.856,145.714 274.356,145.38 273,144.5C 272.207,140.577 272.374,136.744 273.5,133C 268.177,132.501 262.844,132.334 257.5,132.5C 257.5,136.833 257.5,141.167 257.5,145.5C 256.167,145.5 254.833,145.5 253.5,145.5C 253.5,135.5 253.5,125.5 253.5,115.5 Z"/></g>
<g><path style="opacity:0.64" fill="#fefffe" d="M 357.5,115.5 C 359.167,115.5 360.833,115.5 362.5,115.5C 362.5,123.833 362.5,132.167 362.5,140.5C 367.833,140.5 373.167,140.5 378.5,140.5C 378.5,142.167 378.5,143.833 378.5,145.5C 371.5,145.5 364.5,145.5 357.5,145.5C 357.5,135.5 357.5,125.5 357.5,115.5 Z"/></g>
</svg>
