<?xml version="1.0" encoding="UTF-8"?>
<!DOCTYPE svg PUBLIC "-//W3C//DTD SVG 1.1//EN" "http://www.w3.org/Graphics/SVG/1.1/DTD/svg11.dtd">
<svg xmlns="http://www.w3.org/2000/svg" version="1.1" width="187px" height="67px" style="shape-rendering:geometricPrecision; text-rendering:geometricPrecision; image-rendering:optimizeQuality; fill-rule:evenodd; clip-rule:evenodd" xmlns:xlink="http://www.w3.org/1999/xlink">
<g><path style="opacity:0.9" fill="#0e74bb" d="M 27.5,-0.5 C 31.5,-0.5 35.5,-0.5 39.5,-0.5C 62.7176,7.59874 70.8842,23.5987 64,47.5C 58.4381,57.8559 49.9381,64.1893 38.5,66.5C 34.8333,66.5 31.1667,66.5 27.5,66.5C 11.1487,62.483 1.81535,52.1497 -0.5,35.5C -0.5,33.1667 -0.5,30.8333 -0.5,28.5C 2.75638,12.9111 12.0897,3.24442 27.5,-0.5 Z M 26.5,2.5 C 47.9824,0.837493 60.4824,10.5042 64,31.5C 60.41,28.9536 56.5766,26.7869 52.5,25C 46.3395,25.4424 40.6728,23.7757 35.5,20C 38.7846,19.2411 41.7846,17.9078 44.5,16C 44.8519,13.8066 44.3519,11.6399 43,9.5C 41.6202,11.5398 41.1202,13.5398 41.5,15.5C 38.8227,13.8322 36.156,12.1655 33.5,10.5C 30.2672,13.928 26.7672,14.5947 23,12.5C 20.9908,13.4821 20.4908,14.8154 21.5,16.5C 24.1608,17.4992 26.8275,18.4992 29.5,19.5C 30.8333,20.1667 30.8333,20.8333 29.5,21.5C 27.5,22.5 25.5,23.5 23.5,24.5C 20.6564,22.8971 17.6564,22.3971 14.5,23C 11.1181,24.7455 7.61808,26.2455 4,27.5C 6.00654,14.3222 13.5065,5.98885 26.5,2.5 Z M 34.5,23.5 C 37.4744,24.6508 40.4744,25.8175 43.5,27C 40.7728,27.8184 38.1062,27.6517 35.5,26.5C 34.8728,25.5832 34.5394,24.5832 34.5,23.5 Z M 17.5,29.5 C 17.1776,25.561 18.511,24.7277 21.5,27C 20.0161,27.6622 18.6828,28.4955 17.5,29.5 Z M 26.5,32.5 C 27.2216,32.9175 27.7216,33.5842 28,34.5C 28.1701,40.1958 28.6701,45.8624 29.5,51.5C 31.1303,50.102 32.9637,49.102 35,48.5C 35.4955,46.5273 35.6621,44.5273 35.5,42.5C 37.1439,42.7135 38.6439,42.3802 40,41.5C 40.1922,39.4233 40.6922,37.4233 41.5,35.5C 42.1667,40.1667 42.8333,44.8333 43.5,49.5C 44.5237,48.1468 45.857,47.4802 47.5,47.5C 47.1924,45.076 47.5258,42.7427 48.5,40.5C 49.1667,43.8333 49.8333,47.1667 50.5,50.5C 52.1789,48.8955 54.1789,48.2289 56.5,48.5C 56.5,47.1667 56.5,45.8333 56.5,44.5C 57.5,44.5 58.5,44.5 59.5,44.5C 60.1252,47.9705 59.1252,50.8038 56.5,53C 41.1667,53.6667 25.8333,53.6667 10.5,53C 8.78663,51.6218 7.4533,49.9552 6.5,48C 7.32949,46.1839 8.16282,44.3506 9,42.5C 9.49351,44.1341 9.66018,45.8008 9.5,47.5C 11.1667,47.5 12.8333,47.5 14.5,47.5C 14.5,44.1667 14.5,40.8333 14.5,37.5C 16.1667,37.5 17.8333,37.5 19.5,37.5C 19.2397,41.3479 19.9064,45.0145 21.5,48.5C 22.7362,47.7542 24.0695,47.4208 25.5,47.5C 25.2213,42.4053 25.5546,37.4053 26.5,32.5 Z"/></g>
<g><path style="opacity:0.772" fill="#1274bb" d="M 77.5,1.5 C 82.0462,1.26813 86.3795,2.10146 90.5,4C 94.699,9.28135 94.3657,14.2814 89.5,19C 85.6049,20.2662 81.6049,20.7662 77.5,20.5C 77.5,14.1667 77.5,7.83333 77.5,1.5 Z M 80.5,4.5 C 89.1096,4.57149 91.7762,8.40482 88.5,16C 85.9865,17.2525 83.3198,17.7525 80.5,17.5C 80.5,13.1667 80.5,8.83333 80.5,4.5 Z"/></g>
<g><path style="opacity:0.803" fill="#1074bb" d="M 97.5,1.5 C 101.833,1.5 106.167,1.5 110.5,1.5C 110.5,2.5 110.5,3.5 110.5,4.5C 107.167,4.5 103.833,4.5 100.5,4.5C 100.5,6.16667 100.5,7.83333 100.5,9.5C 103.5,9.5 106.5,9.5 109.5,9.5C 109.5,10.5 109.5,11.5 109.5,12.5C 106.5,12.5 103.5,12.5 100.5,12.5C 100.5,14.1667 100.5,15.8333 100.5,17.5C 103.833,17.5 107.167,17.5 110.5,17.5C 110.5,18.5 110.5,19.5 110.5,20.5C 106.167,20.5 101.833,20.5 97.5,20.5C 97.5,14.1667 97.5,7.83333 97.5,1.5 Z"/></g>
<g><path style="opacity:0.837" fill="#1c76bc" d="M 114.5,1.5 C 115.675,1.28099 116.675,1.61432 117.5,2.5C 120.476,6.64384 123.643,10.6438 127,14.5C 127.172,10.1289 127.672,5.79557 128.5,1.5C 129.086,1.70931 129.586,2.04265 130,2.5C 130.499,8.49076 130.666,14.4908 130.5,20.5C 129.448,20.6495 128.448,20.4828 127.5,20C 124.333,16.1667 121.167,12.3333 118,8.5C 117.501,12.4862 117.334,16.4862 117.5,20.5C 116.5,20.5 115.5,20.5 114.5,20.5C 114.5,14.1667 114.5,7.83333 114.5,1.5 Z"/></g>
<g><path style="opacity:0.831" fill="#2378bf" d="M 133.5,1.5 C 134.675,1.28099 135.675,1.61432 136.5,2.5C 138.236,6.87414 140.069,11.2075 142,15.5C 143.931,11.2075 145.764,6.87414 147.5,2.5C 148.325,1.61432 149.325,1.28099 150.5,1.5C 149.579,6.01381 148.079,10.3471 146,14.5C 145.152,16.8743 143.819,18.8743 142,20.5C 141.228,20.3552 140.561,20.0219 140,19.5C 137.325,13.6381 135.158,7.63806 133.5,1.5 Z"/></g>
<g><path style="opacity:0.814" fill="#1374ba" d="M 153.5,1.5 C 158.167,1.5 162.833,1.5 167.5,1.5C 167.5,2.5 167.5,3.5 167.5,4.5C 163.833,4.5 160.167,4.5 156.5,4.5C 156.5,6.16667 156.5,7.83333 156.5,9.5C 159.833,9.5 163.167,9.5 166.5,9.5C 166.5,10.5 166.5,11.5 166.5,12.5C 163.167,12.5 159.833,12.5 156.5,12.5C 156.5,14.1667 156.5,15.8333 156.5,17.5C 160.167,17.5 163.833,17.5 167.5,17.5C 167.5,18.5 167.5,19.5 167.5,20.5C 162.833,20.5 158.167,20.5 153.5,20.5C 153.5,14.1667 153.5,7.83333 153.5,1.5 Z"/></g>
<g><path style="opacity:0.871" fill="#1775bc" d="M 186.5,19.5 C 186.5,19.8333 186.5,20.1667 186.5,20.5C 185.127,20.6567 183.793,20.49 182.5,20C 180.752,15.9019 177.752,13.7352 173.5,13.5C 173.5,15.8333 173.5,18.1667 173.5,20.5C 172.5,20.5 171.5,20.5 170.5,20.5C 170.334,14.4908 170.501,8.49076 171,2.5C 175.99,0.95694 180.656,1.62361 185,4.5C 186.379,8.47548 185.213,11.3088 181.5,13C 183.03,15.352 184.697,17.5187 186.5,19.5 Z M 173.5,4.5 C 175.857,4.33669 178.19,4.50335 180.5,5C 182.527,6.39569 182.86,8.06236 181.5,10C 178.854,10.4974 176.187,10.6641 173.5,10.5C 173.5,8.5 173.5,6.5 173.5,4.5 Z"/></g>
<g><path style="opacity:0.832" fill="#1575bc" d="M 186.5,26.5 C 186.5,27.1667 186.5,27.8333 186.5,28.5C 185.85,28.8039 185.183,29.1373 184.5,29.5C 175.682,24.6647 171.515,27.3314 172,37.5C 173.167,38.6667 174.333,39.8333 175.5,41C 179.322,41.5849 182.989,41.0849 186.5,39.5C 186.5,40.1667 186.5,40.8333 186.5,41.5C 180.726,45.7576 175.226,45.4242 170,40.5C 165.866,29.2409 169.699,23.7409 181.5,24C 183.193,24.8466 184.86,25.6799 186.5,26.5 Z"/></g>
<g><path style="opacity:0.8" fill="#0973ba" d="M 77.5,24.5 C 81.5138,24.3345 85.5138,24.5012 89.5,25C 93.0324,28.3899 93.3658,32.0566 90.5,36C 87.3117,37.3158 83.9783,37.8158 80.5,37.5C 80.5,39.8333 80.5,42.1667 80.5,44.5C 79.5,44.5 78.5,44.5 77.5,44.5C 77.5,37.8333 77.5,31.1667 77.5,24.5 Z M 80.5,27.5 C 82.8568,27.3367 85.1902,27.5034 87.5,28C 90.1667,30 90.1667,32 87.5,34C 85.1902,34.4966 82.8568,34.6633 80.5,34.5C 80.5,32.1667 80.5,29.8333 80.5,27.5 Z"/></g>
<g><path style="opacity:0.891" fill="#0a75bc" d="M 96.5,24.5 C 97.8333,24.5 99.1667,24.5 100.5,24.5C 100.334,29.5111 100.501,34.5111 101,39.5C 104,42.1667 107,42.1667 110,39.5C 110.499,34.5111 110.666,29.5111 110.5,24.5C 111.833,24.5 113.167,24.5 114.5,24.5C 115.117,30.987 114.117,37.1536 111.5,43C 107.5,45 103.5,45 99.5,43C 98.8742,42.2496 98.3742,41.4162 98,40.5C 96.661,35.2636 96.161,29.9302 96.5,24.5 Z"/></g>
<g><path style="opacity:0.777" fill="#1875bb" d="M 119.5,24.5 C 123.846,24.3343 128.179,24.501 132.5,25C 136.019,27.6846 136.352,30.6846 133.5,34C 137.566,37.7448 137.233,41.0782 132.5,44C 128.179,44.499 123.846,44.6657 119.5,44.5C 119.5,37.8333 119.5,31.1667 119.5,24.5 Z M 122.5,27.5 C 125.187,27.3359 127.854,27.5026 130.5,28C 131.833,29.3333 131.833,30.6667 130.5,32C 127.854,32.4974 125.187,32.6641 122.5,32.5C 122.5,30.8333 122.5,29.1667 122.5,27.5 Z M 122.5,35.5 C 125.187,35.3359 127.854,35.5026 130.5,36C 133.167,37.6667 133.167,39.3333 130.5,41C 127.854,41.4974 125.187,41.6641 122.5,41.5C 122.5,39.5 122.5,37.5 122.5,35.5 Z"/></g>
<g><path style="opacity:0.837" fill="#4a85c4" d="M 140.5,24.5 C 141.833,24.5 143.167,24.5 144.5,24.5C 144.5,30.1667 144.5,35.8333 144.5,41.5C 148.167,41.5 151.833,41.5 155.5,41.5C 155.5,42.5 155.5,43.5 155.5,44.5C 150.57,44.8025 145.737,44.4692 141,43.5C 140.5,37.1754 140.334,30.8421 140.5,24.5 Z"/></g>
<g><path style="opacity:0.942" fill="#0572b9" d="M 159.5,24.5 C 160.5,24.5 161.5,24.5 162.5,24.5C 162.5,31.1667 162.5,37.8333 162.5,44.5C 161.5,44.5 160.5,44.5 159.5,44.5C 159.5,37.8333 159.5,31.1667 159.5,24.5 Z"/></g>
<g><path style="opacity:0.759" fill="#1777bd" d="M 79.5,48.5 C 82.8066,48.0632 85.8066,48.7298 88.5,50.5C 88.1924,51.3081 87.6924,51.9747 87,52.5C 84.6517,50.0674 82.485,50.0674 80.5,52.5C 82.5351,54.1947 84.8684,55.528 87.5,56.5C 89.7581,61.3223 88.2581,63.989 83,64.5C 80.3999,64.0823 78.2332,62.9156 76.5,61C 77.0253,60.3076 77.6919,59.8076 78.5,59.5C 80.5098,61.1713 82.8431,61.838 85.5,61.5C 85.67,60.1779 85.3366,59.0113 84.5,58C 77.8306,57.1592 76.1639,53.9925 79.5,48.5 Z"/></g>
<g><path style="opacity:0.768" fill="#0b75bc" d="M 95.5,48.5 C 99.3017,47.8803 102.635,48.7137 105.5,51C 104.975,51.6924 104.308,52.1924 103.5,52.5C 98.6644,49.419 95.331,50.5856 93.5,56C 94.13,57.892 95.13,59.5587 96.5,61C 99.4193,61.54 102.086,61.2067 104.5,60C 105.458,61.1475 105.125,62.1475 103.5,63C 94.3118,65.4809 90.4785,61.9809 92,52.5C 92.6897,50.6498 93.8564,49.3164 95.5,48.5 Z"/></g>
<g><path style="opacity:0.661" fill="#0673ba" d="M 107.5,48.5 C 108.5,48.5 109.5,48.5 110.5,48.5C 110.5,50.5 110.5,52.5 110.5,54.5C 112.833,54.5 115.167,54.5 117.5,54.5C 117.5,52.5 117.5,50.5 117.5,48.5C 118.5,48.5 119.5,48.5 120.5,48.5C 120.5,53.5 120.5,58.5 120.5,63.5C 119.5,63.5 118.5,63.5 117.5,63.5C 117.5,61.5 117.5,59.5 117.5,57.5C 115.167,57.5 112.833,57.5 110.5,57.5C 110.5,59.5 110.5,61.5 110.5,63.5C 109.5,63.5 108.5,63.5 107.5,63.5C 107.5,58.5 107.5,53.5 107.5,48.5 Z"/></g>
<g><path style="opacity:0.786" fill="#1375bd" d="M 127.5,48.5 C 131.257,48.0708 134.757,48.7375 138,50.5C 141.452,57.9257 139.285,62.5924 131.5,64.5C 122.677,61.0517 121.343,55.7183 127.5,48.5 Z M 129.5,50.5 C 134.813,50.6438 136.979,53.3105 136,58.5C 133.048,62.4815 130.048,62.4815 127,58.5C 126.018,55.2253 126.851,52.5586 129.5,50.5 Z"/></g>
<g><path style="opacity:0.812" fill="#1074bb" d="M 146.5,48.5 C 155.831,47.3336 159.331,51.3336 157,60.5C 152.333,65.8333 147.667,65.8333 143,60.5C 141.593,55.556 142.759,51.556 146.5,48.5 Z M 148.5,50.5 C 155.603,51.8673 156.937,55.3673 152.5,61C 148.061,62.2347 145.394,60.568 144.5,56C 145.036,53.4921 146.369,51.6587 148.5,50.5 Z"/></g>
<g><path style="opacity:0.841" fill="#2477bc" d="M 161.5,48.5 C 163.43,52.3727 164.097,56.706 163.5,61.5C 166.572,61.1826 169.572,61.5159 172.5,62.5C 168.893,63.4892 165.226,63.8226 161.5,63.5C 161.5,58.5 161.5,53.5 161.5,48.5 Z"/></g>
<g><path style="opacity:0.768" fill="#1777be" d="M 176.5,48.5 C 179.807,48.0632 182.807,48.7298 185.5,50.5C 185.192,51.3081 184.692,51.9747 184,52.5C 181.652,50.0674 179.485,50.0674 177.5,52.5C 179.988,54.0693 182.488,55.736 185,57.5C 186.485,62.0212 184.819,64.3546 180,64.5C 177.4,64.0823 175.233,62.9156 173.5,61C 174.025,60.3076 174.692,59.8076 175.5,59.5C 177.51,61.1713 179.843,61.838 182.5,61.5C 182.67,60.1779 182.337,59.0113 181.5,58C 174.446,57.4536 172.78,54.2869 176.5,48.5 Z"/></g>
</svg>
