<?xml version="1.0" encoding="UTF-8"?>
<!DOCTYPE svg PUBLIC "-//W3C//DTD SVG 1.1//EN" "http://www.w3.org/Graphics/SVG/1.1/DTD/svg11.dtd">
<svg xmlns="http://www.w3.org/2000/svg" version="1.1" width="2880px" height="1920px" style="shape-rendering:geometricPrecision; text-rendering:geometricPrecision; image-rendering:optimizeQuality; fill-rule:evenodd; clip-rule:evenodd" xmlns:xlink="http://www.w3.org/1999/xlink">
<g><path style="opacity:1" fill="#006132" d="M -0.5,-0.5 C 959.5,-0.5 1919.5,-0.5 2879.5,-0.5C 2879.5,639.5 2879.5,1279.5 2879.5,1919.5C 1919.5,1919.5 959.5,1919.5 -0.5,1919.5C -0.5,1279.5 -0.5,639.5 -0.5,-0.5 Z"/></g>
<g><path style="opacity:1" fill="#060706" d="M 1327.5,319.5 C 1330.79,319.259 1333.79,320.092 1336.5,322C 1340.58,326.749 1345.24,330.749 1350.5,334C 1373.69,345.715 1395.69,359.215 1416.5,374.5C 1416.83,373.833 1417.17,373.167 1417.5,372.5C 1416.01,367.24 1415.51,361.906 1416,356.5C 1418.68,352.364 1422.18,351.531 1426.5,354C 1430.98,357.647 1435.32,361.481 1439.5,365.5C 1443.68,361.481 1448.02,357.647 1452.5,354C 1456.87,351.538 1460.37,352.371 1463,356.5C 1463.49,361.906 1462.99,367.24 1461.5,372.5C 1461.83,373.167 1462.17,373.833 1462.5,374.5C 1483.31,359.215 1505.31,345.715 1528.5,334C 1533.76,330.749 1538.42,326.749 1542.5,322C 1552.01,317.827 1556.18,320.993 1555,331.5C 1551.13,346.726 1544.97,360.893 1536.5,374C 1552.6,369.56 1568.93,365.56 1585.5,362C 1591.73,359.888 1597.73,357.222 1603.5,354C 1614.09,353.624 1617.26,358.458 1613,368.5C 1605.88,392.289 1591.38,410.122 1569.5,422C 1584.41,427.372 1597.25,435.872 1608,447.5C 1613.35,442.689 1619.18,442.189 1625.5,446C 1633.66,455.498 1642.99,463.498 1653.5,470C 1681.29,483.395 1708.96,497.062 1736.5,511C 1750.5,518.664 1762.33,528.831 1772,541.5C 1774.4,525.435 1782.57,521.601 1796.5,530C 1799.87,533.703 1803.53,537.036 1807.5,540C 1828.42,551.625 1847.75,565.459 1865.5,581.5C 1880.73,596.95 1892.73,614.616 1901.5,634.5C 1903.07,628.188 1906.07,622.688 1910.5,618C 1917.85,614.822 1923.68,616.655 1928,623.5C 1929.59,625.67 1930.92,628.004 1932,630.5C 1940.36,639.197 1949.03,647.531 1958,655.5C 1977.37,675.923 1987.71,700.257 1989,728.5C 2018.67,750.139 2037,779.139 2044,815.5C 2047.31,834.164 2047.31,852.83 2044,871.5C 2041.4,884.928 2037.73,897.928 2033,910.5C 2043.02,902.155 2053.85,894.989 2065.5,889C 2075.73,885.507 2080.23,889.007 2079,899.5C 2074.78,908.38 2072.11,917.713 2071,927.5C 2069.15,950.27 2066.48,972.937 2063,995.5C 2058.86,1022.43 2049.19,1047.1 2034,1069.5C 2023.57,1080.87 2013.74,1092.71 2004.5,1105C 1995.09,1109.33 1989.59,1106.16 1988,1095.5C 1987.33,1105.83 1987.33,1116.17 1988,1126.5C 2005.09,1113.42 2021.59,1099.59 2037.5,1085C 2042.17,1081.38 2046.34,1081.88 2050,1086.5C 2052.32,1146.02 2029.82,1193.52 1982.5,1229C 1968.58,1237.79 1953.58,1244.12 1937.5,1248C 1934.17,1248.67 1930.83,1248.67 1927.5,1248C 1924.9,1247.07 1923.4,1245.23 1923,1242.5C 1919.83,1250.54 1915.99,1258.21 1911.5,1265.5C 1911.83,1265.83 1912.17,1266.17 1912.5,1266.5C 1935.48,1258.45 1957.81,1248.95 1979.5,1238C 1988.17,1236.34 1992,1239.84 1991,1248.5C 1964.39,1323.78 1911.89,1368.94 1833.5,1384C 1820.47,1384.8 1807.47,1384.63 1794.5,1383.5C 1790.73,1385.43 1787.06,1387.6 1783.5,1390C 1804.51,1389.04 1825.51,1389.37 1846.5,1391C 1853.31,1391.38 1859.14,1393.88 1864,1398.5C 1865.18,1402.26 1864.01,1405.09 1860.5,1407C 1853.72,1409.03 1847.06,1411.36 1840.5,1414C 1822.23,1425.94 1804.23,1438.28 1786.5,1451C 1779.43,1455.73 1772.09,1460.07 1764.5,1464C 1767.76,1465.25 1769.43,1467.58 1769.5,1471C 1766.14,1480.74 1762.98,1490.57 1760,1500.5C 1759.33,1508.17 1759.33,1515.83 1760,1523.5C 1762.22,1530.82 1765.22,1537.82 1769,1544.5C 1773.33,1550.83 1777.67,1557.17 1782,1563.5C 1784.22,1570.44 1782.05,1575.27 1775.5,1578C 1770.56,1579 1765.56,1579.5 1760.5,1579.5C 1681.41,1573.26 1603.41,1560.43 1526.5,1541C 1518.46,1538.6 1510.46,1536.1 1502.5,1533.5C 1500.73,1534.04 1500.4,1534.87 1501.5,1536C 1549.58,1551.27 1598.58,1562.6 1648.5,1570C 1652.73,1571.11 1656.73,1572.78 1660.5,1575C 1663.1,1577.32 1663.93,1580.15 1663,1583.5C 1661.17,1586.67 1658.67,1589.17 1655.5,1591C 1635.45,1598.84 1614.79,1601.18 1593.5,1598C 1554.8,1589.73 1519.3,1574.23 1487,1551.5C 1480.38,1556.78 1473.21,1561.28 1465.5,1565C 1456.08,1568.37 1449.25,1565.54 1445,1556.5C 1442.49,1549.28 1440.49,1541.95 1439,1534.5C 1438.1,1541.68 1436.43,1548.68 1434,1555.5C 1429.8,1565.34 1422.63,1568.51 1412.5,1565C 1405.39,1560.88 1398.55,1556.38 1392,1551.5C 1364.72,1570.06 1335.22,1584.22 1303.5,1594C 1287.4,1598.18 1271.07,1599.85 1254.5,1599C 1244.63,1597.43 1234.97,1595.09 1225.5,1592C 1221.39,1590.22 1218.22,1587.39 1216,1583.5C 1215.05,1578.58 1216.88,1575.08 1221.5,1573C 1224.17,1572 1226.83,1571 1229.5,1570C 1280.17,1562.5 1329.84,1550.83 1378.5,1535C 1377.89,1534.13 1377.06,1533.63 1376,1533.5C 1328.61,1547.72 1280.44,1558.56 1231.5,1566C 1197.3,1571.4 1162.97,1575.73 1128.5,1579C 1093.17,1582.84 1087.01,1571.34 1110,1544.5C 1113.78,1537.82 1116.78,1530.82 1119,1523.5C 1119.67,1515.83 1119.67,1508.17 1119,1500.5C 1116.02,1490.57 1112.86,1480.74 1109.5,1471C 1109.57,1467.58 1111.24,1465.25 1114.5,1464C 1090.68,1449.84 1067.68,1434.51 1045.5,1418C 1036.96,1413.15 1027.96,1409.49 1018.5,1407C 1014.99,1405.09 1013.82,1402.26 1015,1398.5C 1021.31,1392.73 1028.81,1389.89 1037.5,1390C 1056.84,1389.61 1076.17,1389.61 1095.5,1390C 1091.88,1387.37 1088.05,1385.2 1084,1383.5C 1032.64,1388.06 987.469,1373.56 948.5,1340C 919.252,1314.36 898.919,1282.86 887.5,1245.5C 888.408,1239.04 892.074,1236.54 898.5,1238C 909.619,1242.73 920.619,1247.73 931.5,1253C 943.439,1258.14 955.439,1262.31 967.5,1265.5C 962.624,1258.39 958.791,1250.72 956,1242.5C 955.315,1245.06 953.815,1246.89 951.5,1248C 939.265,1248.04 927.599,1245.37 916.5,1240C 863.511,1212.23 834.345,1168.4 829,1108.5C 828.333,1101.17 828.333,1093.83 829,1086.5C 832.573,1081.72 836.74,1081.22 841.5,1085C 857.415,1099.59 873.915,1113.42 891,1126.5C 891.667,1116.17 891.667,1105.83 891,1095.5C 890.1,1100.06 887.933,1103.9 884.5,1107C 881.366,1107.79 878.366,1107.46 875.5,1106C 865.69,1093.56 855.524,1081.39 845,1069.5C 829.658,1047.16 819.992,1022.49 816,995.5C 812.578,972.93 809.911,950.263 808,927.5C 806.887,917.713 804.22,908.38 800,899.5C 797.999,890.504 801.499,886.671 810.5,888C 823.059,893.526 834.559,900.693 845,909.5C 841.835,898.989 838.835,888.323 836,877.5C 824.591,822.74 838.758,775.907 878.5,737C 882.6,734.533 886.434,731.699 890,728.5C 891.209,700.759 901.209,676.759 920,656.5C 929.304,648.197 938.304,639.531 947,630.5C 949.877,623.114 955.044,618.448 962.5,616.5C 966.558,616.446 969.724,618.112 972,621.5C 974.322,625.635 976.155,629.968 977.5,634.5C 989.706,606.463 1008.04,583.296 1032.5,565C 1045.33,556.417 1058.33,548.084 1071.5,540C 1076.99,534.175 1083.32,529.509 1090.5,526C 1101.33,525.157 1106.83,530.324 1107,541.5C 1116.67,528.831 1128.5,518.664 1142.5,511C 1170.04,497.062 1197.71,483.395 1225.5,470C 1236.01,463.498 1245.34,455.498 1253.5,446C 1259.59,442.304 1265.26,442.804 1270.5,447.5C 1281.52,435.99 1294.52,427.49 1309.5,422C 1286.93,409.503 1272.26,390.836 1265.5,366C 1263.02,357.149 1266.35,353.149 1275.5,354C 1281.26,357.216 1287.26,359.883 1293.5,362C 1310.02,365.689 1326.35,369.689 1342.5,374C 1331.97,359.066 1325.8,342.566 1324,324.5C 1325,322.677 1326.16,321.01 1327.5,319.5 Z"/></g>
<g><path style="opacity:1" fill="#f9fafa" d="M 1396.5,391.5 C 1382.65,382.823 1369.48,373.157 1357,362.5C 1355,359.833 1353,357.167 1351,354.5C 1353.33,361.468 1356.99,367.801 1362,373.5C 1370.74,381.443 1379.91,388.776 1389.5,395.5C 1385.23,398.589 1381.07,401.923 1377,405.5C 1359.37,388.242 1345.7,368.242 1336,345.5C 1333.4,339.722 1332.07,333.722 1332,327.5C 1336.67,333.077 1342.17,337.577 1348.5,341C 1371.34,351.91 1392.67,365.077 1412.5,380.5C 1413.83,381.167 1413.83,381.833 1412.5,382.5C 1407.14,385.512 1401.81,388.512 1396.5,391.5 Z"/></g>
<g><path style="opacity:1" fill="#fafbfa" d="M 1453.5,429.5 C 1456.3,424.098 1459.97,419.265 1464.5,415C 1477.32,405.09 1490.32,395.423 1503.5,386C 1512.09,379.417 1519.25,371.584 1525,362.5C 1526.63,359.942 1527.63,357.275 1528,354.5C 1523.17,360.667 1517.67,366.167 1511.5,371C 1497.89,380.28 1484.55,389.946 1471.5,400C 1465.92,404.907 1461.09,410.407 1457,416.5C 1454.4,420.474 1452.9,424.807 1452.5,429.5C 1448.52,430.295 1444.52,430.962 1440.5,431.5C 1439.53,429.052 1439.19,426.385 1439.5,423.5C 1444.8,413.33 1449.96,402.996 1455,392.5C 1465.37,380.9 1477.2,371.066 1490.5,363C 1507,353.92 1523.33,344.586 1539.5,335C 1542,332.5 1544.5,330 1547,327.5C 1545.27,340.654 1540.94,352.987 1534,364.5C 1519.43,389.073 1500.6,409.906 1477.5,427C 1469.39,427.239 1461.39,428.072 1453.5,429.5 Z"/></g>
<g><path style="opacity:1" fill="#14693c" d="M 1396.5,391.5 C 1396.61,392.117 1396.94,392.617 1397.5,393C 1395.88,393.615 1394.55,394.615 1393.5,396C 1392.07,396.579 1390.74,396.412 1389.5,395.5C 1379.91,388.776 1370.74,381.443 1362,373.5C 1356.99,367.801 1353.33,361.468 1351,354.5C 1353,357.167 1355,359.833 1357,362.5C 1369.48,373.157 1382.65,382.823 1396.5,391.5 Z"/></g>
<g><path style="opacity:1" fill="#12693b" d="M 1453.5,429.5 C 1453.17,429.5 1452.83,429.5 1452.5,429.5C 1452.9,424.807 1454.4,420.474 1457,416.5C 1461.09,410.407 1465.92,404.907 1471.5,400C 1484.55,389.946 1497.89,380.28 1511.5,371C 1517.67,366.167 1523.17,360.667 1528,354.5C 1527.63,357.275 1526.63,359.942 1525,362.5C 1519.25,371.584 1512.09,379.417 1503.5,386C 1490.32,395.423 1477.32,405.09 1464.5,415C 1459.97,419.265 1456.3,424.098 1453.5,429.5 Z"/></g>
<g><path style="opacity:1" fill="#fafafa" d="M 1363.5,406.5 C 1344.85,401.338 1326.19,396.171 1307.5,391C 1300.24,388.455 1294.08,384.288 1289,378.5C 1292.75,385.239 1298.25,390.406 1305.5,394C 1320.93,400.75 1336.6,406.584 1352.5,411.5C 1350.85,412.927 1348.85,413.76 1346.5,414C 1337.5,415.833 1328.5,417.666 1319.5,419.5C 1298.69,409.524 1283.86,393.857 1275,372.5C 1273.36,368.62 1272.69,364.62 1273,360.5C 1289.13,367.744 1305.96,372.911 1323.5,376C 1332.25,378.529 1340.92,381.363 1349.5,384.5C 1354.81,391.61 1360.48,398.443 1366.5,405C 1365.47,405.513 1364.47,406.013 1363.5,406.5 Z"/></g>
<g><path style="opacity:1" fill="#e0e0e0" d="M 1422.5,360.5 C 1426.57,363.06 1430.24,366.227 1433.5,370C 1431.3,371.697 1428.97,373.197 1426.5,374.5C 1425.91,374.291 1425.41,373.957 1425,373.5C 1424.1,369.166 1423.27,364.832 1422.5,360.5 Z"/></g>
<g><path style="opacity:1" fill="#f9faf9" d="M 1453.5,361.5 C 1454.73,362.152 1455.39,363.319 1455.5,365C 1449.98,389.825 1439.15,411.991 1423,431.5C 1420.79,433.373 1418.96,435.54 1417.5,438C 1401.82,444.005 1386.82,451.338 1372.5,460C 1367.02,465.306 1367.35,470.306 1373.5,475C 1368.27,478.101 1362.6,479.267 1356.5,478.5C 1355.44,471.202 1355.27,463.869 1356,456.5C 1367.07,445.412 1373.74,432.078 1376,416.5C 1383.3,408.859 1391.47,402.359 1400.5,397C 1414.83,389.506 1428.83,381.506 1442.5,373C 1446.37,369.298 1450.04,365.464 1453.5,361.5 Z"/></g>
<g><path style="opacity:1" fill="#f9faf9" d="M 1489.5,427.5 C 1494.51,423.363 1500.18,420.196 1506.5,418C 1523.36,411.934 1540.36,406.268 1557.5,401C 1569.09,397.542 1579.09,391.542 1587.5,383C 1582.13,385.847 1576.46,388.514 1570.5,391C 1557.29,395.044 1543.95,398.71 1530.5,402C 1522.28,404.684 1514.28,407.85 1506.5,411.5C 1514.52,402.813 1522.19,393.813 1529.5,384.5C 1548.75,377.602 1568.42,372.102 1588.5,368C 1594.4,366.05 1600.07,363.55 1605.5,360.5C 1606.48,363.497 1606.31,366.497 1605,369.5C 1596.91,391.595 1582.41,408.095 1561.5,419C 1552.85,423.824 1543.85,427.824 1534.5,431C 1519.5,430.168 1504.5,429.001 1489.5,427.5 Z"/></g>
<g><path style="opacity:1" fill="#11673a" d="M 1363.5,406.5 C 1363.92,407.222 1364.58,407.722 1365.5,408C 1362.62,408.956 1359.96,410.289 1357.5,412C 1355.8,412.384 1354.14,412.218 1352.5,411.5C 1336.6,406.584 1320.93,400.75 1305.5,394C 1298.25,390.406 1292.75,385.239 1289,378.5C 1294.08,384.288 1300.24,388.455 1307.5,391C 1326.19,396.171 1344.85,401.338 1363.5,406.5 Z"/></g>
<g><path style="opacity:1" fill="#11683b" d="M 1489.5,427.5 C 1488.76,427.631 1488.09,427.464 1487.5,427C 1493.13,420.868 1499.46,415.701 1506.5,411.5C 1514.28,407.85 1522.28,404.684 1530.5,402C 1543.95,398.71 1557.29,395.044 1570.5,391C 1576.46,388.514 1582.13,385.847 1587.5,383C 1579.09,391.542 1569.09,397.542 1557.5,401C 1540.36,406.268 1523.36,411.934 1506.5,418C 1500.18,420.196 1494.51,423.363 1489.5,427.5 Z"/></g>
<g><path style="opacity:1" fill="#12683b" d="M 1435.5,390.5 C 1436.1,390.735 1436.43,391.235 1436.5,392C 1435.21,394.071 1434.05,396.238 1433,398.5C 1429.33,402.833 1425.67,407.167 1422,411.5C 1405.83,425 1389.67,438.5 1373.5,452C 1371,455.167 1368.5,458.333 1366,461.5C 1368.11,452.942 1372.11,445.275 1378,438.5C 1392.33,425.09 1407.83,413.257 1424.5,403C 1428.75,399.258 1432.41,395.092 1435.5,390.5 Z"/></g>
<g><path style="opacity:1" fill="#fafbfb" d="M 1365.5,413.5 C 1367.31,414.918 1367.97,416.918 1367.5,419.5C 1366.12,429.259 1362.29,437.925 1356,445.5C 1343.24,459.604 1328.74,471.437 1312.5,481C 1305.36,482.934 1298.36,485.268 1291.5,488C 1280.07,493.782 1268.9,499.949 1258,506.5C 1257.5,506.333 1257,506.167 1256.5,506C 1262.23,500.04 1266.56,493.207 1269.5,485.5C 1273.96,482.096 1278.63,478.929 1283.5,476C 1299.14,469.185 1313.81,460.852 1327.5,451C 1330.17,448.333 1332.83,445.667 1335.5,443C 1320.62,451.106 1305.29,458.772 1289.5,466C 1283.66,469.689 1277.99,473.522 1272.5,477.5C 1273.93,469.579 1274.76,461.579 1275,453.5C 1288.23,438.462 1304.73,428.962 1324.5,425C 1338.95,423.748 1352.62,419.914 1365.5,413.5 Z"/></g>
<g><path style="opacity:1" fill="#999999" d="M 1365.5,413.5 C 1366.21,412.596 1367.21,412.263 1368.5,412.5C 1368.8,415.059 1368.47,417.393 1367.5,419.5C 1367.97,416.918 1367.31,414.918 1365.5,413.5 Z"/></g>
<g><path style="opacity:1" fill="#fafafa" d="M 1606.5,478.5 C 1601.27,473.779 1595.61,469.612 1589.5,466C 1581.07,461.787 1572.74,457.621 1564.5,453.5C 1569.41,448.978 1570.57,443.645 1568,437.5C 1562.74,434.055 1556.9,432.222 1550.5,432C 1553.96,429.935 1557.63,428.435 1561.5,427.5C 1578.4,431.701 1592.57,440.367 1604,453.5C 1604.15,461.924 1604.98,470.258 1606.5,478.5 Z"/></g>
<g><path style="opacity:1" fill="#8d8d8d" d="M 1439.5,423.5 C 1439.19,426.385 1439.53,429.052 1440.5,431.5C 1440.44,432.043 1440.11,432.376 1439.5,432.5C 1438.2,429.355 1438.2,426.355 1439.5,423.5 Z"/></g>
<g><path style="opacity:1" fill="#fafbfa" d="M 1461.5,434.5 C 1486.02,433.443 1510.35,434.943 1534.5,439C 1543.56,439.118 1552.56,439.785 1561.5,441C 1562.67,442.868 1562.51,444.702 1561,446.5C 1553.83,454.502 1545.33,460.669 1535.5,465C 1488.71,484.625 1440.71,488.291 1391.5,476C 1385.55,474.027 1380.22,471.027 1375.5,467C 1401.79,449.679 1430.46,438.846 1461.5,434.5 Z"/></g>
<g><path style="opacity:1" fill="#11673b" d="M 1269.5,485.5 C 1268.04,486.458 1266.71,487.624 1265.5,489C 1264.67,489.688 1264,489.521 1263.5,488.5C 1266.15,484.524 1269.15,480.857 1272.5,477.5C 1277.99,473.522 1283.66,469.689 1289.5,466C 1305.29,458.772 1320.62,451.106 1335.5,443C 1332.83,445.667 1330.17,448.333 1327.5,451C 1313.81,460.852 1299.14,469.185 1283.5,476C 1278.63,478.929 1273.96,482.096 1269.5,485.5 Z"/></g>
<g><path style="opacity:1" fill="#fafafa" d="M 1258.5,450.5 C 1261.65,450.047 1264.15,451.047 1266,453.5C 1268.5,470.83 1264.17,486.163 1253,499.5C 1245.1,508.069 1236.6,515.903 1227.5,523C 1182.89,524.984 1143.23,539.817 1108.5,567.5C 1106.96,559.606 1108.46,552.273 1113,545.5C 1117.46,538.708 1122.96,532.875 1129.5,528C 1153.32,512.089 1178.65,498.755 1205.5,488C 1226.39,479.901 1244.06,467.401 1258.5,450.5 Z"/></g>
<g><path style="opacity:1" fill="#fafafa" d="M 1614.5,450.5 C 1616.99,450.298 1619.32,450.798 1621.5,452C 1628.94,460.45 1637.28,467.783 1646.5,474C 1668.89,485.529 1691.56,496.529 1714.5,507C 1728.84,513.832 1742.18,522.165 1754.5,532C 1762.67,539.179 1768.17,548.013 1771,558.5C 1771.82,561.554 1771.65,564.554 1770.5,567.5C 1735.76,539.969 1696.09,525.135 1651.5,523C 1636.82,512.322 1624.98,499.155 1616,483.5C 1612.07,472.544 1611.57,461.544 1614.5,450.5 Z"/></g>
<g><path style="opacity:1" fill="#186b3e" d="M 1449.5,452.5 C 1474.54,453.271 1499.54,453.438 1524.5,453C 1514.28,455.537 1503.95,457.537 1493.5,459C 1464.44,460.158 1435.44,461.491 1406.5,463C 1420.54,457.739 1434.87,454.239 1449.5,452.5 Z"/></g>
<g><path style="opacity:1" fill="#106539" d="M 1564.5,453.5 C 1572.74,457.621 1581.07,461.787 1589.5,466C 1595.61,469.612 1601.27,473.779 1606.5,478.5C 1610.49,482.495 1614.16,486.829 1617.5,491.5C 1617.33,491.833 1617.17,492.167 1617,492.5C 1614.63,489.961 1612.13,487.628 1609.5,485.5C 1605.7,482.431 1601.7,479.597 1597.5,477C 1585.14,470.489 1572.81,463.989 1560.5,457.5C 1559.87,454.783 1561.2,453.45 1564.5,453.5 Z"/></g>
<g><path style="opacity:1" fill="#f9f9f9" d="M 1560.5,457.5 C 1572.81,463.989 1585.14,470.489 1597.5,477C 1601.7,479.597 1605.7,482.431 1609.5,485.5C 1612.44,493.207 1616.77,500.04 1622.5,506C 1621.83,506.167 1621.17,506.333 1620.5,506.5C 1610.53,500.177 1600.19,494.343 1589.5,489C 1580.41,485.86 1571.41,482.527 1562.5,479C 1557.17,475 1551.83,471 1546.5,467C 1551.37,464.071 1556.04,460.904 1560.5,457.5 Z"/></g>
<g><path style="opacity:1" fill="#c8c8c8" d="M 1347.5,463.5 C 1348.78,464.386 1348.78,465.386 1347.5,466.5C 1346.44,465.575 1346.44,464.575 1347.5,463.5 Z"/></g>
<g><path style="opacity:1" fill="#005d30" d="M 1339.5,470.5 C 1342.02,471.927 1344.69,473.094 1347.5,474C 1348.34,475.011 1348.67,476.178 1348.5,477.5C 1342.82,477.666 1337.16,477.499 1331.5,477C 1334.36,474.969 1337.02,472.803 1339.5,470.5 Z"/></g>
<g><path style="opacity:1" fill="#005f31" d="M 1538.5,470.5 C 1541.62,472.448 1544.62,474.615 1547.5,477C 1541.84,477.499 1536.18,477.666 1530.5,477.5C 1530.33,476.178 1530.66,475.011 1531.5,474C 1534.17,473.33 1536.51,472.163 1538.5,470.5 Z"/></g>
<g><path style="opacity:1" fill="#fafbfb" d="M 1327.5,484.5 C 1352.23,483.818 1376.56,486.651 1400.5,493C 1406.85,493.356 1413.19,493.356 1419.5,493C 1382.35,520.208 1340.68,533.042 1294.5,531.5C 1294.76,527.507 1293.09,524.674 1289.5,523C 1285.92,521.963 1282.26,521.463 1278.5,521.5C 1271.51,523.279 1264.84,522.612 1258.5,519.5C 1257.17,518.5 1257.17,517.5 1258.5,516.5C 1278.64,499.595 1301.64,488.928 1327.5,484.5 Z"/></g>
<g><path style="opacity:1" fill="#fafafa" d="M 1519.5,484.5 C 1558.37,481.403 1592.37,492.569 1621.5,518C 1618.64,520.847 1615.14,522.347 1611,522.5C 1604.52,521.48 1598.02,521.314 1591.5,522C 1587.07,523.434 1584.4,526.434 1583.5,531C 1537.53,533.231 1496.2,520.565 1459.5,493C 1465.47,493.406 1471.47,493.406 1477.5,493C 1491.6,489.948 1505.6,487.114 1519.5,484.5 Z"/></g>
<g><path style="opacity:1" fill="#016132" d="M 1428.5,489.5 C 1435.83,489.5 1443.17,489.5 1450.5,489.5C 1451.3,494.809 1453.96,498.975 1458.5,502C 1487.81,521.103 1519.81,533.103 1554.5,538C 1565.2,538.193 1575.87,538.36 1586.5,538.5C 1589.31,542.477 1592.31,546.31 1595.5,550C 1622.87,572.343 1654.2,586.01 1689.5,591C 1702.74,593.174 1716.08,594.507 1729.5,595C 1735.11,607.714 1742.61,619.214 1752,629.5C 1776.09,652.381 1803.92,669.381 1835.5,680.5C 1834.48,702.292 1840.65,721.959 1854,739.5C 1872.41,760.612 1893.91,777.778 1918.5,791C 1912.15,790.693 1907.98,793.527 1906,799.5C 1905.1,825.791 1912.1,849.791 1927,871.5C 1934.16,881.288 1941.16,890.955 1948,900.5C 1940.69,894.92 1932.52,891.753 1923.5,891C 1921.32,892.497 1919.99,894.497 1919.5,897C 1923.17,906.179 1925.67,915.679 1927,925.5C 1928.75,945.902 1931.08,966.235 1934,986.5C 1936.98,1002.44 1942.15,1017.61 1949.5,1032C 1927.34,1059.48 1916.51,1090.98 1917,1126.5C 1913.95,1122.87 1910.12,1121.7 1905.5,1123C 1886.78,1135.63 1872.61,1152.13 1863,1172.5C 1852.57,1194.33 1846.57,1217.33 1845,1241.5C 1816.44,1257.72 1791.11,1278.05 1769,1302.5C 1763.84,1308.82 1759.17,1315.48 1755,1322.5C 1750.46,1318.27 1745.3,1317.44 1739.5,1320C 1713.9,1334.8 1687.23,1347.47 1659.5,1358C 1622.36,1373.63 1589.2,1395.13 1560,1422.5C 1551.95,1405.8 1538.62,1398.14 1520,1399.5C 1515.5,1399.67 1511,1399.83 1506.5,1400C 1490.43,1403.35 1474.43,1407.02 1458.5,1411C 1445.83,1412.97 1433.16,1412.97 1420.5,1411C 1403.26,1406.9 1385.93,1403.24 1368.5,1400C 1346.18,1395.25 1329.68,1402.75 1319,1422.5C 1297.73,1402.56 1274.23,1385.73 1248.5,1372C 1221.17,1358.89 1193.5,1346.56 1165.5,1335C 1157.09,1329.6 1148.43,1324.6 1139.5,1320C 1133.66,1317.31 1128.49,1318.14 1124,1322.5C 1107.21,1296.71 1086.04,1275.21 1060.5,1258C 1051.67,1252.5 1042.83,1247 1034,1241.5C 1031.44,1196.56 1013.94,1158.73 981.5,1128C 976.981,1123.72 971.648,1122.05 965.5,1123C 964.667,1123.83 963.833,1124.67 963,1125.5C 962.315,1090.44 951.148,1059.27 929.5,1032C 938.817,1013.24 944.65,993.407 947,972.5C 948.82,954.811 950.82,937.144 953,919.5C 954.562,911.815 956.729,904.315 959.5,897C 957.248,890.435 952.915,888.768 946.5,892C 940.935,894.961 935.602,897.461 930.5,899.5C 947.661,880.857 960.494,859.524 969,835.5C 973.054,823.799 974.388,811.799 973,799.5C 971.643,793.47 967.81,790.637 961.5,791C 976.868,781.651 991.534,771.317 1005.5,760C 1022.54,745.969 1034.38,728.469 1041,707.5C 1043.06,698.513 1043.72,689.513 1043,680.5C 1075,669.845 1103,652.845 1127,629.5C 1136.39,619.214 1143.89,607.714 1149.5,595C 1183.93,593.915 1216.93,586.582 1248.5,573C 1266.65,564.837 1281.81,553.003 1294,537.5C 1322.1,539.675 1349.27,535.509 1375.5,525C 1391.22,518.641 1406.22,510.974 1420.5,502C 1425.04,498.975 1427.7,494.809 1428.5,489.5 Z"/></g>
<g><path style="opacity:1" fill="#13693c" d="M 1131.5,540.5 C 1132.72,538.549 1134.38,537.049 1136.5,536C 1159.6,524.635 1183.26,514.635 1207.5,506C 1215.88,502.161 1223.55,497.994 1230.5,493.5C 1222.36,503.469 1212.36,510.969 1200.5,516C 1183.36,522.267 1166.03,527.934 1148.5,533C 1142.81,535.512 1137.15,538.012 1131.5,540.5 Z"/></g>
<g><path style="opacity:1" fill="#166a3e" d="M 1648.5,492.5 C 1655.48,497.997 1663.15,502.497 1671.5,506C 1695.57,515.025 1719.24,525.025 1742.5,536C 1745.68,538.092 1748.68,540.425 1751.5,543C 1745.46,539.819 1739.13,536.819 1732.5,534C 1714.35,528.395 1696.35,522.395 1678.5,516C 1666.24,510.887 1656.24,503.054 1648.5,492.5 Z"/></g>
<g><path style="opacity:1" fill="#1e6f43" d="M 1370.5,505.5 C 1375.59,505.497 1375.59,506.33 1370.5,508C 1364.98,510.131 1359.31,511.798 1353.5,513C 1330.82,514.245 1308.15,514.912 1285.5,515C 1292.58,512.32 1299.92,510.653 1307.5,510C 1323.15,509.045 1338.82,508.378 1354.5,508C 1360.08,507.85 1365.41,507.017 1370.5,505.5 Z"/></g>
<g><path style="opacity:1" fill="#1e6e43" d="M 1504.5,506.5 C 1504.74,505.903 1505.24,505.57 1506,505.5C 1529.11,507.73 1552.27,509.563 1575.5,511C 1581.7,511.511 1587.7,512.844 1593.5,515C 1573.54,514.715 1553.54,514.382 1533.5,514C 1523.4,513.081 1513.73,510.581 1504.5,506.5 Z"/></g>
<g><path style="opacity:1" fill="#00572d" d="M 1249.5,512.5 C 1250.38,512.369 1251.04,512.702 1251.5,513.5C 1248.89,516.63 1248.89,519.796 1251.5,523C 1247.17,523.667 1242.83,523.667 1238.5,523C 1242.67,519.998 1246.33,516.498 1249.5,512.5 Z"/></g>
<g><path style="opacity:1" fill="#00572d" d="M 1627.5,512.5 C 1631.94,515.763 1636.27,519.263 1640.5,523C 1636.17,523.667 1631.83,523.667 1627.5,523C 1630.09,519.471 1630.09,515.971 1627.5,512.5 Z"/></g>
<g><path style="opacity:1" fill="#f9fafa" d="M 1273.5,527.5 C 1289.18,525.887 1291.68,530.887 1281,542.5C 1257.78,562.691 1230.95,575.858 1200.5,582C 1183.67,585.381 1166.67,587.214 1149.5,587.5C 1149.21,583.039 1146.88,580.205 1142.5,579C 1139.17,578.333 1135.83,578.333 1132.5,579C 1127.61,580.696 1122.78,582.529 1118,584.5C 1113.57,583.868 1109.74,582.035 1106.5,579C 1139.97,548.942 1179.31,532.608 1224.5,530C 1239.17,529.667 1253.83,529.333 1268.5,529C 1270.38,528.802 1272.05,528.302 1273.5,527.5 Z"/></g>
<g><path style="opacity:1" fill="#fafbfb" d="M 1594.5,527.5 C 1601.91,527.615 1609.24,528.448 1616.5,530C 1675.68,524.445 1727.68,540.778 1772.5,579C 1768.96,581.727 1764.96,583.56 1760.5,584.5C 1755.95,582.393 1751.28,580.559 1746.5,579C 1740.68,577.591 1735.52,578.758 1731,582.5C 1729.99,584.025 1729.49,585.692 1729.5,587.5C 1689.38,587.971 1652.05,578.138 1617.5,558C 1607.32,551.488 1598.82,543.322 1592,533.5C 1591.03,530.66 1591.87,528.66 1594.5,527.5 Z"/></g>
<g><path style="opacity:1" fill="#fbfbfb" d="M 1091.5,532.5 C 1094.04,532.104 1096.21,532.771 1098,534.5C 1098.59,556.566 1092.42,576.566 1079.5,594.5C 1039.81,606.067 1006.98,627.734 981,659.5C 980.333,655.5 980.333,651.5 981,647.5C 990.978,617.382 1008.48,592.549 1033.5,573C 1047.32,562.92 1061.65,553.587 1076.5,545C 1081.4,540.592 1086.4,536.426 1091.5,532.5 Z"/></g>
<g><path style="opacity:1" fill="#fafbfa" d="M 1782.5,532.5 C 1785.79,532.259 1788.79,533.092 1791.5,535C 1794.87,538.703 1798.53,542.036 1802.5,545C 1827.79,558.407 1850.29,575.574 1870,596.5C 1882.18,611.862 1891.52,628.862 1898,647.5C 1898.67,651.5 1898.67,655.5 1898,659.5C 1872.02,627.73 1839.19,606.063 1799.5,594.5C 1788.71,578.815 1782.05,561.482 1779.5,542.5C 1779.31,538.744 1780.31,535.41 1782.5,532.5 Z"/></g>
<g><path style="opacity:1" fill="#edc20a" d="M 1406.5,541.5 C 1428.86,541.104 1451.2,541.604 1473.5,543C 1477.92,547.221 1479.59,552.387 1478.5,558.5C 1491.83,559.833 1505.16,561.166 1518.5,562.5C 1518.76,552.404 1523.76,548.571 1533.5,551C 1552.72,555.184 1571.72,560.184 1590.5,566C 1595.79,570.039 1596.79,575.039 1593.5,581C 1593.83,581.5 1594.17,582 1594.5,582.5C 1608.39,587.447 1622.06,592.947 1635.5,599C 1636.5,599.667 1637.5,599.667 1638.5,599C 1640.83,592.17 1645.5,589.503 1652.5,591C 1671.15,600.322 1689.15,610.656 1706.5,622C 1707.98,623.299 1708.65,624.966 1708.5,627C 1707.88,631.169 1706.72,635.002 1705,638.5C 1717.07,646.567 1728.57,655.401 1739.5,665C 1740.5,665.667 1741.5,665.667 1742.5,665C 1745.32,662.509 1748.49,660.676 1752,659.5C 1754.32,659.909 1756.49,660.743 1758.5,662C 1773.4,676.227 1787.56,691.061 1801,706.5C 1801.03,712.269 1798.53,716.769 1793.5,720C 1803.08,731.903 1812.24,744.069 1821,756.5C 1825.61,753.364 1830.44,752.864 1835.5,755C 1846.86,772.544 1856.52,791.044 1864.5,810.5C 1863.95,812.61 1863.11,814.61 1862,816.5C 1859.15,818.161 1856.65,820.161 1854.5,822.5C 1859.84,835.863 1864.18,849.529 1867.5,863.5C 1873.37,861.374 1878.53,862.374 1883,866.5C 1887.72,885.585 1891.22,904.918 1893.5,924.5C 1891.73,930.903 1887.4,933.903 1880.5,933.5C 1880.5,948.833 1880.5,964.167 1880.5,979.5C 1883.52,979.335 1886.52,979.502 1889.5,980C 1891.33,980.5 1892.5,981.667 1893,983.5C 1892.51,1004.42 1889.85,1025.08 1885,1045.5C 1883.68,1047.49 1881.85,1048.65 1879.5,1049C 1876.12,1049.18 1872.78,1049.68 1869.5,1050.5C 1865.71,1064.17 1861.37,1077.67 1856.5,1091C 1859.21,1093.03 1862.21,1094.7 1865.5,1096C 1868.01,1100.18 1867.84,1104.35 1865,1108.5C 1857.8,1125.23 1849.8,1141.57 1841,1157.5C 1835.68,1160.16 1830.35,1160.16 1825,1157.5C 1824.23,1157.64 1823.56,1157.98 1823,1158.5C 1815.78,1170.39 1807.78,1181.72 1799,1192.5C 1798.33,1193.5 1798.33,1194.5 1799,1195.5C 1804.42,1197.88 1806.75,1201.88 1806,1207.5C 1792.54,1223.96 1778.04,1239.46 1762.5,1254C 1756.41,1254.88 1751.24,1253.04 1747,1248.5C 1735.27,1258.74 1723.1,1268.4 1710.5,1277.5C 1712.93,1280.59 1714.93,1283.93 1716.5,1287.5C 1716.06,1290.21 1714.73,1292.38 1712.5,1294C 1699.43,1302.73 1686.1,1311.06 1672.5,1319C 1667.59,1321.87 1662.42,1324.04 1657,1325.5C 1654.27,1325.39 1651.77,1324.55 1649.5,1323C 1648.02,1320.36 1646.02,1318.19 1643.5,1316.5C 1629.4,1323.22 1615.07,1329.38 1600.5,1335C 1603.47,1339.63 1603.97,1344.47 1602,1349.5C 1580.68,1357.46 1558.84,1363.79 1536.5,1368.5C 1530.54,1366.37 1526.87,1362.2 1525.5,1356C 1509.89,1357.68 1494.22,1359.18 1478.5,1360.5C 1478.67,1364.51 1478.5,1368.51 1478,1372.5C 1477.17,1374.67 1475.67,1376.17 1473.5,1377C 1459.35,1377.94 1445.18,1378.44 1431,1378.5C 1421.74,1378.64 1412.57,1378.14 1403.5,1377C 1400.04,1372.45 1398.71,1367.28 1399.5,1361.5C 1384.22,1360.32 1369.06,1358.32 1354,1355.5C 1351.58,1358.73 1349.91,1362.4 1349,1366.5C 1347.03,1368.27 1344.7,1369.27 1342,1369.5C 1320.88,1365.23 1300.04,1359.73 1279.5,1353C 1277.74,1351.99 1276.57,1350.49 1276,1348.5C 1275.11,1344.13 1275.61,1339.97 1277.5,1336C 1262.66,1330.61 1248.16,1324.44 1234,1317.5C 1231.5,1320.67 1229,1323.83 1226.5,1327C 1224.3,1328.37 1221.97,1328.71 1219.5,1328C 1199.92,1317.97 1181.09,1306.8 1163,1294.5C 1161.6,1288.63 1163.1,1283.63 1167.5,1279.5C 1154.9,1270.4 1142.73,1260.74 1131,1250.5C 1128.17,1252.67 1125.33,1254.83 1122.5,1257C 1119.37,1257.79 1116.37,1257.46 1113.5,1256C 1098.94,1242.11 1085.1,1227.61 1072,1212.5C 1070.24,1205.51 1072.74,1200.35 1079.5,1197C 1070.1,1185.53 1061.43,1173.53 1053.5,1161C 1049.75,1161.79 1045.92,1162.63 1042,1163.5C 1039.19,1163.59 1036.85,1162.59 1035,1160.5C 1026.56,1145.06 1018.56,1129.39 1011,1113.5C 1006.53,1104.44 1009.19,1098.44 1019,1095.5C 1019.67,1094.17 1019.67,1092.83 1019,1091.5C 1014.2,1079.09 1010.2,1066.42 1007,1053.5C 1002.64,1053.48 998.141,1053.32 993.5,1053C 991.667,1052.5 990.5,1051.33 990,1049.5C 984.951,1029.43 981.951,1009.1 981,988.5C 984.746,983.877 989.579,981.877 995.5,982.5C 994.623,967.519 994.29,952.519 994.5,937.5C 991.482,937.665 988.482,937.498 985.5,937C 983.333,936.167 981.833,934.667 981,932.5C 981.696,912.265 984.363,892.265 989,872.5C 991.322,868.585 994.822,866.585 999.5,866.5C 1001.82,866.997 1004.15,867.33 1006.5,867.5C 1009.92,853.4 1014.26,839.566 1019.5,826C 1015.98,823.983 1012.48,821.816 1009,819.5C 1008.33,816.833 1008.33,814.167 1009,811.5C 1016.61,793.609 1025.28,776.276 1035,759.5C 1037.25,758.02 1039.75,757.353 1042.5,757.5C 1046.23,758.055 1049.89,758.555 1053.5,759C 1060.89,746.944 1069.06,735.444 1078,724.5C 1078.67,723.833 1078.67,723.167 1078,722.5C 1075.04,720.539 1072.37,718.206 1070,715.5C 1069.33,713.833 1069.33,712.167 1070,710.5C 1083.4,694.096 1097.9,678.596 1113.5,664C 1119.24,662.693 1124.24,664.027 1128.5,668C 1129.83,668.667 1131.17,668.667 1132.5,668C 1143.21,658.565 1154.38,649.731 1166,641.5C 1164.64,637.598 1162.8,633.765 1160.5,630C 1161.08,627.501 1162.42,625.501 1164.5,624C 1178,615.416 1191.67,607.082 1205.5,599C 1210.29,596.271 1215.29,594.105 1220.5,592.5C 1222.3,592.577 1223.97,593.077 1225.5,594C 1228.67,596.222 1231.5,598.722 1234,601.5C 1247.8,594.845 1261.97,589.178 1276.5,584.5C 1275.94,580.989 1275.28,577.489 1274.5,574C 1274.17,571.333 1275.17,569.333 1277.5,568C 1299.08,560.44 1321.08,554.773 1343.5,551C 1348.15,553.455 1350.98,557.288 1352,562.5C 1352.89,563.081 1353.89,563.415 1355,563.5C 1369.73,560.887 1384.57,559.221 1399.5,558.5C 1399.33,554.818 1399.5,551.152 1400,547.5C 1401.49,544.686 1403.66,542.686 1406.5,541.5 Z"/></g>
<g><path style="opacity:1" fill="#6da387" d="M 1131.5,540.5 C 1130.44,542.757 1128.77,543.923 1126.5,544C 1127.79,542.198 1129.46,541.031 1131.5,540.5 Z"/></g>
<g><path style="opacity:1" fill="#066332" d="M 1410.5,546.5 C 1429.5,546.333 1448.5,546.5 1467.5,547C 1469,547.833 1470.17,549 1471,550.5C 1471.67,556.5 1471.67,562.5 1471,568.5C 1468.41,570.014 1465.58,570.68 1462.5,570.5C 1444.82,569.335 1427.15,569.168 1409.5,570C 1408.67,569.167 1407.83,568.333 1407,567.5C 1406.33,561.5 1406.33,555.5 1407,549.5C 1408.15,548.364 1409.31,547.364 1410.5,546.5 Z"/></g>
<g><path style="opacity:1" fill="#0e6739" d="M 1255.5,543.5 C 1257.38,543.393 1257.71,543.893 1256.5,545C 1244.92,553.955 1231.92,559.955 1217.5,563C 1200.2,564.246 1182.87,564.912 1165.5,565C 1156.62,566.506 1147.95,568.506 1139.5,571C 1149.23,564.47 1159.9,560.137 1171.5,558C 1192.41,554.677 1213.41,552.01 1234.5,550C 1242.01,549.105 1249.01,546.939 1255.5,543.5 Z"/></g>
<g><path style="opacity:1" fill="#0f6739" d="M 1621.5,544.5 C 1621.56,543.957 1621.89,543.624 1622.5,543.5C 1629.09,546.974 1636.09,549.14 1643.5,550C 1664.96,551.644 1686.29,554.31 1707.5,558C 1719.48,560.543 1730.48,565.209 1740.5,572C 1731.21,568.594 1721.54,566.261 1711.5,565C 1694.46,564.927 1677.46,564.26 1660.5,563C 1646.16,559.494 1633.16,553.328 1621.5,544.5 Z"/></g>
<g><path style="opacity:1" fill="#086332" d="M 1333.5,556.5 C 1338.54,555.431 1342.38,557.097 1345,561.5C 1347.38,566.897 1348.21,572.397 1347.5,578C 1329.06,581.442 1311.06,586.442 1293.5,593C 1290.36,594.041 1287.86,593.207 1286,590.5C 1284.6,585.47 1283.1,580.47 1281.5,575.5C 1281.86,572.968 1283.2,571.135 1285.5,570C 1301.55,565.159 1317.55,560.659 1333.5,556.5 Z"/></g>
<g><path style="opacity:1" fill="#086332" d="M 1529.5,555.5 C 1548.76,559.232 1567.76,564.066 1586.5,570C 1587.85,571.574 1588.51,573.407 1588.5,575.5C 1586.91,580.453 1585.41,585.453 1584,590.5C 1582.69,591.573 1581.19,592.24 1579.5,592.5C 1570.52,589.562 1561.52,586.729 1552.5,584C 1542.72,582.279 1533.06,580.112 1523.5,577.5C 1521.74,575.809 1521.24,573.809 1522,571.5C 1523.49,567.213 1524.82,562.88 1526,558.5C 1527.15,557.364 1528.31,556.364 1529.5,555.5 Z"/></g>
<g><path style="opacity:1" fill="#026233" d="M 1396.5,565.5 C 1397.5,565.5 1398.5,565.5 1399.5,565.5C 1399.21,567.735 1399.54,569.735 1400.5,571.5C 1401.77,574.269 1403.94,575.602 1407,575.5C 1427.65,573.004 1448.32,573.004 1469,575.5C 1476.42,576.245 1479.59,572.912 1478.5,565.5C 1490.86,566.587 1503.19,567.92 1515.5,569.5C 1514.62,572.799 1514.46,576.132 1515,579.5C 1515.9,580.701 1517.07,581.535 1518.5,582C 1540.53,585.384 1562.03,590.884 1583,598.5C 1588.2,597.795 1590.7,594.795 1590.5,589.5C 1605.37,593.513 1619.7,599.013 1633.5,606C 1631.37,608.261 1630.04,610.928 1629.5,614C 1629.64,616.151 1630.64,617.818 1632.5,619C 1652.44,627.63 1671.1,638.296 1688.5,651C 1690.97,651.706 1693.3,651.373 1695.5,650C 1696.78,647.577 1698.62,645.744 1701,644.5C 1713.06,652.553 1724.56,661.387 1735.5,671C 1733.24,672.715 1731.07,674.548 1729,676.5C 1728.29,678.971 1728.63,681.305 1730,683.5C 1746.54,697.036 1761.37,712.203 1774.5,729C 1779.82,730.343 1784.15,728.843 1787.5,724.5C 1796.76,735.514 1805.43,747.014 1813.5,759C 1810.22,760.648 1807.06,762.481 1804,764.5C 1803.33,766.5 1803.33,768.5 1804,770.5C 1815.42,787.337 1824.75,805.337 1832,824.5C 1833.18,826.357 1834.85,827.357 1837,827.5C 1840.13,826.9 1843.13,825.9 1846,824.5C 1852.29,836.846 1857.12,849.846 1860.5,863.5C 1856.91,864.877 1853.24,866.044 1849.5,867C 1848.43,868.313 1847.76,869.813 1847.5,871.5C 1853.4,891.417 1856.9,911.75 1858,932.5C 1858.5,934.333 1859.67,935.5 1861.5,936C 1865.17,936.279 1868.84,936.112 1872.5,935.5C 1873.34,949.482 1873.68,963.482 1873.5,977.5C 1869.8,977.276 1866.13,977.11 1862.5,977C 1860.33,977.833 1858.83,979.333 1858,981.5C 1857.33,1001.66 1854.5,1021.49 1849.5,1041C 1849.17,1043.67 1850.17,1045.67 1852.5,1047C 1855.22,1047.27 1857.89,1047.77 1860.5,1048.5C 1861.22,1051.45 1861.06,1054.45 1860,1057.5C 1856.67,1067.49 1853.34,1077.49 1850,1087.5C 1849.44,1088.02 1848.77,1088.36 1848,1088.5C 1844.31,1086.78 1840.48,1086.28 1836.5,1087C 1832.1,1095.16 1828.27,1103.66 1825,1112.5C 1819.59,1122.99 1813.92,1133.33 1808,1143.5C 1806.92,1149.94 1809.76,1153.27 1816.5,1153.5C 1809.78,1166.56 1801.45,1178.56 1791.5,1189.5C 1789.64,1187.81 1787.64,1186.31 1785.5,1185C 1783.03,1184.29 1780.7,1184.63 1778.5,1186C 1765.78,1203.06 1751.28,1218.56 1735,1232.5C 1733.81,1234.04 1733.48,1235.71 1734,1237.5C 1735.98,1239.76 1738.15,1241.93 1740.5,1244C 1729.85,1254.69 1718.18,1263.69 1705.5,1271C 1703.36,1266.1 1699.69,1264.1 1694.5,1265C 1677.33,1277.76 1658.99,1288.76 1639.5,1298C 1635.72,1301.87 1635.72,1305.87 1639.5,1310C 1626.61,1317.61 1612.94,1323.28 1598.5,1327C 1597.26,1320.88 1593.59,1318.55 1587.5,1320C 1566.35,1327.61 1544.85,1333.77 1523,1338.5C 1521.1,1341.75 1521.27,1344.91 1523.5,1348C 1508.32,1351.26 1492.99,1353.43 1477.5,1354.5C 1478.8,1347.63 1475.97,1344.3 1469,1344.5C 1446.86,1346.58 1424.69,1347.08 1402.5,1346C 1399.87,1348.2 1398.87,1351.03 1399.5,1354.5C 1384.78,1353.31 1370.11,1351.65 1355.5,1349.5C 1356.13,1346.51 1356.3,1343.51 1356,1340.5C 1355.1,1339.3 1353.93,1338.47 1352.5,1338C 1330.06,1334.41 1308.23,1328.57 1287,1320.5C 1282.69,1320.81 1280.36,1323.14 1280,1327.5C 1279.44,1328.02 1278.77,1328.36 1278,1328.5C 1264.28,1323.88 1251.11,1318.21 1238.5,1311.5C 1242.17,1307.47 1242.17,1303.63 1238.5,1300C 1218.52,1291.02 1199.85,1280.02 1182.5,1267C 1177.85,1265.99 1174.51,1267.66 1172.5,1272C 1171.5,1272.67 1170.5,1272.67 1169.5,1272C 1158.21,1263.71 1147.21,1255.05 1136.5,1246C 1141.46,1244.06 1143.29,1240.56 1142,1235.5C 1125.43,1220.93 1110.26,1205.1 1096.5,1188C 1091.77,1187.04 1087.93,1188.54 1085,1192.5C 1075.86,1181.52 1067.69,1169.86 1060.5,1157.5C 1063.09,1155.96 1065.59,1154.29 1068,1152.5C 1068.67,1150.5 1068.67,1148.5 1068,1146.5C 1056.89,1129.62 1047.89,1111.62 1041,1092.5C 1037.23,1088.91 1033.06,1088.57 1028.5,1091.5C 1027.83,1091.17 1027.17,1090.83 1026.5,1090.5C 1021.69,1077.74 1017.69,1064.74 1014.5,1051.5C 1020.77,1052.88 1024.43,1050.55 1025.5,1044.5C 1020.33,1024.82 1017.16,1004.82 1016,984.5C 1015.5,982.667 1014.33,981.5 1012.5,981C 1009.18,980.502 1005.85,980.335 1002.5,980.5C 1002.5,966.833 1002.5,953.167 1002.5,939.5C 1006.18,939.665 1009.85,939.499 1013.5,939C 1014.7,938.097 1015.53,936.931 1016,935.5C 1016.93,914.98 1020.1,894.813 1025.5,875C 1025.36,872.849 1024.36,871.182 1022.5,870C 1019.83,869.433 1017.17,868.933 1014.5,868.5C 1017.01,855.137 1020.84,842.137 1026,829.5C 1026.56,828.978 1027.23,828.645 1028,828.5C 1032.25,831.046 1036.42,831.046 1040.5,828.5C 1047.56,809.051 1056.72,790.718 1068,773.5C 1068.67,771.5 1068.67,769.5 1068,767.5C 1065.31,765.818 1062.48,764.318 1059.5,763C 1067.22,750.609 1075.72,738.775 1085,727.5C 1088.15,732.159 1092.31,733.492 1097.5,731.5C 1110.74,714.42 1125.58,698.754 1142,684.5C 1142.67,682.5 1142.67,680.5 1142,678.5C 1140.07,677.12 1138.24,675.62 1136.5,674C 1147.36,663.992 1158.86,654.825 1171,646.5C 1173.23,651.766 1177.06,653.933 1182.5,653C 1199.86,640.007 1218.53,629.007 1238.5,620C 1242.4,615.998 1242.06,612.165 1237.5,608.5C 1250.72,601.729 1264.39,595.729 1278.5,590.5C 1279.66,593.642 1281.32,596.475 1283.5,599C 1285.5,599.667 1287.5,599.667 1289.5,599C 1310.02,591.563 1331.02,585.896 1352.5,582C 1356.88,579.294 1357.55,575.794 1354.5,571.5C 1368.25,567.971 1382.25,565.971 1396.5,565.5 Z"/></g>
<g><path style="opacity:1" fill="#86971c" d="M 1396.5,565.5 C 1397.57,564.566 1398.9,564.232 1400.5,564.5C 1400.5,566.833 1400.5,569.167 1400.5,571.5C 1399.54,569.735 1399.21,567.735 1399.5,565.5C 1398.5,565.5 1397.5,565.5 1396.5,565.5 Z"/></g>
<g><path style="opacity:1" fill="#176b3f" d="M 1811.5,567.5 C 1827.08,581.907 1842.58,596.573 1858,611.5C 1859.92,613.691 1861.25,616.024 1862,618.5C 1849.15,608.406 1836.48,598.073 1824,587.5C 1818.56,581.618 1814.39,574.951 1811.5,567.5 Z"/></g>
<g><path style="opacity:1" fill="#176b3f" d="M 1066.5,567.5 C 1067.04,567.56 1067.38,567.893 1067.5,568.5C 1064.32,575.51 1060.15,581.844 1055,587.5C 1042.52,598.073 1029.85,608.406 1017,618.5C 1017.75,616.024 1019.08,613.691 1021,611.5C 1032.98,598.619 1045.81,586.786 1059.5,576C 1062.42,573.584 1064.76,570.75 1066.5,567.5 Z"/></g>
<g><path style="opacity:1" fill="#00592e" d="M 1100.5,569.5 C 1103.3,571.617 1103.13,573.617 1100,575.5C 1098.58,581.44 1100.75,585.607 1106.5,588C 1100.77,589.517 1095.11,590.85 1089.5,592C 1094.11,584.949 1097.78,577.449 1100.5,569.5 Z"/></g>
<g><path style="opacity:1" fill="#00572d" d="M 1777.5,569.5 C 1781.06,577.113 1785.06,584.613 1789.5,592C 1783.8,591.158 1778.13,589.825 1772.5,588C 1780.07,584.385 1781.41,579.218 1776.5,572.5C 1777.13,571.583 1777.46,570.583 1777.5,569.5 Z"/></g>
<g><path style="opacity:1" fill="#fbfbfb" d="M 1132.5,585.5 C 1135.78,585.216 1138.94,585.549 1142,586.5C 1142.67,589.167 1142.67,591.833 1142,594.5C 1135.49,608.346 1126.66,620.513 1115.5,631C 1082.45,658.854 1044.45,676.52 1001.5,684C 993.254,684.815 985.088,684.648 977,683.5C 976.978,679.634 977.978,675.967 980,672.5C 1001.44,642.064 1029.61,620.231 1064.5,607C 1080.9,601.4 1097.57,596.733 1114.5,593C 1120.93,591.275 1126.93,588.775 1132.5,585.5 Z"/></g>
<g><path style="opacity:1" fill="#fbfbfb" d="M 1737.5,585.5 C 1745.41,585.525 1752.75,587.691 1759.5,592C 1782.45,596.646 1804.79,603.312 1826.5,612C 1854.73,625.367 1878.23,644.533 1897,669.5C 1899.93,673.366 1901.77,677.699 1902.5,682.5C 1901.97,683.192 1901.31,683.692 1900.5,684C 1884.48,685.68 1868.81,684.013 1853.5,679C 1823.4,670.616 1796.06,656.949 1771.5,638C 1757.36,626.53 1746.19,612.697 1738,596.5C 1736.35,592.843 1736.19,589.177 1737.5,585.5 Z"/></g>
<g><path style="opacity:1" fill="#076332" d="M 1648.5,596.5 C 1653.19,596.841 1657.53,598.341 1661.5,601C 1674.91,608.456 1688.08,616.289 1701,624.5C 1700.65,632.235 1697.48,638.735 1691.5,644C 1689.83,644.667 1688.17,644.667 1686.5,644C 1670.91,633.617 1654.74,624.117 1638,615.5C 1637.33,613.833 1637.33,612.167 1638,610.5C 1641.33,605.673 1644.83,601.007 1648.5,596.5 Z"/></g>
<g><path style="opacity:1" fill="#076332" d="M 1216.5,598.5 C 1219.68,598.503 1222.51,599.503 1225,601.5C 1227.42,605.344 1230.09,609.01 1233,612.5C 1233.67,613.833 1233.67,615.167 1233,616.5C 1217.31,624.872 1202.14,634.039 1187.5,644C 1185.09,645.885 1182.42,646.552 1179.5,646C 1175.64,641.771 1172.14,637.271 1169,632.5C 1168.33,630.833 1168.33,629.167 1169,627.5C 1184.21,616.779 1200.05,607.113 1216.5,598.5 Z"/></g>
<g><path style="opacity:1" fill="#166a3e" d="M 1109.5,610.5 C 1111.38,610.393 1111.71,610.893 1110.5,612C 1105.66,614.921 1100.66,617.588 1095.5,620C 1066.32,630.756 1038.66,644.422 1012.5,661C 1009.2,663.295 1006.2,665.962 1003.5,669C 1002.83,669.667 1002.17,669.667 1001.5,669C 1015.77,651.402 1033.43,638.402 1054.5,630C 1069.73,624.693 1085.06,619.693 1100.5,615C 1103.82,613.96 1106.82,612.46 1109.5,610.5 Z"/></g>
<g><path style="opacity:1" fill="#13693c" d="M 1767.5,611.5 C 1784.09,617.09 1801.09,622.59 1818.5,628C 1842.15,635.988 1861.82,649.655 1877.5,669C 1868.03,661.905 1858.03,655.238 1847.5,649C 1820.73,636.583 1794.06,624.083 1767.5,611.5 Z"/></g>
<g><path style="opacity:1" fill="#fbfbfb" d="M 961.5,622.5 C 963.371,622.859 964.871,623.859 966,625.5C 972.118,639.194 974.118,653.527 972,668.5C 968.399,694.351 957.732,716.685 940,735.5C 931.944,751.22 921.278,764.887 908,776.5C 904.827,769.148 902.993,761.481 902.5,753.5C 903.674,745.495 904.507,737.495 905,729.5C 903.728,726.778 901.561,725.444 898.5,725.5C 898.456,709.345 902.622,694.345 911,680.5C 915.615,673.55 920.615,666.884 926,660.5C 939.45,649.221 951.283,636.554 961.5,622.5 Z"/></g>
<g><path style="opacity:1" fill="#fbfbfb" d="M 1914.5,623.5 C 1917.78,623.269 1920.28,624.603 1922,627.5C 1923.08,629.996 1924.41,632.33 1926,634.5C 1937.09,645.517 1948.09,656.517 1959,667.5C 1972.79,684.359 1979.95,703.693 1980.5,725.5C 1977.68,725.081 1975.51,726.081 1974,728.5C 1974.33,736.848 1975.17,745.182 1976.5,753.5C 1976.01,761.481 1974.17,769.148 1971,776.5C 1957.72,764.887 1947.06,751.22 1939,735.5C 1910.9,705.094 1901.57,669.761 1911,629.5C 1911.93,627.308 1913.09,625.308 1914.5,623.5 Z"/></g>
<g><path style="opacity:1" fill="#f8fbf9" d="M 1529.5,672.5 C 1529.51,684.69 1530.18,696.69 1531.5,708.5C 1532.21,723.485 1532.71,738.485 1533,753.5C 1535.64,758.641 1539.47,762.641 1544.5,765.5C 1544.83,765.167 1545.17,764.833 1545.5,764.5C 1540.03,753.644 1538.53,742.31 1541,730.5C 1545.83,722.326 1553,717.493 1562.5,716C 1570.28,715.873 1577.95,716.873 1585.5,719C 1606.64,726.823 1628.31,732.823 1650.5,737C 1654.74,737.885 1656.57,740.385 1656,744.5C 1654.62,746.754 1653.12,748.92 1651.5,751C 1633.02,758.239 1615.02,766.572 1597.5,776C 1589.15,780.118 1580.48,783.452 1571.5,786C 1566.18,786.499 1560.84,786.666 1555.5,786.5C 1555.5,790.167 1555.5,793.833 1555.5,797.5C 1554.5,797.5 1553.5,797.5 1552.5,797.5C 1551.99,793.447 1551.15,789.447 1550,785.5C 1539.18,780.347 1530.51,772.68 1524,762.5C 1523.37,729.415 1521.71,696.415 1519,663.5C 1522.38,659.783 1525.38,655.783 1528,651.5C 1529,658.467 1529.5,665.467 1529.5,672.5 Z"/></g>
<g><path style="opacity:1" fill="#12683b" d="M 956.5,648.5 C 957.147,649.274 957.48,650.274 957.5,651.5C 955.438,661.853 952.271,671.853 948,681.5C 939.174,698.49 929.84,715.157 920,731.5C 916.506,737.488 913.839,743.821 912,750.5C 911.464,737.97 913.798,725.97 919,714.5C 922.333,708.5 925.667,702.5 929,696.5C 936.913,685.675 944.58,674.675 952,663.5C 954.587,658.818 956.087,653.818 956.5,648.5 Z"/></g>
<g><path style="opacity:1" fill="#12683b" d="M 1921.5,648.5 C 1922.86,653.553 1924.69,658.553 1927,663.5C 1938.41,679.321 1949.08,695.654 1959,712.5C 1964.84,724.525 1967.51,737.192 1967,750.5C 1965.16,743.821 1962.49,737.488 1959,731.5C 1949.16,715.157 1939.83,698.49 1931,681.5C 1926.1,670.978 1922.94,659.978 1921.5,648.5 Z"/></g>
<g><path style="opacity:1" fill="#056332" d="M 1750.5,666.5 C 1752.99,666.298 1755.32,666.798 1757.5,668C 1769.7,679.862 1781.53,692.029 1793,704.5C 1793.67,706.833 1793.67,709.167 1793,711.5C 1788.64,716.165 1783.64,719.832 1778,722.5C 1776.77,722.355 1775.61,722.022 1774.5,721.5C 1763.22,707.385 1750.72,694.385 1737,682.5C 1736.33,681.167 1736.33,679.833 1737,678.5C 1741.69,674.635 1746.19,670.635 1750.5,666.5 Z"/></g>
<g><path style="opacity:1" fill="#056332" d="M 1114.5,669.5 C 1117.27,669.421 1119.94,669.921 1122.5,671C 1126.33,674.167 1130.17,677.333 1134,680.5C 1134.67,682.167 1134.67,683.833 1134,685.5C 1120.43,697.071 1108.26,709.904 1097.5,724C 1095.64,725.301 1093.64,725.635 1091.5,725C 1087.09,721.379 1082.59,717.879 1078,714.5C 1077.33,712.5 1077.33,710.5 1078,708.5C 1089.64,695.027 1101.81,682.027 1114.5,669.5 Z"/></g>
<g><path style="opacity:1" fill="#fafbfb" d="M 1033.5,682.5 C 1036.74,696.649 1034.58,710.315 1027,723.5C 1015.21,741.623 1000.38,756.79 982.5,769C 963.824,781.342 944.491,792.676 924.5,803C 923.207,803.49 921.873,803.657 920.5,803.5C 925.79,769.41 941.123,740.91 966.5,718C 982.714,706.728 1000.38,698.395 1019.5,693C 1024.41,689.723 1029.08,686.223 1033.5,682.5 Z"/></g>
<g><path style="opacity:1" fill="#fafbfa" d="M 1843.5,682.5 C 1849.6,686.083 1855.6,689.917 1861.5,694C 1885.41,700.198 1906.24,711.698 1924,728.5C 1942.51,750.189 1954.01,775.189 1958.5,803.5C 1929.52,791.175 1902.85,775.009 1878.5,755C 1866.38,744.222 1856.55,731.722 1849,717.5C 1844.12,706.234 1842.29,694.567 1843.5,682.5 Z"/></g>
<g><path style="opacity:1" fill="#bfd8cc" d="M 1529.5,672.5 C 1530.89,684.307 1531.56,696.307 1531.5,708.5C 1530.18,696.69 1529.51,684.69 1529.5,672.5 Z"/></g>
<g><path style="opacity:1" fill="#005b2f" d="M 1004.5,689.5 C 1005.87,689.343 1007.21,689.51 1008.5,690C 994.084,694.717 980.417,700.717 967.5,708C 969.965,701.91 972.798,696.077 976,690.5C 985.681,691.82 995.181,691.487 1004.5,689.5 Z"/></g>
<g><path style="opacity:1" fill="#005b2f" d="M 1870.5,690.5 C 1870.92,689.876 1871.58,689.543 1872.5,689.5C 1883.16,691.244 1893.83,691.911 1904.5,691.5C 1906.55,697.14 1908.88,702.64 1911.5,708C 1898.68,700.601 1885.01,694.767 1870.5,690.5 Z"/></g>
<g><path style="opacity:1" fill="#f8fbfa" d="M 1273.5,697.5 C 1280.29,697.81 1284.46,701.144 1286,707.5C 1283.21,710.129 1280.04,712.129 1276.5,713.5C 1274.04,712.436 1271.71,711.102 1269.5,709.5C 1266.43,711.757 1263.26,713.757 1260,715.5C 1256.23,714.28 1252.9,712.28 1250,709.5C 1249.33,708.5 1249.33,707.5 1250,706.5C 1252.17,704.333 1254.33,702.167 1256.5,700C 1260.73,699.519 1264.23,701.019 1267,704.5C 1269.37,702.297 1271.54,699.963 1273.5,697.5 Z"/></g>
<g><path style="opacity:1" fill="#0f673a" d="M 1017.5,707.5 C 1018.1,707.735 1018.43,708.235 1018.5,709C 1015.44,717.07 1010.44,723.736 1003.5,729C 987.186,741.49 970.52,753.49 953.5,765C 946.242,770.256 940.409,776.756 936,784.5C 938.828,771.033 945.662,759.866 956.5,751C 972.333,740.247 988.666,730.247 1005.5,721C 1010.76,717.572 1014.76,713.072 1017.5,707.5 Z"/></g>
<g><path style="opacity:1" fill="#0f673a" d="M 1860.5,707.5 C 1863.93,712.764 1868.26,717.264 1873.5,721C 1890.33,730.247 1906.67,740.247 1922.5,751C 1933.34,759.866 1940.17,771.033 1943,784.5C 1938.59,776.756 1932.76,770.256 1925.5,765C 1909.17,753.333 1892.83,741.667 1876.5,730C 1873,726.5 1869.5,723 1866,719.5C 1863.34,715.856 1861.51,711.856 1860.5,707.5 Z"/></g>
<g><path style="opacity:1" fill="#fefefe" d="M 1683.5,709.5 C 1738.8,751.578 1777.3,806.244 1799,873.5C 1831.42,1005.03 1797.92,1116.53 1698.5,1208C 1613.75,1278.36 1516.09,1309.69 1405.5,1302C 1303.11,1292.72 1217.27,1250.55 1148,1175.5C 1072.89,1086.89 1050.22,986.221 1080,873.5C 1101.25,807.329 1139.09,753.162 1193.5,711C 1130.07,782.886 1107.9,866.053 1127,960.5C 1145.65,1033.45 1185.82,1091.29 1247.5,1134C 1326.91,1186.42 1413.58,1203.75 1507.5,1186C 1594.96,1168.06 1663.79,1122.56 1714,1049.5C 1760.76,973.819 1770.76,893.486 1744,808.5C 1730.87,770.944 1710.71,737.944 1683.5,709.5 Z"/></g>
<g><path style="opacity:1" fill="#f9fbfa" d="M 1406.5,739.5 C 1401.36,738.512 1396.03,738.179 1390.5,738.5C 1390.5,737.5 1390.5,736.5 1390.5,735.5C 1391.4,731.419 1393.4,727.919 1396.5,725C 1406.76,718.101 1418.09,714.935 1430.5,715.5C 1443.04,714.632 1454.37,717.799 1464.5,725C 1471.34,732.078 1470.34,738.078 1461.5,743C 1456.05,745.595 1450.38,747.595 1444.5,749C 1455.44,759.221 1467.61,761.055 1481,754.5C 1482.64,742.903 1486.64,732.237 1493,722.5C 1498.18,716.853 1503.85,716.186 1510,720.5C 1515.7,737.543 1511.53,751.71 1497.5,763C 1493.08,765.958 1488.58,768.792 1484,771.5C 1482.56,779.407 1481.39,779.407 1480.5,771.5C 1466.15,776.795 1452.82,774.962 1440.5,766C 1436.65,761.984 1432.65,758.151 1428.5,754.5C 1402.87,768.488 1375.54,776.821 1346.5,779.5C 1327.26,779.443 1309.59,774.276 1293.5,764C 1285.19,757.189 1278.52,749.023 1273.5,739.5C 1269.18,745.465 1265.35,751.798 1262,758.5C 1257.35,766.297 1251.85,773.464 1245.5,780C 1238,786.479 1231.16,785.979 1225,778.5C 1218,761.5 1215.67,743.833 1218,725.5C 1220.33,736.757 1222.67,748.091 1225,759.5C 1227.93,767.049 1233.1,769.216 1240.5,766C 1242.33,764.167 1244.17,762.333 1246,760.5C 1251.67,751.167 1257.33,741.833 1263,732.5C 1266.31,726.816 1271.14,724.316 1277.5,725C 1283.38,729.884 1288.21,735.717 1292,742.5C 1301.58,752.705 1313.41,758.205 1327.5,759C 1349.71,760.08 1371.71,758.414 1393.5,754C 1401.55,752.316 1409.22,749.649 1416.5,746C 1414.33,742.081 1411,739.914 1406.5,739.5 Z"/></g>
<g><path style="opacity:1" fill="#096537" d="M 1428.5,729.5 C 1435.24,728.228 1440.91,730.062 1445.5,735C 1441.51,736.108 1437.68,737.608 1434,739.5C 1430.03,738.015 1426.36,736.015 1423,733.5C 1422.31,732.668 1422.48,732.002 1423.5,731.5C 1425.34,730.972 1427,730.306 1428.5,729.5 Z"/></g>
<g><path style="opacity:1" fill="#026334" d="M 1557.5,728.5 C 1579.16,732.328 1600.16,738.495 1620.5,747C 1604.17,754 1587.83,761 1571.5,768C 1567.24,769.363 1562.91,769.696 1558.5,769C 1555.34,767.52 1553.5,765.02 1553,761.5C 1551.84,754.874 1551.01,748.208 1550.5,741.5C 1550.01,735.477 1552.34,731.143 1557.5,728.5 Z"/></g>
<g><path style="opacity:1" fill="#10683a" d="M 1499.5,731.5 C 1501.74,732.286 1502.74,733.952 1502.5,736.5C 1501.7,744.287 1497.7,748.621 1490.5,749.5C 1491.61,742.463 1494.61,736.463 1499.5,731.5 Z"/></g>
<g><path style="opacity:1" fill="#fbfbfb" d="M 896.5,732.5 C 897.497,732.47 898.164,732.97 898.5,734C 896.084,741.299 895.084,748.799 895.5,756.5C 896.235,775.858 897.235,795.191 898.5,814.5C 898.499,823.531 897.999,832.531 897,841.5C 883.876,860.868 875.876,882.202 873,905.5C 869.586,911.997 865.919,918.33 862,924.5C 843.53,892.563 836.53,858.23 841,821.5C 847.403,783.976 865.903,754.31 896.5,732.5 Z"/></g>
<g><path style="opacity:1" fill="#fbfbfb" d="M 1980.5,732.5 C 1996.05,741.217 2008.55,753.217 2018,768.5C 2042.52,810.309 2046.18,853.976 2029,899.5C 2025.79,908.26 2021.79,916.594 2017,924.5C 2013.08,918.33 2009.41,911.997 2006,905.5C 2003.12,882.202 1995.12,860.868 1982,841.5C 1980.94,833.044 1980.44,824.544 1980.5,816C 1980.97,796.964 1981.97,777.964 1983.5,759C 1983.93,749.978 1982.93,741.145 1980.5,732.5 Z"/></g>
<g><path style="opacity:1" fill="#a0c4b3" d="M 1390.5,735.5 C 1390.5,736.5 1390.5,737.5 1390.5,738.5C 1396.03,738.179 1401.36,738.512 1406.5,739.5C 1400.83,739.5 1395.17,739.5 1389.5,739.5C 1389.23,737.901 1389.57,736.568 1390.5,735.5 Z"/></g>
<g><path style="opacity:1" fill="#066332" d="M 1825.5,760.5 C 1829.95,759.617 1833.45,760.95 1836,764.5C 1843.27,778.042 1850.27,791.708 1857,805.5C 1858.29,809.582 1857.13,812.749 1853.5,815C 1849.42,816.471 1845.42,818.138 1841.5,820C 1838.36,821.041 1835.86,820.207 1834,817.5C 1828.05,801.571 1820.38,786.571 1811,772.5C 1810.08,769.692 1810.91,767.525 1813.5,766C 1817.81,764.628 1821.81,762.795 1825.5,760.5 Z"/></g>
<g><path style="opacity:1" fill="#076332" d="M 1040.5,763.5 C 1047.4,764.745 1054.07,766.912 1060.5,770C 1061.08,770.893 1061.41,771.893 1061.5,773C 1053.02,788.787 1045.19,804.953 1038,821.5C 1036.87,822.944 1035.37,823.61 1033.5,823.5C 1027.63,821.901 1021.97,819.735 1016.5,817C 1015.11,816.044 1014.44,814.711 1014.5,813C 1020.64,798.21 1027.48,783.71 1035,769.5C 1036.36,766.977 1038.19,764.977 1040.5,763.5 Z"/></g>
<g><path style="opacity:1" fill="#11683a" d="M 880.5,760.5 C 881.043,760.56 881.376,760.893 881.5,761.5C 878.718,768.623 876.551,775.956 875,783.5C 872.384,810.509 869.717,837.509 867,864.5C 865.447,873.713 863.113,882.713 860,891.5C 860.983,884.565 861.983,877.565 863,870.5C 863.081,845.805 863.748,821.138 865,796.5C 867.186,783.138 872.352,771.138 880.5,760.5 Z"/></g>
<g><path style="opacity:1" fill="#12683b" d="M 1996.5,758.5 C 2005.79,769.431 2011.63,782.097 2014,796.5C 2015.26,820.802 2015.93,845.135 2016,869.5C 2016.89,876.915 2017.89,884.249 2019,891.5C 2015.5,882.829 2013.16,873.829 2012,864.5C 2009.29,837.507 2006.62,810.507 2004,783.5C 2002.56,774.806 2000.06,766.473 1996.5,758.5 Z"/></g>
<g><path style="opacity:1" fill="#f3f7f5" d="M 1617.5,768.5 C 1630.31,773.086 1630.65,778.42 1618.5,784.5C 1615.01,782.107 1612.01,779.274 1609.5,776C 1611.95,773.274 1614.61,770.774 1617.5,768.5 Z"/></g>
<g><path style="opacity:1" fill="#005e31" d="M 918.5,776.5 C 919.043,776.56 919.376,776.893 919.5,777.5C 915.666,786.502 913.833,795.836 914,805.5C 914.785,807.286 915.951,808.786 917.5,810C 920.877,810.369 924.21,810.369 927.5,810C 919.372,815.794 912.205,822.627 906,830.5C 905.675,814.822 905.175,799.156 904.5,783.5C 910.524,783.794 915.191,781.461 918.5,776.5 Z"/></g>
<g><path style="opacity:1" fill="#005e30" d="M 1958.5,774.5 C 1960.64,777.472 1963.31,779.972 1966.5,782C 1969.01,783.252 1971.68,783.752 1974.5,783.5C 1973.76,799.15 1973.26,814.816 1973,830.5C 1966.79,822.627 1959.63,815.794 1951.5,810C 1963.61,811.876 1968.11,806.709 1965,794.5C 1963.14,787.713 1960.97,781.046 1958.5,774.5 Z"/></g>
<g><path style="opacity:1" fill="#fbfcfb" d="M 1443.5,786.5 C 1447.53,796.88 1453.36,806.213 1461,814.5C 1462.92,818.805 1462.92,823.138 1461,827.5C 1458.35,831.311 1455.85,835.145 1453.5,839C 1456.53,862.399 1458.36,885.899 1459,909.5C 1459.97,941.497 1460.31,973.497 1460,1005.5C 1457.94,1012.46 1453.44,1017.13 1446.5,1019.5C 1445.03,956.44 1442.19,893.44 1438,830.5C 1434.14,823.543 1433.48,816.209 1436,808.5C 1438.79,801.251 1441.29,793.918 1443.5,786.5 Z"/></g>
<g><path style="opacity:1" fill="#fafcfb" d="M 1644.5,787.5 C 1680.65,829.156 1702.82,877.489 1711,932.5C 1716.3,1030.17 1672.13,1092.67 1578.5,1120C 1551.59,1126.97 1524.25,1129.63 1496.5,1128C 1533.29,1118.4 1569.29,1106.4 1604.5,1092C 1690.58,1055.16 1717.91,992.496 1686.5,904C 1677.31,880.777 1666.14,858.61 1653,837.5C 1665.72,901.618 1669.05,966.285 1663,1031.5C 1662.44,1035.17 1661.11,1038.51 1659,1041.5C 1644.31,1059.43 1625.48,1067.27 1602.5,1065C 1591.42,1060.25 1583.25,1052.42 1578,1041.5C 1576,1035.5 1574,1029.5 1572,1023.5C 1557.21,1044.63 1539.37,1062.79 1518.5,1078C 1504.85,1087.16 1489.85,1090.83 1473.5,1089C 1466.2,1086.35 1460.04,1082.18 1455,1076.5C 1444.68,1080.04 1434.18,1082.87 1423.5,1085C 1403.2,1111.07 1376.37,1124.57 1343,1125.5C 1319.25,1124.96 1299.92,1115.62 1285,1097.5C 1277.94,1086.92 1274.1,1075.26 1273.5,1062.5C 1257.31,1076.51 1238.65,1082.34 1217.5,1080C 1189.17,1072.51 1177.67,1054.35 1183,1025.5C 1186.5,1014.16 1191.83,1003.83 1199,994.5C 1197.17,1001.7 1195.5,1009.03 1194,1016.5C 1190.3,1046.47 1203.47,1060.63 1233.5,1059C 1249.52,1056.4 1263.69,1049.9 1276,1039.5C 1279.45,1026.15 1284.28,1013.31 1290.5,1001C 1286.46,994.432 1282.3,987.932 1278,981.5C 1277.33,978.833 1277.33,976.167 1278,973.5C 1279.83,969.167 1281.67,964.833 1283.5,960.5C 1284.17,959.167 1284.83,959.167 1285.5,960.5C 1290.42,968.258 1295.92,975.591 1302,982.5C 1308.89,971.888 1316.39,961.722 1324.5,952C 1312.74,941.894 1299.41,939.061 1284.5,943.5C 1288.04,932.457 1295.04,924.29 1305.5,919C 1329.41,907.418 1354.07,905.418 1379.5,913C 1385.95,915.778 1390.28,920.445 1392.5,927C 1391.54,931.247 1389.54,934.913 1386.5,938C 1377.98,943.761 1368.98,948.761 1359.5,953C 1377.4,954.589 1393.56,950.089 1408,939.5C 1407.55,904.385 1405.22,869.385 1401,834.5C 1397.33,828.137 1396.66,821.471 1399,814.5C 1401.27,807.014 1403.94,799.68 1407,792.5C 1408.79,797.414 1411.12,802.081 1414,806.5C 1419.39,811.956 1423.22,818.29 1425.5,825.5C 1424.22,831.388 1421.39,836.388 1417,840.5C 1418.26,857.472 1419.6,874.472 1421,891.5C 1421.67,907.5 1421.67,923.5 1421,939.5C 1409.34,960.502 1391.67,973.169 1368,977.5C 1357.27,974.968 1347.6,970.302 1339,963.5C 1328.78,969.868 1319.61,977.534 1311.5,986.5C 1316.3,988.451 1321.3,989.618 1326.5,990C 1339.83,990.667 1353.17,990.667 1366.5,990C 1367.87,987.417 1369.37,984.917 1371,982.5C 1371.25,984.931 1370.75,987.265 1369.5,989.5C 1380.84,990.641 1392.17,991.808 1403.5,993C 1421.56,995.412 1433.06,1005.24 1438,1022.5C 1439.14,1035.98 1438.3,1049.31 1435.5,1062.5C 1440.5,1061.17 1445.5,1059.83 1450.5,1058.5C 1450.13,1040.1 1455.3,1023.43 1466,1008.5C 1463.45,1019.28 1461.95,1030.28 1461.5,1041.5C 1461.37,1045.34 1462.03,1049 1463.5,1052.5C 1480.59,1043.88 1496.75,1033.88 1512,1022.5C 1512.5,1015.51 1512.67,1008.51 1512.5,1001.5C 1484.77,997.078 1470.77,980.745 1470.5,952.5C 1471.32,933.366 1478.32,916.866 1491.5,903C 1492.17,902.333 1492.83,902.333 1493.5,903C 1485.57,919.63 1482.41,937.13 1484,955.5C 1487.39,970.06 1496.56,977.394 1511.5,977.5C 1510.36,930.401 1507.53,883.401 1503,836.5C 1500.27,832.266 1498.77,827.599 1498.5,822.5C 1500.61,811.996 1503.44,801.663 1507,791.5C 1511.7,802.207 1518.03,811.873 1526,820.5C 1528.02,828.824 1525.69,835.824 1519,841.5C 1520.27,862.472 1521.61,883.472 1523,904.5C 1523.89,928.826 1524.39,953.16 1524.5,977.5C 1535.37,975.266 1545.87,971.932 1556,967.5C 1551.82,952.943 1546.32,938.776 1539.5,925C 1543.03,918.767 1546.7,912.6 1550.5,906.5C 1560.18,922.855 1568.51,939.855 1575.5,957.5C 1588.82,950.421 1600.32,941.088 1610,929.5C 1611.96,926.415 1613.79,923.248 1615.5,920C 1603.79,919.888 1592.12,919.221 1580.5,918C 1573.13,916.903 1567.29,913.403 1563,907.5C 1563.79,889.792 1572.29,876.959 1588.5,869C 1596.78,867.537 1603.94,869.704 1610,875.5C 1623.15,892.112 1627.82,910.779 1624,931.5C 1613.38,949.785 1599.05,964.452 1581,975.5C 1583.31,990.726 1584.98,1006.06 1586,1021.5C 1599.29,1045.37 1618.12,1050.87 1642.5,1038C 1645.67,1035.5 1648.83,1033 1652,1030.5C 1652.58,1001.75 1651.25,973.086 1648,944.5C 1642.42,899.512 1636.92,854.512 1631.5,809.5C 1631.67,807.833 1631.83,806.167 1632,804.5C 1636.38,798.956 1640.55,793.289 1644.5,787.5 Z"/></g>
<g><path style="opacity:1" fill="#fbfbfb" d="M 960.5,798.5 C 962.167,798.5 963.833,798.5 965.5,798.5C 967.028,818.75 962.861,837.75 953,855.5C 938.007,880.171 920.34,902.837 900,923.5C 894.716,931.119 889.049,938.452 883,945.5C 874.019,887.98 893.186,842.48 940.5,809C 947.102,805.201 953.768,801.701 960.5,798.5 Z"/></g>
<g><path style="opacity:1" fill="#fbfbfb" d="M 1913.5,798.5 C 1919.19,799.231 1924.53,801.064 1929.5,804C 1972.57,828.788 1995.57,866.122 1998.5,916C 1998.51,925.91 1997.67,935.744 1996,945.5C 1979.75,924.582 1962.75,904.249 1945,884.5C 1931.32,867.135 1921.32,847.801 1915,826.5C 1913.72,817.212 1913.22,807.879 1913.5,798.5 Z"/></g>
<g><path style="opacity:1" fill="#f9fbfa" d="M 1194.5,799.5 C 1196.78,799.608 1198.78,800.441 1200.5,802C 1204.39,804.732 1207.73,807.899 1210.5,811.5C 1207.07,816.421 1202.57,820.088 1197,822.5C 1191.62,820.124 1187.12,816.624 1183.5,812C 1186.99,807.677 1190.66,803.51 1194.5,799.5 Z"/></g>
<g><path style="opacity:1" fill="#fafcfb" d="M 1375.5,823.5 C 1388.76,841.191 1387.43,857.691 1371.5,873C 1359.97,881.083 1348.31,881.416 1336.5,874C 1333.73,871.617 1331.56,868.783 1330,865.5C 1327.63,862.068 1324.97,861.735 1322,864.5C 1315.88,874.59 1308.04,883.09 1298.5,890C 1288.27,894.929 1278.27,894.596 1268.5,889C 1263.95,884.123 1259.79,878.956 1256,873.5C 1247.11,864.409 1237.27,863.243 1226.5,870C 1219.67,874.167 1214.17,879.667 1210,886.5C 1205.53,896.779 1200.53,906.779 1195,916.5C 1180.33,933.999 1168.66,931.999 1160,910.5C 1152.88,891.473 1151.72,872.14 1156.5,852.5C 1158.38,863.118 1160.21,873.785 1162,884.5C 1163.56,893.79 1167.4,901.957 1173.5,909C 1178.73,911.71 1182.9,910.543 1186,905.5C 1193.58,891.333 1201.91,877.667 1211,864.5C 1217.73,856.098 1225.89,849.598 1235.5,845C 1240.83,843 1246.17,843 1251.5,845C 1255.38,850.585 1258.88,856.418 1262,862.5C 1269.22,870.182 1278.05,873.016 1288.5,871C 1295.06,870.036 1301.06,867.703 1306.5,864C 1315.09,857.417 1322.25,849.584 1328,840.5C 1330.03,837.141 1332.37,836.808 1335,839.5C 1337.17,849.671 1343.01,856.838 1352.5,861C 1360.05,861.987 1366.55,859.82 1372,854.5C 1372.73,849.061 1370.89,844.727 1366.5,841.5C 1369.56,835.466 1372.56,829.466 1375.5,823.5 Z"/></g>
<g><path style="opacity:1" fill="#12683b" d="M 948.5,822.5 C 949.435,829.793 947.935,836.793 944,843.5C 930.435,863.067 916.102,882.067 901,900.5C 895.893,907.712 891.56,915.379 888,923.5C 889.242,911.775 892.908,900.775 899,890.5C 903.755,883.324 908.755,876.324 914,869.5C 923,859.167 932,848.833 941,838.5C 944.315,833.537 946.815,828.204 948.5,822.5 Z"/></g>
<g><path style="opacity:1" fill="#11683b" d="M 1929.5,822.5 C 1931.6,828.131 1934.43,833.464 1938,838.5C 1947,848.833 1956,859.167 1965,869.5C 1974.96,881.082 1982.63,894.082 1988,908.5C 1990.04,913.345 1991.04,918.345 1991,923.5C 1987.86,916.544 1984.19,909.877 1980,903.5C 1965.62,885.451 1951.62,867.118 1938,848.5C 1932.66,840.656 1929.83,831.99 1929.5,822.5 Z"/></g>
<g><path style="opacity:1" fill="#f8fbfa" d="M 1199.5,827.5 C 1200.55,827.351 1201.55,827.517 1202.5,828C 1207.25,831.373 1211.58,835.206 1215.5,839.5C 1211.56,844.132 1206.89,847.799 1201.5,850.5C 1196.31,847.733 1191.64,844.233 1187.5,840C 1191.28,835.614 1195.28,831.447 1199.5,827.5 Z"/></g>
<g><path style="opacity:1" fill="#086332" d="M 1864.5,869.5 C 1868.85,869.334 1873.18,869.501 1877.5,870C 1878.21,871.255 1879.04,872.421 1880,873.5C 1883.06,888.569 1885.56,903.736 1887.5,919C 1888.32,923.852 1886.32,926.852 1881.5,928C 1877,928.5 1872.5,929 1868,929.5C 1866.02,929.371 1864.35,928.704 1863,927.5C 1861.43,909.875 1858.26,892.541 1853.5,875.5C 1853.53,873.971 1854.2,872.804 1855.5,872C 1858.58,871.027 1861.58,870.194 1864.5,869.5 Z"/></g>
<g><path style="opacity:1" fill="#0a6332" d="M 998.5,872.5 C 1004.48,873.395 1010.48,874.229 1016.5,875C 1018.65,875.479 1019.65,876.812 1019.5,879C 1014.88,895.865 1012.04,913.031 1011,930.5C 1009.84,932.665 1008.01,933.665 1005.5,933.5C 999.821,932.749 994.155,931.915 988.5,931C 986.848,929.53 985.848,927.697 985.5,925.5C 987.172,908.629 990.005,891.962 994,875.5C 995.652,874.601 997.152,873.601 998.5,872.5 Z"/></g>
<g><path style="opacity:1" fill="#f8faf9" d="M 1383.5,877.5 C 1385.2,877.34 1386.87,877.506 1388.5,878C 1391.88,881.047 1394.88,884.38 1397.5,888C 1394.04,891.993 1389.87,895.16 1385,897.5C 1380.7,894.365 1376.86,890.699 1373.5,886.5C 1376.85,883.478 1380.19,880.478 1383.5,877.5 Z"/></g>
<g><path style="opacity:1" fill="#0b6638" d="M 1582.5,887.5 C 1589.88,886.532 1595.88,888.865 1600.5,894.5C 1599.53,896.636 1597.86,897.803 1595.5,898C 1591.17,898.667 1586.83,898.667 1582.5,898C 1580.52,897.519 1579.19,896.353 1578.5,894.5C 1579.07,891.687 1580.4,889.354 1582.5,887.5 Z"/></g>
<g><path style="opacity:1" fill="#fafbfb" d="M 806.5,894.5 C 829.18,903.336 847.68,917.669 862,937.5C 868.089,946.005 873.422,955.005 878,964.5C 878.667,966.167 878.667,967.833 878,969.5C 870.993,990.625 868.66,1012.29 871,1034.5C 872.042,1049.72 875.376,1064.38 881,1078.5C 882.667,1080.63 884.834,1081.96 887.5,1082.5C 886.272,1088.95 883.939,1094.95 880.5,1100.5C 871.152,1088.5 861.319,1076.84 851,1065.5C 837.525,1045.43 828.525,1023.43 824,999.5C 820.338,972.87 817.005,946.204 814,919.5C 812.195,910.922 809.695,902.589 806.5,894.5 Z"/></g>
<g><path style="opacity:1" fill="#fafbfa" d="M 2069.5,894.5 C 2070.5,894.5 2071.5,894.5 2072.5,894.5C 2070.35,900.802 2068.19,907.135 2066,913.5C 2062.41,943.887 2058.41,974.221 2054,1004.5C 2049.4,1026.66 2040.73,1046.99 2028,1065.5C 2017.75,1076.42 2008.25,1087.92 1999.5,1100C 1998.55,1100.62 1997.72,1100.45 1997,1099.5C 1994.6,1093.65 1992.77,1087.65 1991.5,1081.5C 1995.09,1081.46 1997.59,1079.79 1999,1076.5C 2007.43,1051.51 2010.43,1025.84 2008,999.5C 2006.12,987.657 2003.79,975.99 2001,964.5C 2015.66,933.011 2038.49,909.677 2069.5,894.5 Z"/></g>
<g><path style="opacity:1" fill="#fafbfb" d="M 904.5,1009.5 C 908.897,988.247 914.397,967.247 921,946.5C 924.152,939.204 927.486,932.204 931,925.5C 916.621,941.926 907.288,960.926 903,982.5C 900.799,992.738 899.299,1003.07 898.5,1013.5C 897.069,1014.78 896.402,1016.45 896.5,1018.5C 895.909,1023.94 894.909,1029.44 893.5,1035C 893.944,1036.76 894.444,1036.6 895,1034.5C 895.494,1036.13 895.66,1037.8 895.5,1039.5C 895.377,1049.99 894.21,1060.32 892,1070.5C 890.649,1072.02 889.149,1073.35 887.5,1074.5C 867.636,1020.02 875.802,970.358 912,925.5C 923.013,913.652 935.846,904.319 950.5,897.5C 950.833,898 951.167,898.5 951.5,899C 949.063,904.644 947.23,910.477 946,916.5C 943.773,939.225 941.106,961.891 938,984.5C 935.01,997.804 931.01,1010.8 926,1023.5C 925.577,1024.96 924.744,1025.46 923.5,1025C 918.833,1020.33 914.167,1015.67 909.5,1011C 907.975,1009.99 906.308,1009.49 904.5,1009.5 Z"/></g>
<g><path style="opacity:1" fill="#f9fbfa" d="M 1265.5,898.5 C 1267.2,898.34 1268.87,898.506 1270.5,899C 1274.98,902.224 1278.98,905.89 1282.5,910C 1278.86,913.966 1274.86,917.632 1270.5,921C 1269.5,921.667 1268.5,921.667 1267.5,921C 1264.31,918.308 1260.97,915.808 1257.5,913.5C 1252.8,917.373 1247.96,921.039 1243,924.5C 1238.68,921.515 1234.34,918.515 1230,915.5C 1229.33,914.167 1229.33,912.833 1230,911.5C 1233.2,907.964 1236.7,904.797 1240.5,902C 1241.83,901.333 1243.17,901.333 1244.5,902C 1247.67,904.5 1250.83,907 1254,909.5C 1258.34,906.331 1262.17,902.664 1265.5,898.5 Z"/></g>
<g><path style="opacity:1" fill="#fbfbfb" d="M 1983.5,1041.5 C 1983.34,1039.14 1983.5,1036.81 1984,1034.5C 1984.56,1036.6 1985.06,1036.76 1985.5,1035C 1984.14,1030.11 1983.14,1025.28 1982.5,1020.5C 1982.83,1017.77 1982.16,1015.44 1980.5,1013.5C 1979.12,989.187 1972.95,966.187 1962,944.5C 1958.98,939.121 1955.48,934.121 1951.5,929.5C 1942.88,919.061 1942.55,919.395 1950.5,930.5C 1955.15,939.466 1958.98,948.799 1962,958.5C 1966.64,975.407 1970.81,992.407 1974.5,1009.5C 1972.69,1009.49 1971.02,1009.99 1969.5,1011C 1964.83,1015.67 1960.17,1020.33 1955.5,1025C 1954.26,1025.46 1953.42,1024.96 1953,1023.5C 1947.92,1010.84 1943.92,997.843 1941,984.5C 1937.97,961.877 1935.31,939.21 1933,916.5C 1931.3,910.074 1929.63,903.74 1928,897.5C 1952.42,908.588 1971.09,925.921 1984,949.5C 2002.37,983.748 2006.7,1019.75 1997,1057.5C 1995.58,1063.43 1993.58,1069.09 1991,1074.5C 1988.23,1072.4 1986.23,1069.73 1985,1066.5C 1984.52,1058.16 1984.02,1049.83 1983.5,1041.5 Z"/></g>
<g><path style="opacity:1" fill="#00582e" d="M 871.5,922.5 C 872.787,923.871 873.453,925.705 873.5,928C 874.26,932.827 874.426,937.66 874,942.5C 871.533,938.4 868.699,934.566 865.5,931C 868.381,928.721 870.381,925.888 871.5,922.5 Z"/></g>
<g><path style="opacity:1" fill="#00582d" d="M 2005.5,922.5 C 2008.25,925.089 2010.92,927.923 2013.5,931C 2010.3,934.566 2007.47,938.4 2005,942.5C 2004.95,935.844 2005.12,929.178 2005.5,922.5 Z"/></g>
<g><path style="opacity:1" fill="#679f82" d="M 1951.5,929.5 C 1950.83,929.5 1950.5,929.833 1950.5,930.5C 1942.55,919.395 1942.88,919.061 1951.5,929.5 Z"/></g>
<g><path style="opacity:1" fill="#076436" d="M 1342.5,928.5 C 1348.7,927.812 1354.36,929.145 1359.5,932.5C 1355.15,936.009 1350.65,939.342 1346,942.5C 1340.32,940.143 1335.15,936.976 1330.5,933C 1334.35,930.879 1338.35,929.379 1342.5,928.5 Z"/></g>
<g><path style="opacity:1" fill="#0f6739" d="M 834.5,926.5 C 850.077,944.017 858.577,964.684 860,988.5C 860.965,1004.5 861.965,1020.5 863,1036.5C 864.378,1044 866.045,1051.34 868,1058.5C 861.701,1047.61 857.367,1035.94 855,1023.5C 851.225,1001.85 847.558,980.184 844,958.5C 841.524,947.609 838.357,936.943 834.5,926.5 Z"/></g>
<g><path style="opacity:1" fill="#0e6739" d="M 2043.5,926.5 C 2044.04,926.56 2044.38,926.893 2044.5,927.5C 2040.52,937.581 2037.35,947.914 2035,958.5C 2031.59,980.208 2027.93,1001.87 2024,1023.5C 2021.63,1035.94 2017.3,1047.61 2011,1058.5C 2013.24,1051.41 2014.91,1044.07 2016,1036.5C 2016.72,1014.04 2018.72,991.708 2022,969.5C 2025.51,953.21 2032.67,938.876 2043.5,926.5 Z"/></g>
<g><path style="opacity:1" fill="#10673a" d="M 904.5,1009.5 C 902.51,1014.76 900.51,1020.09 898.5,1025.5C 897.566,1024.43 897.232,1023.1 897.5,1021.5C 897.833,1018.83 898.167,1016.17 898.5,1013.5C 899.299,1003.07 900.799,992.738 903,982.5C 907.288,960.926 916.621,941.926 931,925.5C 927.486,932.204 924.152,939.204 921,946.5C 914.397,967.247 908.897,988.247 904.5,1009.5 Z"/></g>
<g><path style="opacity:1" fill="#11673a" d="M 1951.5,929.5 C 1955.48,934.121 1958.98,939.121 1962,944.5C 1972.95,966.187 1979.12,989.187 1980.5,1013.5C 1980.57,1016.43 1981.23,1019.09 1982.5,1021.5C 1982.5,1024.17 1982.5,1026.83 1982.5,1029.5C 1979.27,1023.05 1976.61,1016.38 1974.5,1009.5C 1970.81,992.407 1966.64,975.407 1962,958.5C 1958.98,948.799 1955.15,939.466 1950.5,930.5C 1950.5,929.833 1950.83,929.5 1951.5,929.5 Z"/></g>
<g><path style="opacity:1" fill="#004a26" d="M 880.5,952.5 C 882.199,952.34 883.866,952.506 885.5,953C 883.518,958.886 881.851,958.719 880.5,952.5 Z"/></g>
<g><path style="opacity:1" fill="#004b27" d="M 1993.5,953.5 C 1998.74,951.941 1999.57,953.274 1996,957.5C 1995.39,955.934 1994.56,954.6 1993.5,953.5 Z"/></g>
<g><path style="opacity:1" fill="#076332" d="M 1864.5,983.5 C 1871.56,983.758 1878.56,984.591 1885.5,986C 1886.67,986.5 1887.5,987.333 1888,988.5C 1887.36,1006.03 1885.03,1023.37 1881,1040.5C 1880.1,1041.7 1878.93,1042.53 1877.5,1043C 1871.12,1043.69 1864.78,1043.36 1858.5,1042C 1857.33,1041.5 1856.5,1040.67 1856,1039.5C 1859.23,1022.02 1861.56,1004.35 1863,986.5C 1863.51,985.473 1864.01,984.473 1864.5,983.5 Z"/></g>
<g><path style="opacity:1" fill="#076332" d="M 1003.5,986.5 C 1006.69,985.961 1009.19,986.961 1011,989.5C 1012.48,1006.73 1015.32,1023.73 1019.5,1040.5C 1019.61,1042.37 1018.94,1043.87 1017.5,1045C 1010.52,1046.22 1003.52,1046.89 996.5,1047C 995.667,1046.17 994.833,1045.33 994,1044.5C 990.58,1029.48 988.08,1014.32 986.5,999C 986.525,996.245 986.859,993.578 987.5,991C 992.641,988.544 997.974,987.044 1003.5,986.5 Z"/></g>
<g><path style="opacity:1" fill="#086436" d="M 1560.5,986.5 C 1561.5,986.414 1562.33,986.748 1563,987.5C 1565.73,997.006 1567.06,1006.67 1567,1016.5C 1549.74,1036.55 1529.24,1052.38 1505.5,1064C 1496.08,1068.52 1486.42,1069.52 1476.5,1067C 1494.68,1057.49 1510.51,1044.99 1524,1029.5C 1524.5,1019.84 1524.67,1010.17 1524.5,1000.5C 1537.45,997.966 1549.45,993.299 1560.5,986.5 Z"/></g>
<g><path style="opacity:1" fill="#016233" d="M 1306.5,1008.5 C 1322.82,1013.08 1339.49,1015.08 1356.5,1014.5C 1350.12,1032.23 1351.62,1049.23 1361,1065.5C 1372.38,1078.6 1386.88,1085.44 1404.5,1086C 1377.04,1106.8 1347.04,1111.8 1314.5,1101C 1297.66,1093.5 1286.5,1081 1281,1063.5C 1280.33,1061.17 1280.33,1058.83 1281,1056.5C 1296.09,1043.99 1304.59,1027.99 1306.5,1008.5 Z"/></g>
<g><path style="opacity:1" fill="#1a6d41" d="M 1293.5,1011.5 C 1294.94,1018.03 1293.11,1023.7 1288,1028.5C 1289.11,1022.68 1290.94,1017.01 1293.5,1011.5 Z"/></g>
<g><path style="opacity:1" fill="#026234" d="M 1364.5,1014.5 C 1379.68,1013.67 1394.68,1014.84 1409.5,1018C 1427.5,1024.27 1433,1036.44 1426,1054.5C 1424.67,1057.83 1423.33,1061.17 1422,1064.5C 1405.72,1068.06 1390.89,1064.89 1377.5,1055C 1367.09,1043.57 1362.76,1030.07 1364.5,1014.5 Z"/></g>
<g><path style="opacity:1" fill="#0e1a13" d="M 898.5,1013.5 C 898.167,1016.17 897.833,1018.83 897.5,1021.5C 896.596,1020.79 896.263,1019.79 896.5,1018.5C 896.402,1016.45 897.069,1014.78 898.5,1013.5 Z"/></g>
<g><path style="opacity:1" fill="#fafbfb" d="M 930.5,1168.5 C 932.924,1153.87 933.091,1139.2 931,1124.5C 927.093,1104.54 922.093,1084.87 916,1065.5C 914.68,1059.55 913.68,1053.55 913,1047.5C 912.333,1056.17 912.333,1064.83 913,1073.5C 916.435,1096.34 920.768,1119.01 926,1141.5C 927.327,1148.78 928.16,1156.12 928.5,1163.5C 919.597,1153.09 910.097,1143.09 900,1133.5C 898.464,1119.2 898.131,1104.87 899,1090.5C 901.827,1066.25 903.493,1041.91 904,1017.5C 904.333,1017.17 904.667,1016.83 905,1016.5C 948.806,1057.04 963.473,1106.37 949,1164.5C 946.887,1171.39 944.22,1178.06 941,1184.5C 938.222,1178.59 934.722,1173.25 930.5,1168.5 Z"/></g>
<g><path style="opacity:1" fill="#fbfbfb" d="M 1950.5,1163.5 C 1950.84,1156.12 1951.67,1148.78 1953,1141.5C 1958.23,1119.01 1962.57,1096.34 1966,1073.5C 1966.67,1064.83 1966.67,1056.17 1966,1047.5C 1960.16,1073.19 1954.16,1098.86 1948,1124.5C 1945.86,1138.55 1946.03,1152.55 1948.5,1166.5C 1948.14,1167.18 1947.8,1167.85 1947.5,1168.5C 1944.09,1173.64 1940.93,1178.97 1938,1184.5C 1914.4,1129.74 1921.06,1079.07 1958,1032.5C 1963.33,1027.17 1968.67,1021.83 1974,1016.5C 1975.44,1041.09 1977.44,1065.76 1980,1090.5C 1980.87,1104.87 1980.54,1119.2 1979,1133.5C 1968.9,1143.09 1959.4,1153.09 1950.5,1163.5 Z"/></g>
<g><path style="opacity:1" fill="#0e1a13" d="M 1980.5,1013.5 C 1982.16,1015.44 1982.83,1017.77 1982.5,1020.5C 1982.5,1020.83 1982.5,1021.17 1982.5,1021.5C 1981.23,1019.09 1980.57,1016.43 1980.5,1013.5 Z"/></g>
<g><path style="opacity:1" fill="#3c664c" d="M 896.5,1018.5 C 896.263,1019.79 896.596,1020.79 897.5,1021.5C 897.232,1023.1 897.566,1024.43 898.5,1025.5C 897.109,1030.18 896.109,1034.85 895.5,1039.5C 895.66,1037.8 895.494,1036.13 895,1034.5C 894.444,1036.6 893.944,1036.76 893.5,1035C 894.909,1029.44 895.909,1023.94 896.5,1018.5 Z"/></g>
<g><path style="opacity:1" fill="#50705d" d="M 1982.5,1020.5 C 1983.14,1025.28 1984.14,1030.11 1985.5,1035C 1985.06,1036.76 1984.56,1036.6 1984,1034.5C 1983.5,1036.81 1983.34,1039.14 1983.5,1041.5C 1982.52,1037.7 1982.18,1033.7 1982.5,1029.5C 1982.5,1026.83 1982.5,1024.17 1982.5,1021.5C 1982.5,1021.17 1982.5,1020.83 1982.5,1020.5 Z"/></g>
<g><path style="opacity:1" fill="#11673a" d="M 930.5,1168.5 C 929.797,1170.63 928.797,1172.63 927.5,1174.5C 928.114,1170.86 928.448,1167.2 928.5,1163.5C 928.16,1156.12 927.327,1148.78 926,1141.5C 920.768,1119.01 916.435,1096.34 913,1073.5C 912.333,1064.83 912.333,1056.17 913,1047.5C 913.68,1053.55 914.68,1059.55 916,1065.5C 922.093,1084.87 927.093,1104.54 931,1124.5C 933.091,1139.2 932.924,1153.87 930.5,1168.5 Z"/></g>
<g><path style="opacity:1" fill="#12683b" d="M 1950.5,1163.5 C 1950.55,1167.2 1950.89,1170.86 1951.5,1174.5C 1950.35,1172.36 1949.01,1170.36 1947.5,1168.5C 1947.8,1167.85 1948.14,1167.18 1948.5,1166.5C 1946.03,1152.55 1945.86,1138.55 1948,1124.5C 1954.16,1098.86 1960.16,1073.19 1966,1047.5C 1966.67,1056.17 1966.67,1064.83 1966,1073.5C 1962.57,1096.34 1958.23,1119.01 1953,1141.5C 1951.67,1148.78 1950.84,1156.12 1950.5,1163.5 Z"/></g>
<g><path style="opacity:1" fill="#fcfcfc" d="M 927.5,1174.5 C 937.661,1191.51 944.495,1209.84 948,1229.5C 948.499,1233.49 948.666,1237.49 948.5,1241.5C 937.664,1240.61 927.331,1237.78 917.5,1233C 862.018,1201.56 834.851,1153.73 836,1089.5C 854.67,1106.74 874.17,1122.91 894.5,1138C 906.845,1149.17 917.845,1161.33 927.5,1174.5 Z"/></g>
<g><path style="opacity:1" fill="#fbfcfb" d="M 1951.5,1174.5 C 1961.15,1161.33 1972.15,1149.17 1984.5,1138C 2004.83,1122.91 2024.33,1106.74 2043,1089.5C 2044.15,1151.71 2018.32,1198.88 1965.5,1231C 1954.36,1236.44 1942.69,1239.94 1930.5,1241.5C 1931.05,1223.63 1935.22,1206.63 1943,1190.5C 1946.11,1185.27 1948.95,1179.94 1951.5,1174.5 Z"/></g>
<g><path style="opacity:1" fill="#066332" d="M 1838.5,1093.5 C 1845.8,1094.54 1852.8,1096.71 1859.5,1100C 1860.11,1101.23 1860.44,1102.56 1860.5,1104C 1854.72,1120.9 1847.05,1136.9 1837.5,1152C 1835.97,1152.92 1834.3,1153.42 1832.5,1153.5C 1826.63,1151.9 1820.97,1149.73 1815.5,1147C 1814.9,1145.94 1814.57,1144.77 1814.5,1143.5C 1823.54,1127.41 1831.54,1110.74 1838.5,1093.5 Z"/></g>
<g><path style="opacity:1" fill="#076332" d="M 1031.5,1096.5 C 1034.04,1096.1 1036.21,1096.77 1038,1098.5C 1041.14,1106.25 1044.47,1113.92 1048,1121.5C 1052.66,1129.98 1057.16,1138.48 1061.5,1147C 1061.41,1148.11 1061.08,1149.11 1060.5,1150C 1054.61,1152.78 1048.61,1155.28 1042.5,1157.5C 1040.27,1156.78 1038.44,1155.45 1037,1153.5C 1028.95,1138.74 1021.45,1123.74 1014.5,1108.5C 1015.26,1106.56 1016.26,1104.73 1017.5,1103C 1022.38,1101.06 1027.04,1098.89 1031.5,1096.5 Z"/></g>
<g><path style="opacity:1" fill="#fafbfa" d="M 968.5,1129.5 C 971.516,1129.84 974.182,1131.01 976.5,1133C 1006.57,1161.32 1023.07,1196.15 1026,1237.5C 1003.2,1231.32 999.533,1237.32 1015,1255.5C 1018.93,1266.21 1021.76,1277.21 1023.5,1288.5C 1023.56,1290.48 1022.9,1292.15 1021.5,1293.5C 1009.1,1285.63 996.1,1278.8 982.5,1273C 964.143,1251.92 956.643,1227.42 960,1199.5C 962.334,1186.5 964.668,1173.5 967,1160.5C 967.191,1150.09 967.691,1139.76 968.5,1129.5 Z"/></g>
<g><path style="opacity:1" fill="#fafbfa" d="M 1907.5,1129.5 C 1908.82,1129.33 1909.99,1129.66 1911,1130.5C 1911.33,1140.5 1911.67,1150.5 1912,1160.5C 1914.33,1173.5 1916.67,1186.5 1919,1199.5C 1922.29,1226.87 1915.12,1251.04 1897.5,1272C 1883.72,1278.39 1870.39,1285.56 1857.5,1293.5C 1856.1,1292.15 1855.44,1290.48 1855.5,1288.5C 1857.24,1277.21 1860.07,1266.21 1864,1255.5C 1879.44,1237.29 1875.77,1231.29 1853,1237.5C 1855.47,1204.4 1866.81,1174.74 1887,1148.5C 1893.43,1141.57 1900.26,1135.23 1907.5,1129.5 Z"/></g>
<g><path style="opacity:1" fill="#166a3e" d="M 848.5,1127.5 C 851.748,1132.6 855.248,1137.6 859,1142.5C 874.362,1157.53 889.362,1172.86 904,1188.5C 907.667,1193.5 911.333,1198.5 915,1203.5C 915.982,1204.76 916.315,1206.09 916,1207.5C 905.739,1195.9 894.239,1185.74 881.5,1177C 865.861,1163.55 854.861,1147.05 848.5,1127.5 Z"/></g>
<g><path style="opacity:1" fill="#166a3e" d="M 2029.5,1127.5 C 2030.57,1128.25 2030.74,1129.25 2030,1130.5C 2023.09,1148.74 2012.26,1164.24 1997.5,1177C 1984.76,1185.74 1973.26,1195.9 1963,1207.5C 1962.68,1206.09 1963.02,1204.76 1964,1203.5C 1967.67,1198.5 1971.33,1193.5 1975,1188.5C 1989.64,1172.86 2004.64,1157.53 2020,1142.5C 2023.81,1137.87 2026.98,1132.87 2029.5,1127.5 Z"/></g>
<g><path style="opacity:1" fill="#12683b" d="M 981.5,1155.5 C 986.923,1163.69 990.756,1172.69 993,1182.5C 995.923,1201.71 997.256,1221.04 997,1240.5C 998.304,1250.72 1000.97,1260.38 1005,1269.5C 994.627,1256.39 988.96,1241.39 988,1224.5C 987.012,1209.85 986.345,1195.18 986,1180.5C 985.393,1171.96 983.893,1163.63 981.5,1155.5 Z"/></g>
<g><path style="opacity:1" fill="#12683b" d="M 1896.5,1155.5 C 1897.04,1155.56 1897.38,1155.89 1897.5,1156.5C 1895.03,1164.28 1893.53,1172.28 1893,1180.5C 1893.23,1199.95 1891.89,1219.28 1889,1238.5C 1886.66,1250.21 1881.66,1260.54 1874,1269.5C 1878.03,1260.37 1880.7,1250.71 1882,1240.5C 1881.98,1222.77 1882.98,1205.1 1885,1187.5C 1887.16,1176.2 1890.99,1165.53 1896.5,1155.5 Z"/></g>
<g><path style="opacity:1" fill="#00582d" d="M 959.5,1148.5 C 960.643,1151.98 960.81,1155.64 960,1159.5C 956.165,1177 953.498,1194.67 952,1212.5C 949.995,1205.65 947.495,1198.98 944.5,1192.5C 952.691,1178.93 957.691,1164.26 959.5,1148.5 Z"/></g>
<g><path style="opacity:1" fill="#00582e" d="M 1918.5,1149.5 C 1921.44,1164.63 1926.77,1178.96 1934.5,1192.5C 1931.51,1198.98 1929.01,1205.65 1927,1212.5C 1926.67,1207.5 1926.33,1202.5 1926,1197.5C 1922.4,1181.66 1919.9,1165.66 1918.5,1149.5 Z"/></g>
<g><path style="opacity:1" fill="#066332" d="M 1779.5,1192.5 C 1781.53,1192.34 1783.53,1192.5 1785.5,1193C 1790.27,1196.14 1794.77,1199.64 1799,1203.5C 1799.67,1204.83 1799.67,1206.17 1799,1207.5C 1788.24,1220.93 1776.74,1233.76 1764.5,1246C 1761.63,1247.46 1758.63,1247.79 1755.5,1247C 1750.71,1243.88 1746.21,1240.38 1742,1236.5C 1741.33,1235.5 1741.33,1234.5 1742,1233.5C 1755.76,1220.91 1768.26,1207.25 1779.5,1192.5 Z"/></g>
<g><path style="opacity:1" fill="#066332" d="M 1091.5,1194.5 C 1093.65,1194.37 1095.65,1194.87 1097.5,1196C 1108.59,1210.43 1121.09,1223.6 1135,1235.5C 1135.59,1236.9 1135.43,1238.23 1134.5,1239.5C 1130.17,1243 1125.83,1246.5 1121.5,1250C 1119.17,1250.67 1116.83,1250.67 1114.5,1250C 1101.6,1237.77 1089.44,1224.94 1078,1211.5C 1077.37,1209.36 1077.7,1207.36 1079,1205.5C 1083.36,1201.97 1087.53,1198.3 1091.5,1194.5 Z"/></g>
<g><path style="opacity:1" fill="#fbfcfb" d="M 1013.5,1240.5 C 1019.81,1242.15 1025.81,1244.65 1031.5,1248C 1060.89,1264.38 1086.39,1285.55 1108,1311.5C 1113.17,1318.49 1117.83,1325.83 1122,1333.5C 1125.35,1345.87 1129.68,1357.87 1135,1369.5C 1135.5,1378.49 1135.67,1387.49 1135.5,1396.5C 1128.67,1396.31 1122,1395.14 1115.5,1393C 1082.11,1377.61 1057.28,1353.45 1041,1320.5C 1038.27,1313.64 1035.93,1306.64 1034,1299.5C 1030.46,1284.79 1026.79,1270.12 1023,1255.5C 1019.98,1250.33 1016.81,1245.33 1013.5,1240.5 Z"/></g>
<g><path style="opacity:1" fill="#fbfcfc" d="M 1862.5,1240.5 C 1863.68,1240.28 1864.68,1240.61 1865.5,1241.5C 1861.75,1245.76 1858.58,1250.42 1856,1255.5C 1851.31,1275.66 1845.97,1295.66 1840,1315.5C 1824.64,1350.19 1799.81,1375.69 1765.5,1392C 1758.31,1394.25 1750.98,1395.75 1743.5,1396.5C 1743.33,1387.49 1743.5,1378.49 1744,1369.5C 1749.32,1357.87 1753.65,1345.87 1757,1333.5C 1770.84,1308.65 1789.34,1287.82 1812.5,1271C 1828.32,1259.32 1844.99,1249.15 1862.5,1240.5 Z"/></g>
<g><path style="opacity:1" fill="#fbfcfb" d="M 895.5,1244.5 C 905.834,1248.17 915.834,1252.67 925.5,1258C 954.519,1267.67 982.519,1279.67 1009.5,1294C 1015.5,1298 1021.5,1302 1027.5,1306C 1037.02,1335.07 1053.69,1359.07 1077.5,1378C 1035.2,1380.23 997.202,1368.57 963.5,1343C 930.05,1317.6 907.384,1284.76 895.5,1244.5 Z"/></g>
<g><path style="opacity:1" fill="#fbfcfc" d="M 1980.5,1244.5 C 1981.5,1244.5 1982.5,1244.5 1983.5,1244.5C 1965.28,1302.23 1928.28,1343.06 1872.5,1367C 1849.65,1375.97 1825.99,1379.64 1801.5,1378C 1825.31,1359.07 1841.98,1335.07 1851.5,1306C 1865.68,1296.07 1880.68,1287.4 1896.5,1280C 1916.06,1272.06 1935.72,1264.39 1955.5,1257C 1963.93,1252.79 1972.26,1248.62 1980.5,1244.5 Z"/></g>
<g><path style="opacity:1" fill="#10673a" d="M 1036.5,1263.5 C 1036.9,1262.47 1037.56,1262.31 1038.5,1263C 1057.79,1276.3 1071.96,1293.8 1081,1315.5C 1088.41,1336.69 1099.08,1355.69 1113,1372.5C 1094.54,1357.72 1080.21,1339.72 1070,1318.5C 1063.78,1304.4 1056.78,1290.73 1049,1277.5C 1045.52,1272.2 1041.35,1267.53 1036.5,1263.5 Z"/></g>
<g><path style="opacity:1" fill="#0f673a" d="M 1839.5,1263.5 C 1840.24,1263.37 1840.91,1263.54 1841.5,1264C 1827.84,1279.46 1817.34,1296.96 1810,1316.5C 1799.65,1338.51 1784.99,1357.18 1766,1372.5C 1779.92,1355.69 1790.59,1336.69 1798,1315.5C 1806.91,1294.11 1820.74,1276.77 1839.5,1263.5 Z"/></g>
<g><path style="opacity:1" fill="#066332" d="M 1692.5,1271.5 C 1696.27,1270.82 1699.11,1272.16 1701,1275.5C 1703.33,1278.83 1705.67,1282.17 1708,1285.5C 1708.67,1287.17 1708.67,1288.83 1708,1290.5C 1693.25,1301.13 1677.75,1310.63 1661.5,1319C 1658.12,1319.94 1655.12,1319.27 1652.5,1317C 1650.37,1313.24 1647.87,1309.74 1645,1306.5C 1644.33,1304.83 1644.33,1303.17 1645,1301.5C 1655.09,1295.54 1665.25,1289.71 1675.5,1284C 1681.59,1280.3 1687.26,1276.13 1692.5,1271.5 Z"/></g>
<g><path style="opacity:1" fill="#076332" d="M 1179.5,1273.5 C 1181.2,1273.34 1182.87,1273.51 1184.5,1274C 1190.83,1278.33 1197.17,1282.67 1203.5,1287C 1213.58,1292.12 1223.41,1297.62 1233,1303.5C 1233.67,1304.83 1233.67,1306.17 1233,1307.5C 1229.86,1312.27 1226.36,1316.77 1222.5,1321C 1217.4,1321.46 1212.73,1320.13 1208.5,1317C 1195.25,1309.79 1182.42,1301.96 1170,1293.5C 1169.33,1291.17 1169.33,1288.83 1170,1286.5C 1173,1282.01 1176.16,1277.67 1179.5,1273.5 Z"/></g>
<g><path style="opacity:1" fill="#10683a" d="M 921.5,1275.5 C 927.12,1280.95 933.454,1285.45 940.5,1289C 963.724,1299.28 986.391,1310.61 1008.5,1323C 1017.25,1329.08 1025.42,1335.91 1033,1343.5C 1034.92,1345.69 1036.25,1348.02 1037,1350.5C 1030.69,1343.85 1023.52,1338.35 1015.5,1334C 994.208,1324.57 973.208,1314.57 952.5,1304C 942.797,1297.97 933.964,1290.8 926,1282.5C 924.25,1280.27 922.75,1277.93 921.5,1275.5 Z"/></g>
<g><path style="opacity:1" fill="#10683a" d="M 1956.5,1275.5 C 1957.53,1275.9 1957.69,1276.56 1957,1277.5C 1943.33,1293.43 1926.83,1305.59 1907.5,1314C 1886.55,1321.64 1866.89,1331.64 1848.5,1344C 1846.33,1346.17 1844.17,1348.33 1842,1350.5C 1845.21,1344.26 1849.71,1338.76 1855.5,1334C 1860.5,1330.33 1865.5,1326.67 1870.5,1323C 1891.94,1310.95 1913.94,1299.95 1936.5,1290C 1944.12,1286.37 1950.79,1281.54 1956.5,1275.5 Z"/></g>
<g><path style="opacity:1" fill="#fcfcfc" d="M 1130.5,1325.5 C 1133.27,1325.42 1135.94,1325.92 1138.5,1327C 1147.51,1332.84 1156.84,1338.17 1166.5,1343C 1195.76,1354.64 1224.42,1367.64 1252.5,1382C 1296.51,1405.68 1331.01,1439.18 1356,1482.5C 1358.26,1485.28 1358.76,1488.28 1357.5,1491.5C 1326.9,1493.88 1297.56,1488.71 1269.5,1476C 1215.61,1453.44 1173.44,1417.27 1143,1367.5C 1137.55,1357.28 1133.22,1346.61 1130,1335.5C 1129.25,1332.08 1129.42,1328.74 1130.5,1325.5 Z"/></g>
<g><path style="opacity:1" fill="#fcfcfc" d="M 1742.5,1325.5 C 1744.79,1325.24 1746.96,1325.58 1749,1326.5C 1749.67,1329.5 1749.67,1332.5 1749,1335.5C 1740.9,1361.38 1727.9,1384.38 1710,1404.5C 1669.61,1448.62 1620.11,1477.12 1561.5,1490C 1548.21,1492.49 1534.87,1492.99 1521.5,1491.5C 1520.24,1488.28 1520.74,1485.28 1523,1482.5C 1545.4,1443.43 1575.9,1412.26 1614.5,1389C 1646.78,1371.2 1680.11,1355.53 1714.5,1342C 1724.06,1336.73 1733.39,1331.23 1742.5,1325.5 Z"/></g>
<g><path style="opacity:1" fill="#076332" d="M 1584.5,1325.5 C 1588.18,1324.73 1590.68,1326.06 1592,1329.5C 1593.6,1334.14 1595.1,1338.8 1596.5,1343.5C 1596.12,1345.38 1595.12,1346.88 1593.5,1348C 1577.62,1353.07 1561.62,1357.74 1545.5,1362C 1541.17,1363.15 1537.34,1362.32 1534,1359.5C 1532,1354.99 1530.5,1350.33 1529.5,1345.5C 1529.39,1343.63 1530.06,1342.13 1531.5,1341C 1549.66,1337.21 1567.33,1332.05 1584.5,1325.5 Z"/></g>
<g><path style="opacity:1" fill="#096332" d="M 1288.5,1326.5 C 1307.85,1332.75 1327.52,1337.92 1347.5,1342C 1348.59,1344.06 1348.76,1346.23 1348,1348.5C 1346.6,1352.87 1345.1,1357.2 1343.5,1361.5C 1340.45,1363.47 1337.12,1363.97 1333.5,1363C 1317.32,1359.29 1301.32,1354.96 1285.5,1350C 1282.57,1346.74 1281.74,1342.91 1283,1338.5C 1283.98,1334.02 1285.82,1330.02 1288.5,1326.5 Z"/></g>
<g><path style="opacity:1" fill="#116432" d="M 1457.5,1349.5 C 1461.18,1349.33 1464.85,1349.5 1468.5,1350C 1469.33,1350.83 1470.17,1351.67 1471,1352.5C 1471.67,1358.5 1471.67,1364.5 1471,1370.5C 1470.5,1371 1470,1371.5 1469.5,1372C 1462.91,1373.21 1456.25,1373.88 1449.5,1374C 1436.83,1374.67 1424.17,1374.67 1411.5,1374C 1408.62,1372.75 1406.79,1370.58 1406,1367.5C 1405.33,1362.5 1405.33,1357.5 1406,1352.5C 1406.5,1352 1407,1351.5 1407.5,1351C 1424.34,1350.83 1441.01,1350.33 1457.5,1349.5 Z"/></g>
<g><path style="opacity:1" fill="#0d6639" d="M 1151.5,1349.5 C 1160.39,1361.55 1171.39,1371.38 1184.5,1379C 1208.85,1392.84 1233.51,1406.18 1258.5,1419C 1277.19,1428.6 1294.02,1440.76 1309,1455.5C 1310.6,1457.37 1311.6,1459.37 1312,1461.5C 1305.06,1455.23 1297.56,1449.73 1289.5,1445C 1262.2,1431.35 1234.86,1417.68 1207.5,1404C 1189.02,1394.85 1172.85,1382.68 1159,1367.5C 1155.12,1362.07 1152.62,1356.07 1151.5,1349.5 Z"/></g>
<g><path style="opacity:1" fill="#0d6639" d="M 1725.5,1351.5 C 1726.56,1353.73 1726.39,1356.06 1725,1358.5C 1718.27,1371.23 1708.77,1381.4 1696.5,1389C 1688.33,1394.25 1680,1399.25 1671.5,1404C 1644.14,1417.68 1616.8,1431.35 1589.5,1445C 1581.44,1449.73 1573.94,1455.23 1567,1461.5C 1567.04,1459.72 1567.71,1458.05 1569,1456.5C 1582.31,1443.27 1597.14,1432.1 1613.5,1423C 1640.66,1408.59 1667.66,1393.92 1694.5,1379C 1706.91,1372.08 1717.25,1362.91 1725.5,1351.5 Z"/></g>
<g><path style="opacity:1" fill="#005a2f" d="M 1143.5,1382.5 C 1147.87,1389.38 1152.87,1395.88 1158.5,1402C 1153.22,1401.19 1147.89,1400.35 1142.5,1399.5C 1143.13,1393.86 1143.47,1388.19 1143.5,1382.5 Z"/></g>
<g><path style="opacity:1" fill="#00592e" d="M 1734.5,1382.5 C 1735.83,1387.64 1736.33,1392.97 1736,1398.5C 1730.95,1400.39 1725.79,1401.55 1720.5,1402C 1726.29,1396.23 1730.96,1389.73 1734.5,1382.5 Z"/></g>
<g><path style="opacity:1" fill="#fbfbfb" d="M 1235.5,1466.5 C 1234.43,1467.43 1233.1,1467.77 1231.5,1467.5C 1221.6,1465.95 1211.93,1463.45 1202.5,1460C 1170.95,1445.73 1139.28,1431.73 1107.5,1418C 1093.04,1412.06 1078.04,1409.06 1062.5,1409C 1073.11,1411.47 1083.45,1414.81 1093.5,1419C 1121.72,1431.61 1150.05,1443.94 1178.5,1456C 1194.56,1462.68 1211.22,1466.85 1228.5,1468.5C 1231.96,1469.48 1235.63,1469.81 1239.5,1469.5C 1249.84,1474.34 1260.18,1479.17 1270.5,1484C 1220.08,1493.26 1172.08,1486.26 1126.5,1463C 1116.67,1457.59 1107,1451.92 1097.5,1446C 1080.17,1434 1062.83,1422 1045.5,1410C 1038.08,1406.23 1030.41,1403.23 1022.5,1401C 1026.23,1398.87 1030.23,1397.53 1034.5,1397C 1079.44,1393.93 1123.44,1398.93 1166.5,1412C 1186.62,1434.03 1209.62,1452.2 1235.5,1466.5 Z"/></g>
<g><path style="opacity:1" fill="#fbfcfb" d="M 1639.5,1469.5 C 1642.71,1469.81 1645.71,1469.48 1648.5,1468.5C 1672.5,1465.58 1695.5,1459.08 1717.5,1449C 1738.58,1439.86 1759.58,1430.53 1780.5,1421C 1792.12,1415.86 1804.12,1411.86 1816.5,1409C 1802.72,1408.62 1789.39,1410.95 1776.5,1416C 1744.58,1429.42 1712.92,1443.42 1681.5,1458C 1670.17,1462.5 1658.51,1465.67 1646.5,1467.5C 1645.21,1467.74 1644.21,1467.4 1643.5,1466.5C 1669.38,1452.2 1692.38,1434.03 1712.5,1412C 1757.2,1398.03 1802.86,1393.37 1849.5,1398C 1851.95,1398.72 1854.28,1399.72 1856.5,1401C 1846.5,1403.44 1837.17,1407.44 1828.5,1413C 1807.35,1428.41 1785.69,1443.08 1763.5,1457C 1715.07,1484.6 1663.41,1493.6 1608.5,1484C 1618.82,1479.17 1629.16,1474.34 1639.5,1469.5 Z"/></g>
<g><path style="opacity:1" fill="#fcfcfc" d="M 1349.5,1405.5 C 1354.84,1405.33 1360.18,1405.5 1365.5,1406C 1383.86,1409.84 1402.2,1413.84 1420.5,1418C 1432.51,1419.94 1444.51,1419.94 1456.5,1418C 1472.87,1414.49 1489.2,1410.83 1505.5,1407C 1513.12,1405.63 1520.79,1405.29 1528.5,1406C 1541.3,1407.97 1549.63,1415.13 1553.5,1427.5C 1544.84,1438.33 1536.34,1449.33 1528,1460.5C 1523.27,1467.57 1518.93,1474.91 1515,1482.5C 1511.76,1485.21 1508.26,1487.54 1504.5,1489.5C 1502.41,1486.32 1500.07,1483.32 1497.5,1480.5C 1503.61,1475.21 1508.45,1468.88 1512,1461.5C 1513.88,1449.54 1508.71,1443.54 1496.5,1443.5C 1477.1,1446.53 1457.6,1448.86 1438,1450.5C 1418.92,1448.95 1399.92,1446.62 1381,1443.5C 1369.56,1444.27 1364.9,1450.27 1367,1461.5C 1370.55,1468.88 1375.39,1475.21 1381.5,1480.5C 1378.93,1483.32 1376.59,1486.32 1374.5,1489.5C 1370.74,1487.54 1367.24,1485.21 1364,1482.5C 1353.54,1463.25 1340.87,1445.58 1326,1429.5C 1328.55,1416.45 1336.39,1408.45 1349.5,1405.5 Z"/></g>
<g><path style="opacity:1" fill="#13693c" d="M 1231.5,1467.5 C 1230.79,1468.4 1229.79,1468.74 1228.5,1468.5C 1211.22,1466.85 1194.56,1462.68 1178.5,1456C 1150.05,1443.94 1121.72,1431.61 1093.5,1419C 1083.45,1414.81 1073.11,1411.47 1062.5,1409C 1078.04,1409.06 1093.04,1412.06 1107.5,1418C 1139.28,1431.73 1170.95,1445.73 1202.5,1460C 1211.93,1463.45 1221.6,1465.95 1231.5,1467.5 Z"/></g>
<g><path style="opacity:1" fill="#13693c" d="M 1648.5,1468.5 C 1647.51,1468.67 1646.84,1468.34 1646.5,1467.5C 1658.51,1465.67 1670.17,1462.5 1681.5,1458C 1712.92,1443.42 1744.58,1429.42 1776.5,1416C 1789.39,1410.95 1802.72,1408.62 1816.5,1409C 1804.12,1411.86 1792.12,1415.86 1780.5,1421C 1759.58,1430.53 1738.58,1439.86 1717.5,1449C 1695.5,1459.08 1672.5,1465.58 1648.5,1468.5 Z"/></g>
<g><path style="opacity:1" fill="#005e31" d="M 1377.5,1450.5 C 1397.82,1452.94 1418.15,1455.27 1438.5,1457.5C 1457.72,1455.66 1476.88,1453.33 1496,1450.5C 1501.18,1449.66 1504.34,1451.66 1505.5,1456.5C 1503.15,1464.35 1498.65,1470.68 1492,1475.5C 1475.63,1464.36 1457.46,1459.03 1437.5,1459.5C 1418.99,1459.67 1402.16,1465 1387,1475.5C 1382.31,1471.47 1378.31,1466.81 1375,1461.5C 1372.36,1456.85 1373.19,1453.18 1377.5,1450.5 Z"/></g>
<g><path style="opacity:1" fill="#fdfdfd" d="M 1428.5,1466.5 C 1449.46,1464.41 1468.79,1468.91 1486.5,1480C 1500.7,1491.61 1504.53,1506.11 1498,1523.5C 1495.04,1531.93 1490.2,1539.1 1483.5,1545C 1476.77,1550.06 1469.77,1554.73 1462.5,1559C 1459.41,1559.85 1456.58,1559.35 1454,1557.5C 1449.14,1547.41 1446.48,1536.74 1446,1525.5C 1442.82,1521.11 1438.99,1520.44 1434.5,1523.5C 1432.32,1533.57 1429.82,1543.57 1427,1553.5C 1425.5,1556.85 1423,1558.85 1419.5,1559.5C 1406.64,1554.31 1395.8,1546.31 1387,1535.5C 1370.38,1507.05 1376.88,1485.88 1406.5,1472C 1413.79,1469.39 1421.13,1467.56 1428.5,1466.5 Z"/></g>
<g><path style="opacity:1" fill="#87b19c" d="M 1235.5,1466.5 C 1237.23,1467.03 1238.56,1468.03 1239.5,1469.5C 1235.63,1469.81 1231.96,1469.48 1228.5,1468.5C 1229.79,1468.74 1230.79,1468.4 1231.5,1467.5C 1233.1,1467.77 1234.43,1467.43 1235.5,1466.5 Z"/></g>
<g><path style="opacity:1" fill="#87b29d" d="M 1643.5,1466.5 C 1644.21,1467.4 1645.21,1467.74 1646.5,1467.5C 1646.84,1468.34 1647.51,1468.67 1648.5,1468.5C 1645.71,1469.48 1642.71,1469.81 1639.5,1469.5C 1640.8,1468.51 1642.13,1467.51 1643.5,1466.5 Z"/></g>
<g><path style="opacity:1" fill="#fdfdfd" d="M 1117.5,1472.5 C 1177.22,1507.12 1241.55,1521.62 1310.5,1516C 1331.08,1513.98 1351.08,1509.48 1370.5,1502.5C 1371.43,1510.92 1372.76,1519.26 1374.5,1527.5C 1298.5,1548.66 1221.17,1563.16 1142.5,1571C 1130.52,1572.29 1118.52,1572.62 1106.5,1572C 1103.69,1570.69 1102.86,1568.53 1104,1565.5C 1115.38,1552.07 1123.05,1536.73 1127,1519.5C 1127.67,1513.83 1127.67,1508.17 1127,1502.5C 1124.33,1492.32 1121.16,1482.32 1117.5,1472.5 Z"/></g>
<g><path style="opacity:1" fill="#fcfcfc" d="M 1759.5,1472.5 C 1760.38,1472.37 1761.04,1472.7 1761.5,1473.5C 1753.17,1489.99 1750.33,1507.33 1753,1525.5C 1757.75,1540.33 1765.08,1553.67 1775,1565.5C 1776.36,1569.14 1775.19,1571.31 1771.5,1572C 1680.71,1567.94 1591.71,1553.11 1504.5,1527.5C 1506.4,1519.3 1507.57,1510.96 1508,1502.5C 1541.74,1514.69 1576.57,1519.52 1612.5,1517C 1665.22,1513.92 1714.22,1499.09 1759.5,1472.5 Z"/></g>
<g><path style="opacity:1" fill="#005f31" d="M 1151.5,1482.5 C 1151.74,1481.9 1152.24,1481.57 1153,1481.5C 1195.27,1496.37 1238.11,1498.37 1281.5,1487.5C 1306.65,1497.2 1332.65,1500.7 1359.5,1498C 1362.57,1497.26 1364.74,1495.43 1366,1492.5C 1367.49,1493.16 1368.65,1494.16 1369.5,1495.5C 1348.92,1503.45 1327.58,1508.28 1305.5,1510C 1251.84,1513.63 1200.51,1504.47 1151.5,1482.5 Z"/></g>
<g><path style="opacity:1" fill="#005e31" d="M 1724.5,1481.5 C 1725.55,1481.35 1726.55,1481.52 1727.5,1482C 1663.06,1511.23 1596.4,1517.9 1527.5,1502C 1522.17,1500.33 1516.83,1498.67 1511.5,1497C 1509.05,1495.19 1509.38,1493.69 1512.5,1492.5C 1514.68,1496.4 1518.01,1498.57 1522.5,1499C 1548.23,1499.93 1573.23,1496.1 1597.5,1487.5C 1599.17,1488.33 1600.83,1489.17 1602.5,1490C 1644.07,1497.98 1684.73,1495.15 1724.5,1481.5 Z"/></g>
<g><path style="opacity:1" fill="#f9f9f9" d="M 1379.5,1541.5 C 1380.98,1541.24 1382.31,1541.57 1383.5,1542.5C 1384.31,1543.81 1385.31,1544.98 1386.5,1546C 1355.49,1568.35 1321.16,1583.35 1283.5,1591C 1263.39,1594.7 1244.05,1592.36 1225.5,1584C 1222.73,1581.1 1223.4,1579.1 1227.5,1578C 1266.46,1571.08 1305.12,1562.74 1343.5,1553C 1355.89,1550.04 1367.89,1546.2 1379.5,1541.5 Z"/></g>
<g><path style="opacity:1" fill="#fafafa" d="M 1495.5,1541.5 C 1545.25,1557.1 1595.92,1568.94 1647.5,1577C 1657.07,1578.61 1657.74,1581.61 1649.5,1586C 1629.22,1592.97 1608.55,1594.31 1587.5,1590C 1552.86,1581.51 1521.19,1566.84 1492.5,1546C 1494.14,1544.87 1495.14,1543.37 1495.5,1541.5 Z"/></g>
</svg>
