<?xml version="1.0" encoding="UTF-8"?>
<svg xmlns="http://www.w3.org/2000/svg" version="1.1" width="1920px" height="1280px" xmlns:xlink="http://www.w3.org/1999/xlink">
<g><path style="opacity:1" fill="#ee1c24" d="M -0.5,-0.5 C 639.5,-0.5 1279.5,-0.5 1919.5,-0.5C 1919.5,426.167 1919.5,852.833 1919.5,1279.5C 1279.5,1279.5 639.5,1279.5 -0.5,1279.5C -0.5,852.833 -0.5,426.167 -0.5,-0.5 Z"/></g>
<g><path style="opacity:1" fill="#fefd00" d="M 663.5,69.5 C 664.043,69.56 664.376,69.8933 664.5,70.5C 663.133,83.6369 661.8,96.8036 660.5,110C 660.833,111.833 661.167,113.667 661.5,115.5C 675.167,121.333 688.833,127.167 702.5,133C 687.815,136.437 673.149,139.937 658.5,143.5C 656.291,158.757 654.791,174.09 654,189.5C 646.292,176.583 638.459,163.75 630.5,151C 616.219,152.942 602.052,155.776 588,159.5C 587.5,159.167 587,158.833 586.5,158.5C 596.035,147.468 605.368,136.302 614.5,125C 607.552,112.27 600.218,99.7696 592.5,87.5C 592.833,87.1667 593.167,86.8333 593.5,86.5C 606.833,92.1667 620.167,97.8333 633.5,103.5C 643.865,92.4692 653.865,81.1359 663.5,69.5 Z"/></g>
<g><path style="opacity:1" fill="#fefe00" d="M 362.5,259.5 C 408.5,260.167 454.5,260.833 500.5,261.5C 463.039,288.141 426.039,315.307 389.5,343C 403.702,385.938 417.702,428.938 431.5,472C 431.167,472.5 430.833,473 430.5,473.5C 393.637,446.575 356.637,419.909 319.5,393.5C 282.363,419.909 245.363,446.575 208.5,473.5C 208.167,473 207.833,472.5 207.5,472C 221.298,428.938 235.298,385.938 249.5,343C 212.961,315.307 175.961,288.141 138.5,261.5C 184.5,260.833 230.5,260.167 276.5,259.5C 290.629,215.779 304.963,172.112 319.5,128.5C 334.037,172.112 348.371,215.779 362.5,259.5 Z"/></g>
<g><path style="opacity:1" fill="#fefd00" d="M 739.5,198.5 C 750.104,209.605 760.937,220.605 772,231.5C 785.457,225.105 798.791,218.438 812,211.5C 805.893,225.212 799.06,238.712 791.5,252C 802.197,262.363 812.53,273.029 822.5,284C 808.043,282.924 793.709,280.758 779.5,277.5C 771.271,290.277 763.771,303.611 757,317.5C 754.506,302.54 752.339,287.54 750.5,272.5C 735.353,270.088 720.353,267.255 705.5,264C 718.621,257.356 731.787,250.856 745,244.5C 744.154,229.072 742.32,213.739 739.5,198.5 Z"/></g>
<g><path style="opacity:1" fill="#f46818" d="M 276.5,259.5 C 230.5,260.167 184.5,260.833 138.5,261.5C 137.957,261.44 137.624,261.107 137.5,260.5C 183.829,259.5 230.162,259.167 276.5,259.5 Z"/></g>
<g><path style="opacity:1" fill="#f46818" d="M 362.5,259.5 C 408.838,259.167 455.171,259.5 501.5,260.5C 501.376,261.107 501.043,261.44 500.5,261.5C 454.5,260.833 408.5,260.167 362.5,259.5 Z"/></g>
<g><path style="opacity:1" fill="#fefc00" d="M 764.5,384.5 C 770.984,398.273 776.318,412.606 780.5,427.5C 795.831,426.606 811.165,426.106 826.5,426C 815.787,435.048 804.787,443.714 793.5,452C 792.426,452.739 791.759,453.739 791.5,455C 796.57,469.214 801.404,483.38 806,497.5C 793.612,488.935 781.112,480.602 768.5,472.5C 756.55,481.275 744.717,490.275 733,499.5C 736.034,485.034 739.868,470.701 744.5,456.5C 732.045,447.433 719.379,438.6 706.5,430C 721.828,429.274 737.161,428.774 752.5,428.5C 756.5,413.833 760.5,399.167 764.5,384.5 Z"/></g>
<g><path style="opacity:1" fill="#fefd00" d="M 660.5,517.5 C 660.55,532.338 660.883,547.338 661.5,562.5C 674.794,567.765 688.127,572.931 701.5,578C 687.698,582.655 673.698,586.821 659.5,590.5C 657.836,605.79 656.669,621.123 656,636.5C 647.709,624.085 639.542,611.585 631.5,599C 616.38,602.264 601.38,605.931 586.5,610C 596.563,598.525 605.897,586.525 614.5,574C 606.909,561.408 598.909,549.074 590.5,537C 604.384,541.342 618.217,546.176 632,551.5C 633.944,550.561 635.611,549.227 637,547.5C 645.048,537.625 652.881,527.625 660.5,517.5 Z"/></g>
</svg>
