<?xml version="1.0" encoding="UTF-8"?>
<!DOCTYPE svg PUBLIC "-//W3C//DTD SVG 1.1//EN" "http://www.w3.org/Graphics/SVG/1.1/DTD/svg11.dtd">
<svg xmlns="http://www.w3.org/2000/svg" version="1.1" width="270px" height="135px" style="shape-rendering:geometricPrecision; text-rendering:geometricPrecision; image-rendering:optimizeQuality; fill-rule:evenodd; clip-rule:evenodd" xmlns:xlink="http://www.w3.org/1999/xlink">
<g><path style="opacity:0.615" fill="#fefffe" d="M 6.5,7.5 C 91.8333,7.5 177.167,7.5 262.5,7.5C 262.5,40.8333 262.5,74.1667 262.5,107.5C 177.167,107.5 91.8333,107.5 6.5,107.5C 6.5,74.1667 6.5,40.8333 6.5,7.5 Z M 9.5,10.5 C 92.8333,10.5 176.167,10.5 259.5,10.5C 259.171,41.7401 259.504,72.9068 260.5,104C 176.834,104.5 93.1673,104.667 9.5,104.5C 9.5,73.1667 9.5,41.8333 9.5,10.5 Z M 124.5,24.5 C 135.192,23.0943 138.525,27.261 134.5,37C 131.321,38.4613 127.988,39.2946 124.5,39.5C 124.5,34.5 124.5,29.5 124.5,24.5 Z M 234.5,25.5 C 237.64,24.3592 240.973,24.1925 244.5,25C 245.554,26.3876 245.72,27.8876 245,29.5C 241.654,31.4781 238.154,31.8115 234.5,30.5C 235.735,28.6837 235.735,27.017 234.5,25.5 Z M 69.5,31.5 C 70.5735,32.2506 70.7401,33.2506 70,34.5C 68.2716,33.6477 68.105,32.6477 69.5,31.5 Z M 63.5,35.5 C 60.1667,35.5 56.8333,35.5 53.5,35.5C 54.9972,34.6942 56.6639,34.0276 58.5,33.5C 60.3361,34.0276 62.0028,34.6942 63.5,35.5 Z M 48.5,36.5 C 49.2891,36.7828 49.9558,37.2828 50.5,38C 49.184,38.5281 48.5173,38.0281 48.5,36.5 Z M 58.5,43.5 C 58.1667,43.5 57.8333,43.5 57.5,43.5C 57.5,42.5 57.5,41.5 57.5,40.5C 55.6916,40.5086 54.0249,40.0086 52.5,39C 56.8333,38.3333 61.1667,38.3333 65.5,39C 63.26,39.977 60.9267,40.477 58.5,40.5C 58.5,41.5 58.5,42.5 58.5,43.5 Z M 57.5,43.5 C 58.1667,46.1667 58.8333,48.8333 59.5,51.5C 64.1785,51.6658 68.8452,51.4992 73.5,51C 72.944,50.6174 72.6107,50.1174 72.5,49.5C 75.6272,49.7064 78.6272,49.7064 81.5,49.5C 79.1925,50.405 79.1925,51.7383 81.5,53.5C 83.5,54.1667 85.5,54.8333 87.5,55.5C 88.463,55.0302 88.463,54.3635 87.5,53.5C 89.8398,54.086 92.0065,55.086 94,56.5C 95.0566,62.9389 93.89,68.9389 90.5,74.5C 90.1928,73.1125 90.1928,71.4458 90.5,69.5C 88.5,69.5 86.5,69.5 84.5,69.5C 84.5,71.1667 84.5,72.8333 84.5,74.5C 83.5,74.5 82.5,74.5 81.5,74.5C 81.6646,71.4816 81.498,68.4816 81,65.5C 78.9592,64.5769 76.7925,64.2436 74.5,64.5C 74.6646,67.5184 74.498,70.5184 74,73.5C 73.6667,69.5 73.3333,65.5 73,61.5C 70.9587,59.3501 68.4587,58.3501 65.5,58.5C 65.5,61.1667 65.5,63.8333 65.5,66.5C 63.5328,66.2606 61.6995,66.5939 60,67.5C 59.5026,70.146 59.3359,72.8127 59.5,75.5C 58.5,75.5 57.5,75.5 56.5,75.5C 56.666,70.1563 56.4994,64.8229 56,59.5C 54.117,58.3474 53.2837,56.6807 53.5,54.5C 51.0968,54.393 49.2635,55.393 48,57.5C 48.1135,64.3143 47.6135,68.3143 46.5,69.5C 45.1667,69.5 43.8333,69.5 42.5,69.5C 42.5,66.8333 42.5,64.1667 42.5,61.5C 39.8333,61.5 37.1667,61.5 34.5,61.5C 34.8242,65.5546 34.4909,69.5546 33.5,73.5C 31.5336,64.6347 29.0336,64.6347 26,73.5C 23.093,67.4739 21.7597,61.1405 22,54.5C 23.262,52.6972 24.9287,51.3639 27,50.5C 27.1962,52.2861 28.0295,53.6195 29.5,54.5C 31.0731,50.2156 34.0731,47.5489 38.5,46.5C 37.9947,49.8411 37.8281,53.1745 38,56.5C 41.4065,54.255 44.2399,51.5883 46.5,48.5C 50.3163,47.0906 53.9829,45.424 57.5,43.5 Z M 124.5,50.5 C 127.518,50.3354 130.518,50.502 133.5,51C 136.167,53.3333 136.167,55.6667 133.5,58C 130.607,59.1488 127.607,59.6488 124.5,59.5C 124.5,56.5 124.5,53.5 124.5,50.5 Z M 174.5,50.5 C 177.85,50.335 181.183,50.5017 184.5,51C 185.833,52.6667 185.833,54.3333 184.5,56C 181.183,56.4983 177.85,56.665 174.5,56.5C 174.5,54.5 174.5,52.5 174.5,50.5 Z M 174.5,60.5 C 177.85,60.335 181.183,60.5017 184.5,61C 187.228,63.4348 186.894,65.4348 183.5,67C 180.518,67.498 177.518,67.6646 174.5,67.5C 174.5,65.1667 174.5,62.8333 174.5,60.5 Z M 181.5,78.5 C 187.028,77.0693 190.362,79.0693 191.5,84.5C 189.274,91.1861 185.441,92.5195 180,88.5C 178.254,84.8816 178.754,81.5483 181.5,78.5 Z M 203.5,78.5 C 211.505,77.3421 214.339,80.6754 212,88.5C 206.559,92.5195 202.726,91.1861 200.5,84.5C 200.984,82.1992 201.984,80.1992 203.5,78.5 Z M 32.5,83.5 C 49.6618,82.3382 66.9951,82.1715 84.5,83C 84,83.5 83.5,84 83,84.5C 66.035,83.5294 49.2016,83.1961 32.5,83.5 Z M 42.5,90.5 C 52.992,89.3412 63.6586,89.1745 74.5,90C 63.9066,94.4945 53.2399,94.6611 42.5,90.5 Z"/></g>
<g><path style="opacity:0.815" fill="#fefffe" d="M 53.5,17.5 C 75.903,16.9364 90.403,27.2697 97,48.5C 100.288,72.4144 90.4551,88.2477 67.5,96C 41.0184,98.8531 24.8517,87.3531 19,61.5C 18.4157,37.2606 29.9157,22.5939 53.5,17.5 Z M 69.5,31.5 C 68.105,32.6477 68.2716,33.6477 70,34.5C 70.7401,33.2506 70.5735,32.2506 69.5,31.5 Z M 63.5,35.5 C 60.1667,35.5 56.8333,35.5 53.5,35.5C 54.9972,34.6942 56.6639,34.0276 58.5,33.5C 60.3361,34.0276 62.0028,34.6942 63.5,35.5 Z M 48.5,36.5 C 48.5173,38.0281 49.184,38.5281 50.5,38C 49.9558,37.2828 49.2891,36.7828 48.5,36.5 Z M 58.5,43.5 C 58.1667,43.5 57.8333,43.5 57.5,43.5C 57.5,42.5 57.5,41.5 57.5,40.5C 55.6916,40.5086 54.0249,40.0086 52.5,39C 56.8333,38.3333 61.1667,38.3333 65.5,39C 63.26,39.977 60.9267,40.477 58.5,40.5C 58.5,41.5 58.5,42.5 58.5,43.5 Z M 57.5,43.5 C 58.1667,46.1667 58.8333,48.8333 59.5,51.5C 64.1785,51.6658 68.8452,51.4992 73.5,51C 72.944,50.6174 72.6107,50.1174 72.5,49.5C 75.6272,49.7064 78.6272,49.7064 81.5,49.5C 79.1925,50.405 79.1925,51.7383 81.5,53.5C 83.5,54.1667 85.5,54.8333 87.5,55.5C 88.463,55.0302 88.463,54.3635 87.5,53.5C 89.8398,54.086 92.0065,55.086 94,56.5C 95.0566,62.9389 93.89,68.9389 90.5,74.5C 90.1928,73.1125 90.1928,71.4458 90.5,69.5C 88.5,69.5 86.5,69.5 84.5,69.5C 84.5,71.1667 84.5,72.8333 84.5,74.5C 83.5,74.5 82.5,74.5 81.5,74.5C 81.6646,71.4816 81.498,68.4816 81,65.5C 78.9592,64.5769 76.7925,64.2436 74.5,64.5C 74.6646,67.5184 74.498,70.5184 74,73.5C 73.6667,69.5 73.3333,65.5 73,61.5C 70.9587,59.3501 68.4587,58.3501 65.5,58.5C 65.5,61.1667 65.5,63.8333 65.5,66.5C 63.5328,66.2606 61.6995,66.5939 60,67.5C 59.5026,70.146 59.3359,72.8127 59.5,75.5C 58.5,75.5 57.5,75.5 56.5,75.5C 56.666,70.1563 56.4994,64.8229 56,59.5C 54.117,58.3474 53.2837,56.6807 53.5,54.5C 51.0968,54.393 49.2635,55.393 48,57.5C 48.1135,64.3143 47.6135,68.3143 46.5,69.5C 45.1667,69.5 43.8333,69.5 42.5,69.5C 42.5,66.8333 42.5,64.1667 42.5,61.5C 39.8333,61.5 37.1667,61.5 34.5,61.5C 34.8242,65.5546 34.4909,69.5546 33.5,73.5C 31.5336,64.6347 29.0336,64.6347 26,73.5C 23.093,67.4739 21.7597,61.1405 22,54.5C 23.262,52.6972 24.9287,51.3639 27,50.5C 27.1962,52.2861 28.0295,53.6195 29.5,54.5C 31.0731,50.2156 34.0731,47.5489 38.5,46.5C 37.9947,49.8411 37.8281,53.1745 38,56.5C 41.4065,54.255 44.2399,51.5883 46.5,48.5C 50.3163,47.0906 53.9829,45.424 57.5,43.5 Z M 32.5,83.5 C 49.2016,83.1961 66.035,83.5294 83,84.5C 83.5,84 84,83.5 84.5,83C 66.9951,82.1715 49.6618,82.3382 32.5,83.5 Z M 42.5,90.5 C 53.2399,94.6611 63.9066,94.4945 74.5,90C 63.6586,89.1745 52.992,89.3412 42.5,90.5 Z"/></g>
<g><path style="opacity:0.474" fill="#fefffe" d="M 107.5,20.5 C 108.832,32.3145 109.499,44.4812 109.5,57C 109.167,69.1667 108.833,81.3333 108.5,93.5C 107.5,69.1758 107.167,44.8425 107.5,20.5 Z"/></g>
<g><path style="opacity:0.632" fill="#fefffe" d="M 120.5,20.5 C 130.833,17.992 137.5,21.6586 140.5,31.5C 137.5,41.3414 130.833,45.008 120.5,42.5C 120.5,35.1667 120.5,27.8333 120.5,20.5 Z M 124.5,24.5 C 124.5,29.5 124.5,34.5 124.5,39.5C 127.988,39.2946 131.321,38.4613 134.5,37C 138.525,27.261 135.192,23.0943 124.5,24.5 Z"/></g>
<g><path style="opacity:0.666" fill="#fefffe" d="M 144.5,20.5 C 149.833,20.5 155.167,20.5 160.5,20.5C 160.688,22.1033 160.188,23.4366 159,24.5C 155.27,23.5399 151.437,23.2065 147.5,23.5C 147.5,25.5 147.5,27.5 147.5,29.5C 151.5,29.5 155.5,29.5 159.5,29.5C 159.5,30.8333 159.5,32.1667 159.5,33.5C 155.5,33.5 151.5,33.5 147.5,33.5C 147.5,35.5 147.5,37.5 147.5,39.5C 151.24,39.7592 154.906,39.4259 158.5,38.5C 160.111,39.3202 160.778,40.6536 160.5,42.5C 155.167,42.5 149.833,42.5 144.5,42.5C 144.5,35.1667 144.5,27.8333 144.5,20.5 Z"/></g>
<g><path style="opacity:0.623" fill="#fefffe" d="M 168.5,27.5 C 168.5,32.5 168.5,37.5 168.5,42.5C 167.167,42.5 165.833,42.5 164.5,42.5C 164.5,35.1667 164.5,27.8333 164.5,20.5C 165.978,20.238 167.311,20.5713 168.5,21.5C 172.192,26.0252 175.692,30.6919 179,35.5C 179.499,30.5111 179.666,25.5111 179.5,20.5C 180.833,20.5 182.167,20.5 183.5,20.5C 183.5,27.8333 183.5,35.1667 183.5,42.5C 182.448,42.6495 181.448,42.4828 180.5,42C 176.258,37.2684 172.258,32.4351 168.5,27.5 Z"/></g>
<g><path style="opacity:0.65" fill="#fefffe" d="M 186.5,20.5 C 187.978,20.238 189.311,20.5713 190.5,21.5C 192.943,26.7199 195.11,32.0532 197,37.5C 199.742,32.0227 201.908,26.356 203.5,20.5C 204.833,20.5 206.167,20.5 207.5,20.5C 205.5,26.9956 203,33.329 200,39.5C 199.653,41.1802 198.653,42.1802 197,42.5C 192.717,35.5984 189.217,28.2651 186.5,20.5 Z"/></g>
<g><path style="opacity:0.682" fill="#fefffe" d="M 211.5,20.5 C 216.833,20.5 222.167,20.5 227.5,20.5C 227.539,22.3588 226.706,23.6921 225,24.5C 221.606,23.5442 218.106,23.2108 214.5,23.5C 214.5,25.5 214.5,27.5 214.5,29.5C 218.167,29.5 221.833,29.5 225.5,29.5C 225.5,30.8333 225.5,32.1667 225.5,33.5C 221.833,33.5 218.167,33.5 214.5,33.5C 214.5,35.5 214.5,37.5 214.5,39.5C 218.24,39.7592 221.906,39.4259 225.5,38.5C 227.111,39.3202 227.778,40.6536 227.5,42.5C 222.167,42.5 216.833,42.5 211.5,42.5C 211.5,35.1667 211.5,27.8333 211.5,20.5 Z"/></g>
<g><path style="opacity:0.648" fill="#fefffe" d="M 231.5,20.5 C 235.846,20.3343 240.179,20.501 244.5,21C 251.349,25.7017 251.016,30.035 243.5,34C 245.62,36.4087 247.62,38.9087 249.5,41.5C 248.277,42.6139 246.944,42.7805 245.5,42C 243.554,38.4825 240.888,35.9825 237.5,34.5C 236.5,34.6667 235.5,34.8333 234.5,35C 235.435,37.3806 235.768,39.8806 235.5,42.5C 234.167,42.5 232.833,42.5 231.5,42.5C 231.5,35.1667 231.5,27.8333 231.5,20.5 Z M 234.5,25.5 C 235.735,27.017 235.735,28.6837 234.5,30.5C 238.154,31.8115 241.654,31.4781 245,29.5C 245.72,27.8876 245.554,26.3876 244.5,25C 240.973,24.1925 237.64,24.3592 234.5,25.5 Z"/></g>
<g><path style="opacity:0.649" fill="#fefffe" d="M 38.5,46.5 C 38.8333,46.5 39.1667,46.5 39.5,46.5C 40.209,47.404 41.209,47.7373 42.5,47.5C 43.5676,48.4345 44.901,48.7678 46.5,48.5C 44.2399,51.5883 41.4065,54.255 38,56.5C 37.8281,53.1745 37.9947,49.8411 38.5,46.5 Z"/></g>
<g><path style="opacity:0.676" fill="#fefffe" d="M 120.5,46.5 C 124.846,46.3343 129.179,46.501 133.5,47C 141.052,51.5348 141.385,56.5348 134.5,62C 131.183,62.4983 127.85,62.665 124.5,62.5C 124.5,65.1667 124.5,67.8333 124.5,70.5C 123.167,70.5 121.833,70.5 120.5,70.5C 120.5,62.5 120.5,54.5 120.5,46.5 Z M 124.5,50.5 C 124.5,53.5 124.5,56.5 124.5,59.5C 127.607,59.6488 130.607,59.1488 133.5,58C 136.167,55.6667 136.167,53.3333 133.5,51C 130.518,50.502 127.518,50.3354 124.5,50.5 Z"/></g>
<g><path style="opacity:0.659" fill="#fefffe" d="M 143.5,46.5 C 144.833,46.5 146.167,46.5 147.5,46.5C 147.334,51.8437 147.501,57.1771 148,62.5C 149.573,67.0348 152.739,68.5348 157.5,67C 158.701,66.0975 159.535,64.9308 160,63.5C 160.499,57.8431 160.666,52.1764 160.5,46.5C 161.833,46.5 163.167,46.5 164.5,46.5C 164.877,53.2569 164.377,59.9236 163,66.5C 156.512,73.3954 150.512,73.0621 145,65.5C 143.63,59.2584 143.13,52.9251 143.5,46.5 Z"/></g>
<g><path style="opacity:0.678" fill="#fefffe" d="M 170.5,46.5 C 175.959,46.1033 181.292,46.6033 186.5,48C 190.367,51.4179 190.367,54.7512 186.5,58C 191.818,62.049 191.818,66.049 186.5,70C 181.177,70.4994 175.844,70.666 170.5,70.5C 170.5,62.5 170.5,54.5 170.5,46.5 Z M 174.5,50.5 C 174.5,52.5 174.5,54.5 174.5,56.5C 177.85,56.665 181.183,56.4983 184.5,56C 185.833,54.3333 185.833,52.6667 184.5,51C 181.183,50.5017 177.85,50.335 174.5,50.5 Z M 174.5,60.5 C 174.5,62.8333 174.5,65.1667 174.5,67.5C 177.518,67.6646 180.518,67.498 183.5,67C 186.894,65.4348 187.228,63.4348 184.5,61C 181.183,60.5017 177.85,60.335 174.5,60.5 Z"/></g>
<g><path style="opacity:0.675" fill="#fefffe" d="M 196.5,46.5 C 197.5,46.5 198.5,46.5 199.5,46.5C 199.5,53.5 199.5,60.5 199.5,67.5C 203.833,67.5 208.167,67.5 212.5,67.5C 212.5,68.5 212.5,69.5 212.5,70.5C 206.833,70.5 201.167,70.5 195.5,70.5C 195.199,62.4144 195.533,54.4144 196.5,46.5 Z"/></g>
<g><path style="opacity:0.612" fill="#fefffe" d="M 218.5,46.5 C 219.833,46.5 221.167,46.5 222.5,46.5C 222.5,54.5 222.5,62.5 222.5,70.5C 221.167,70.5 219.833,70.5 218.5,70.5C 218.5,62.5 218.5,54.5 218.5,46.5 Z"/></g>
<g><path style="opacity:0.681" fill="#fefffe" d="M 235.5,46.5 C 238.518,46.3354 241.518,46.502 244.5,47C 246.555,47.6872 248.221,48.8539 249.5,50.5C 249.167,51.5 248.5,52.1667 247.5,52.5C 236.253,47.5482 231.419,51.2148 233,63.5C 234.87,66.0184 237.37,67.3518 240.5,67.5C 243.386,66.8635 246.053,66.0301 248.5,65C 249.412,67.4882 248.412,69.1548 245.5,70C 232.505,72.3398 227.005,66.8398 229,53.5C 230.694,50.6424 232.861,48.309 235.5,46.5 Z"/></g>
<g><path style="opacity:0.435" fill="#fefffe" d="M 81.5,49.5 C 81.5,50.1667 81.8333,50.5 82.5,50.5C 82.8417,51.3382 83.5084,51.6716 84.5,51.5C 84.8417,52.3382 85.5084,52.6716 86.5,52.5C 86.5,53.1667 86.8333,53.5 87.5,53.5C 88.463,54.3635 88.463,55.0302 87.5,55.5C 85.5,54.8333 83.5,54.1667 81.5,53.5C 79.1925,51.7383 79.1925,50.405 81.5,49.5 Z"/></g>
<g><path style="opacity:0.612" fill="#fefffe" d="M 126.5,74.5 C 130.181,74.5729 132.514,76.2396 133.5,79.5C 130.545,78.8413 127.545,78.5079 124.5,78.5C 124.33,79.8221 124.663,80.9887 125.5,82C 128.872,82.5622 131.705,84.0622 134,86.5C 134.763,91.0871 132.763,93.7538 128,94.5C 124.983,94.0047 122.483,92.6714 120.5,90.5C 120.808,89.6919 121.308,89.0253 122,88.5C 125.529,91.7051 128.696,91.7051 131.5,88.5C 128.829,86.5409 125.829,85.0409 122.5,84C 120.046,79.3946 121.379,76.2279 126.5,74.5 Z"/></g>
<g><path style="opacity:0.621" fill="#fefffe" d="M 145.5,74.5 C 148.835,74.6528 151.502,75.9861 153.5,78.5C 152.731,80.8008 151.731,80.9675 150.5,79C 141.474,77.8475 138.808,81.3475 142.5,89.5C 145.875,91.9188 149.042,91.5855 152,88.5C 153.951,90.1371 153.784,91.6371 151.5,93C 139.584,95.0771 135.418,90.2438 139,78.5C 141.013,76.7518 143.18,75.4185 145.5,74.5 Z"/></g>
<g><path style="opacity:0.635" fill="#fefffe" d="M 183.5,74.5 C 194.018,76.5346 196.685,82.2013 191.5,91.5C 183.237,96.1836 177.903,93.8503 175.5,84.5C 176.368,79.6408 179.035,76.3074 183.5,74.5 Z M 181.5,78.5 C 178.754,81.5483 178.254,84.8816 180,88.5C 185.441,92.5195 189.274,91.1861 191.5,84.5C 190.362,79.0693 187.028,77.0693 181.5,78.5 Z"/></g>
<g><path style="opacity:0.614" fill="#fefffe" d="M 205.5,74.5 C 214.632,75.7884 217.799,80.7884 215,89.5C 209.999,95.5867 204.666,95.9201 199,90.5C 195.451,82.639 197.617,77.3056 205.5,74.5 Z M 203.5,78.5 C 201.984,80.1992 200.984,82.1992 200.5,84.5C 202.726,91.1861 206.559,92.5195 212,88.5C 214.339,80.6754 211.505,77.3421 203.5,78.5 Z"/></g>
<g><path style="opacity:0.604" fill="#fefffe" d="M 241.5,74.5 C 243.47,75.1616 245.47,75.8283 247.5,76.5C 248.521,77.0016 248.688,77.6683 248,78.5C 244.983,78.781 241.817,78.781 238.5,78.5C 238.33,79.8221 238.663,80.9887 239.5,82C 242.624,82.4791 245.457,83.6457 248,85.5C 249.623,90.8819 247.623,93.8819 242,94.5C 238.983,94.0047 236.483,92.6714 234.5,90.5C 234.833,89.5 235.5,88.8333 236.5,88.5C 238.289,89.8772 240.289,90.8772 242.5,91.5C 245.153,90.715 245.82,89.215 244.5,87C 241.488,86.2196 238.655,85.0529 236,83.5C 235.333,81.5 235.333,79.5 236,77.5C 237.876,76.3913 239.709,75.3913 241.5,74.5 Z"/></g>
<g><path style="opacity:0.522" fill="#fefffe" d="M 156.5,75.5 C 157.833,75.5 159.167,75.5 160.5,75.5C 160.5,77.8333 160.5,80.1667 160.5,82.5C 163.167,82.5 165.833,82.5 168.5,82.5C 168.5,80.1667 168.5,77.8333 168.5,75.5C 169.833,75.5 171.167,75.5 172.5,75.5C 172.5,81.5 172.5,87.5 172.5,93.5C 171.167,93.5 169.833,93.5 168.5,93.5C 168.5,91.1667 168.5,88.8333 168.5,86.5C 165.833,86.5 163.167,86.5 160.5,86.5C 160.5,88.8333 160.5,91.1667 160.5,93.5C 159.167,93.5 157.833,93.5 156.5,93.5C 156.5,87.5 156.5,81.5 156.5,75.5 Z"/></g>
<g><path style="opacity:0.554" fill="#fefffe" d="M 219.5,75.5 C 220.833,75.5 222.167,75.5 223.5,75.5C 223.803,80.43 223.469,85.2633 222.5,90C 225.817,90.4983 229.15,90.665 232.5,90.5C 232.5,91.5 232.5,92.5 232.5,93.5C 228.167,93.5 223.833,93.5 219.5,93.5C 219.5,87.5 219.5,81.5 219.5,75.5 Z"/></g>
<g><path style="opacity:0.457" fill="#fefffe" d="M 115.5,118.5 C 115.35,115.074 116.516,114.741 119,117.5C 121.624,116.389 123.124,114.389 123.5,111.5C 123.833,111.667 124.167,111.833 124.5,112C 125.8,116.45 125.8,120.95 124.5,125.5C 123.132,123.363 122.132,121.03 121.5,118.5C 119.438,120.36 118.105,122.694 117.5,125.5C 116.832,123.031 116.165,120.698 115.5,118.5 Z"/></g>
<g><path style="opacity:0.516" fill="#fefffe" d="M 131.5,111.5 C 132.5,111.5 133.5,111.5 134.5,111.5C 134.372,115.881 134.705,120.215 135.5,124.5C 133.876,124.64 132.71,123.973 132,122.5C 128.245,126.788 126.578,126.121 127,120.5C 128.319,118.513 130.152,117.346 132.5,117C 131.594,115.301 131.261,113.467 131.5,111.5 Z"/></g>
<g><path style="opacity:0.542" fill="#fefffe" d="M 211.5,111.5 C 213.176,112.183 213.843,113.517 213.5,115.5C 218.148,115.296 220.481,117.629 220.5,122.5C 221.988,120.851 222.988,118.851 223.5,116.5C 224.48,119.086 224.813,121.753 224.5,124.5C 218.6,126.356 216.267,124.023 217.5,117.5C 216.178,117.33 215.011,117.663 214,118.5C 213,127.833 212,127.833 211,118.5C 209.667,119.833 208.333,119.833 207,118.5C 205.39,120.597 204.223,122.93 203.5,125.5C 202.479,122.505 201.979,119.505 202,116.5C 204.864,116.636 208.031,116.636 211.5,116.5C 211.5,114.833 211.5,113.167 211.5,111.5 Z"/></g>
<g><path style="opacity:0.452" fill="#fefffe" d="M 243.5,111.5 C 245.912,111.694 246.912,113.027 246.5,115.5C 249.988,116.143 252.488,118.143 254,121.5C 254.736,118.68 256.402,116.68 259,115.5C 257.085,120.171 255.918,125.171 255.5,130.5C 254.5,130.5 253.5,130.5 252.5,130.5C 252.318,128.409 252.652,126.409 253.5,124.5C 248.215,115.534 245.548,115.868 245.5,125.5C 244.914,125.291 244.414,124.957 244,124.5C 243.667,122.5 243.333,120.5 243,118.5C 241.989,119.337 240.822,119.67 239.5,119.5C 239.833,121.5 240.167,123.5 240.5,125.5C 239.5,125.5 238.5,125.5 237.5,125.5C 237.759,121.76 237.426,118.094 236.5,114.5C 237.325,113.614 238.325,113.281 239.5,113.5C 239.5,114.5 239.5,115.5 239.5,116.5C 240.833,116.5 242.167,116.5 243.5,116.5C 243.5,114.833 243.5,113.167 243.5,111.5 Z"/></g>
<g><path style="opacity:0.352" fill="#fefffe" d="M 259.5,112.5 C 262.011,112.838 264.345,112.838 266.5,112.5C 267.452,114.045 267.785,115.712 267.5,117.5C 265.167,117.5 262.833,117.5 260.5,117.5C 260.371,115.784 260.038,114.117 259.5,112.5 Z"/></g>
<g><path style="opacity:0.527" fill="#fefffe" d="M 9.5,113.5 C 13.4587,113.071 16.9587,114.071 20,116.5C 21.0906,121.098 19.2573,123.931 14.5,125C 13.365,125.749 12.365,125.583 11.5,124.5C 10.6479,120.869 9.98122,117.202 9.5,113.5 Z M 12.5,116.5 C 14.1992,116.34 15.8659,116.506 17.5,117C 19.0318,120.008 18.0318,121.842 14.5,122.5C 13.5233,120.589 12.8567,118.589 12.5,116.5 Z"/></g>
<g><path style="opacity:0.383" fill="#fefffe" d="M 21.5,113.5 C 23.1852,114.184 24.1852,115.517 24.5,117.5C 24.5508,120.063 24.2175,122.729 23.5,125.5C 22.914,125.291 22.414,124.957 22,124.5C 21.9306,120.681 21.7639,117.014 21.5,113.5 Z"/></g>
<g><path style="opacity:0.522" fill="#fefffe" d="M 95.5,113.5 C 96.4959,113.414 97.3292,113.748 98,114.5C 98.3333,116.167 98.6667,117.833 99,119.5C 99.4828,118.552 99.6495,117.552 99.5,116.5C 102.05,116.561 103.55,117.894 104,120.5C 104.497,118.19 104.663,115.857 104.5,113.5C 105.5,113.5 106.5,113.5 107.5,113.5C 106.955,116.813 106.455,120.146 106,123.5C 103.071,124.276 101.404,122.943 101,119.5C 100.846,122.525 99.3455,124.191 96.5,124.5C 96.4476,120.802 96.1143,117.135 95.5,113.5 Z"/></g>
<g><path style="opacity:0.532" fill="#fefffe" d="M 153.5,113.5 C 155.167,113.5 156.833,113.5 158.5,113.5C 158.911,116.276 158.078,116.943 156,115.5C 152.761,118.471 153.427,119.138 158,117.5C 159.257,117.85 159.591,118.517 159,119.5C 157.301,120.406 155.467,120.739 153.5,120.5C 154.057,122.949 154.057,125.282 153.5,127.5C 151.869,125.941 151.036,123.941 151,121.5C 147.555,126.536 144.388,126.536 141.5,121.5C 143.575,115.856 146.575,115.19 150.5,119.5C 151.509,117.482 152.509,115.482 153.5,113.5 Z M 145.5,118.5 C 146.995,118.415 147.995,119.081 148.5,120.5C 147.68,122.111 146.346,122.778 144.5,122.5C 144.433,121.041 144.766,119.708 145.5,118.5 Z"/></g>
<g><path style="opacity:0.549" fill="#fefffe" d="M 166.5,113.5 C 170.594,112.705 173.761,114.038 176,117.5C 178.333,116.167 180.667,116.167 183,117.5C 183.667,118.833 183.667,120.167 183,121.5C 181.414,122.376 179.914,123.376 178.5,124.5C 179.348,126.409 179.682,128.409 179.5,130.5C 178.5,130.5 177.5,130.5 176.5,130.5C 176.665,127.15 176.498,123.817 176,120.5C 174.159,123.178 171.659,124.845 168.5,125.5C 163.858,122.278 163.191,118.278 166.5,113.5 Z M 168.5,115.5 C 173.493,115.997 174.493,118.164 171.5,122C 169.597,122.774 167.93,122.44 166.5,121C 167.464,119.275 168.131,117.441 168.5,115.5 Z M 178.5,118.5 C 182.3,118.819 182.466,119.819 179,121.5C 178.517,120.552 178.351,119.552 178.5,118.5 Z"/></g>
<g><path style="opacity:0.501" fill="#fefffe" d="M 58.5,120.5 C 57.6963,122.189 56.6963,123.855 55.5,125.5C 54.1433,123.435 52.81,121.435 51.5,119.5C 51.5173,117.972 52.184,117.472 53.5,118C 54.1905,119.067 54.6905,120.234 55,121.5C 56.128,119.655 56.628,117.655 56.5,115.5C 57.675,115.281 58.675,115.614 59.5,116.5C 58.7542,117.736 58.4208,119.07 58.5,120.5 Z"/></g>
<g><path style="opacity:0.482" fill="#fefffe" d="M 69.5,115.5 C 70.7899,116.058 71.6232,117.058 72,118.5C 72.6667,117.167 73.6667,116.167 75,115.5C 75.1667,116 75.3333,116.5 75.5,117C 73.6154,119.804 71.9488,122.637 70.5,125.5C 69.513,122.232 69.1796,118.898 69.5,115.5 Z"/></g>
<g><path style="opacity:0.537" fill="#fefffe" d="M 195.5,115.5 C 202.043,118.868 202.043,122.201 195.5,125.5C 193.364,124.528 192.197,122.861 192,120.5C 190.421,122.041 188.587,123.208 186.5,124C 187.423,126.041 187.756,128.208 187.5,130.5C 186.5,130.5 185.5,130.5 184.5,130.5C 184.5,125.833 184.5,121.167 184.5,116.5C 187.602,116.154 190.435,116.821 193,118.5C 193.698,117.309 194.531,116.309 195.5,115.5 Z M 186.5,118.5 C 190.3,118.819 190.466,119.819 187,121.5C 186.517,120.552 186.351,119.552 186.5,118.5 Z M 196.5,118.5 C 199.23,121.051 198.563,122.384 194.5,122.5C 194.527,120.801 195.194,119.467 196.5,118.5 Z"/></g>
<g><path style="opacity:0.518" fill="#fefffe" d="M 225.5,115.5 C 226.496,115.414 227.329,115.748 228,116.5C 228.333,117.833 228.667,119.167 229,120.5C 229.869,117.606 231.702,116.439 234.5,117C 235.523,119.449 236.023,121.949 236,124.5C 235.333,125.833 234.667,125.833 234,124.5C 233.798,122.744 233.298,121.078 232.5,119.5C 230.833,121.5 229.167,123.5 227.5,125.5C 226.555,122.212 225.888,118.879 225.5,115.5 Z"/></g>
<g><path style="opacity:0.507" fill="#fefffe" d="M 51.5,119.5 C 49.8653,125.573 46.6986,126.573 42,122.5C 39.2385,125.361 36.4051,125.694 33.5,123.5C 31.0699,125.571 28.4033,125.904 25.5,124.5C 26.09,123.201 27.09,122.368 28.5,122C 27.552,121.517 26.552,121.351 25.5,121.5C 25.33,120.178 25.6634,119.011 26.5,118C 28.5787,117.192 30.5787,117.359 32.5,118.5C 31.624,119.251 30.624,119.751 29.5,120C 30.7659,120.309 31.9326,120.809 33,121.5C 33.9172,117.699 36.0839,116.366 39.5,117.5C 37.8333,118.5 36.5,119.833 35.5,121.5C 36.1667,121.833 36.8333,122.167 37.5,122.5C 40.7089,120.735 43.7089,118.735 46.5,116.5C 48.6924,116.757 50.3591,117.757 51.5,119.5 Z M 46.5,118.5 C 50.6099,120.746 50.2765,122.079 45.5,122.5C 45.4326,121.041 45.7659,119.708 46.5,118.5 Z"/></g>
<g><path style="opacity:0.535" fill="#fefffe" d="M 58.5,120.5 C 60.3791,116.991 63.3791,115.658 67.5,116.5C 67.719,117.675 67.3857,118.675 66.5,119.5C 60.1099,121.678 60.1099,122.511 66.5,122C 67,121.5 67.5,121 68,120.5C 68.4502,123.064 67.2836,124.564 64.5,125C 61.2729,125.287 59.2729,123.787 58.5,120.5 Z"/></g>
<g><path style="opacity:0.545" fill="#fefffe" d="M 83.5,116.5 C 85.1667,116.5 86.8333,116.5 88.5,116.5C 88.8174,119.572 88.4841,122.572 87.5,125.5C 85.9522,123.078 84.2855,123.078 82.5,125.5C 80.5539,123.956 80.0539,121.956 81,119.5C 82.045,118.627 82.8783,117.627 83.5,116.5 Z M 84.5,118.5 C 85.2389,118.369 85.9056,118.536 86.5,119C 85.9236,121.268 84.5902,122.268 82.5,122C 83.305,120.887 83.9717,119.721 84.5,118.5 Z"/></g>
<g><path style="opacity:0.597" fill="#fefffe" d="M 115.5,118.5 C 115.814,122.193 114.148,124.527 110.5,125.5C 107.432,123.506 106.765,120.839 108.5,117.5C 111.1,116.154 113.433,116.488 115.5,118.5 Z M 110.5,118.5 C 111.995,118.415 112.995,119.081 113.5,120.5C 112.68,122.111 111.346,122.778 109.5,122.5C 109.433,121.041 109.766,119.708 110.5,118.5 Z"/></g>
</svg>
