<?xml version="1.0" encoding="utf-8"?>
<svg xmlns="http://www.w3.org/2000/svg" version="1.1" width="2880px" height="1920px" xmlns:xlink="http://www.w3.org/1999/xlink">
<g><path style="opacity:1" fill="#009245" d="M -0.5,-0.5 C 319.5,-0.5 639.5,-0.5 959.5,-0.5C 959.5,639.5 959.5,1279.5 959.5,1919.5C 639.5,1919.5 319.5,1919.5 -0.5,1919.5C -0.5,1279.5 -0.5,639.5 -0.5,-0.5 Z"/></g>
<g><path style="opacity:1" fill="#fefffe" d="M 959.5,-0.5 C 1279.5,-0.5 1599.5,-0.5 1919.5,-0.5C 1919.5,639.5 1919.5,1279.5 1919.5,1919.5C 1599.5,1919.5 1279.5,1919.5 959.5,1919.5C 959.5,1279.5 959.5,639.5 959.5,-0.5 Z"/></g>
<g><path style="opacity:1" fill="#cd2b36" d="M 1919.5,-0.5 C 2239.5,-0.5 2559.5,-0.5 2879.5,-0.5C 2879.5,639.5 2879.5,1279.5 2879.5,1919.5C 2559.5,1919.5 2239.5,1919.5 1919.5,1919.5C 1919.5,1279.5 1919.5,639.5 1919.5,-0.5 Z"/></g>
</svg>
