<?xml version="1.0" encoding="UTF-8"?>
<svg xmlns="http://www.w3.org/2000/svg" version="1.1" width="2880px" height="1920px"  xmlns:xlink="http://www.w3.org/1999/xlink">
<g><path style="opacity:1" fill="#4189dd" d="M -0.5,-0.5 C 959.5,-0.5 1919.5,-0.5 2879.5,-0.5C 2879.5,639.5 2879.5,1279.5 2879.5,1919.5C 1919.5,1919.5 959.5,1919.5 -0.5,1919.5C -0.5,1279.5 -0.5,639.5 -0.5,-0.5 Z"/></g>
<g><path style="opacity:1" fill="#fefefe" d="M 1543.5,816.5 C 1654.5,817.167 1765.5,817.833 1876.5,818.5C 1786.65,883.591 1696.98,948.925 1607.5,1014.5C 1642.4,1120.37 1676.57,1226.37 1710,1332.5C 1619.97,1266.97 1529.81,1201.64 1439.5,1136.5C 1349.19,1201.64 1259.03,1266.97 1169,1332.5C 1202.43,1226.37 1236.6,1120.37 1271.5,1014.5C 1182.02,948.925 1092.35,883.591 1002.5,818.5C 1113.5,817.833 1224.5,817.167 1335.5,816.5C 1369.96,710.446 1404.63,604.446 1439.5,498.5C 1474.37,604.446 1509.04,710.446 1543.5,816.5 Z"/></g>
<g><path style="opacity:1" fill="#e5eef9" d="M 1335.5,816.5 C 1224.5,817.167 1113.5,817.833 1002.5,818.5C 1001.71,818.217 1001.04,817.717 1000.5,817C 1112.17,816.5 1223.83,816.333 1335.5,816.5 Z"/></g>
<g><path style="opacity:1" fill="#e5eef9" d="M 1543.5,816.5 C 1655.17,816.333 1766.83,816.5 1878.5,817C 1877.96,817.717 1877.29,818.217 1876.5,818.5C 1765.5,817.833 1654.5,817.167 1543.5,816.5 Z"/></g>
</svg>
